%TF.GenerationSoftware,KiCad,Pcbnew,8.0.4*%
%TF.CreationDate,2024-08-17T03:05:55-04:00*%
%TF.ProjectId,50 pin ribbon adapter,35302070-696e-4207-9269-62626f6e2061,rev?*%
%TF.SameCoordinates,Original*%
%TF.FileFunction,Legend,Bot*%
%TF.FilePolarity,Positive*%
%FSLAX46Y46*%
G04 Gerber Fmt 4.6, Leading zero omitted, Abs format (unit mm)*
G04 Created by KiCad (PCBNEW 8.0.4) date 2024-08-17 03:05:55*
%MOMM*%
%LPD*%
G01*
G04 APERTURE LIST*
%ADD10C,0.150000*%
%ADD11C,0.120000*%
%ADD12R,1.700000X1.700000*%
%ADD13O,1.700000X1.700000*%
G04 APERTURE END LIST*
D10*
X150079104Y-37754160D02*
X150079104Y-38230350D01*
X150364819Y-37658922D02*
X149364819Y-37992255D01*
X149364819Y-37992255D02*
X150364819Y-38325588D01*
X150364819Y-39087493D02*
X149364819Y-39087493D01*
X150317200Y-39087493D02*
X150364819Y-38992255D01*
X150364819Y-38992255D02*
X150364819Y-38801779D01*
X150364819Y-38801779D02*
X150317200Y-38706541D01*
X150317200Y-38706541D02*
X150269580Y-38658922D01*
X150269580Y-38658922D02*
X150174342Y-38611303D01*
X150174342Y-38611303D02*
X149888628Y-38611303D01*
X149888628Y-38611303D02*
X149793390Y-38658922D01*
X149793390Y-38658922D02*
X149745771Y-38706541D01*
X149745771Y-38706541D02*
X149698152Y-38801779D01*
X149698152Y-38801779D02*
X149698152Y-38992255D01*
X149698152Y-38992255D02*
X149745771Y-39087493D01*
X150364819Y-39992255D02*
X149841009Y-39992255D01*
X149841009Y-39992255D02*
X149745771Y-39944636D01*
X149745771Y-39944636D02*
X149698152Y-39849398D01*
X149698152Y-39849398D02*
X149698152Y-39658922D01*
X149698152Y-39658922D02*
X149745771Y-39563684D01*
X150317200Y-39992255D02*
X150364819Y-39897017D01*
X150364819Y-39897017D02*
X150364819Y-39658922D01*
X150364819Y-39658922D02*
X150317200Y-39563684D01*
X150317200Y-39563684D02*
X150221961Y-39516065D01*
X150221961Y-39516065D02*
X150126723Y-39516065D01*
X150126723Y-39516065D02*
X150031485Y-39563684D01*
X150031485Y-39563684D02*
X149983866Y-39658922D01*
X149983866Y-39658922D02*
X149983866Y-39897017D01*
X149983866Y-39897017D02*
X149936247Y-39992255D01*
X149698152Y-40468446D02*
X150698152Y-40468446D01*
X149745771Y-40468446D02*
X149698152Y-40563684D01*
X149698152Y-40563684D02*
X149698152Y-40754160D01*
X149698152Y-40754160D02*
X149745771Y-40849398D01*
X149745771Y-40849398D02*
X149793390Y-40897017D01*
X149793390Y-40897017D02*
X149888628Y-40944636D01*
X149888628Y-40944636D02*
X150174342Y-40944636D01*
X150174342Y-40944636D02*
X150269580Y-40897017D01*
X150269580Y-40897017D02*
X150317200Y-40849398D01*
X150317200Y-40849398D02*
X150364819Y-40754160D01*
X150364819Y-40754160D02*
X150364819Y-40563684D01*
X150364819Y-40563684D02*
X150317200Y-40468446D01*
X149698152Y-41230351D02*
X149698152Y-41611303D01*
X149364819Y-41373208D02*
X150221961Y-41373208D01*
X150221961Y-41373208D02*
X150317200Y-41420827D01*
X150317200Y-41420827D02*
X150364819Y-41516065D01*
X150364819Y-41516065D02*
X150364819Y-41611303D01*
X150317200Y-42325589D02*
X150364819Y-42230351D01*
X150364819Y-42230351D02*
X150364819Y-42039875D01*
X150364819Y-42039875D02*
X150317200Y-41944637D01*
X150317200Y-41944637D02*
X150221961Y-41897018D01*
X150221961Y-41897018D02*
X149841009Y-41897018D01*
X149841009Y-41897018D02*
X149745771Y-41944637D01*
X149745771Y-41944637D02*
X149698152Y-42039875D01*
X149698152Y-42039875D02*
X149698152Y-42230351D01*
X149698152Y-42230351D02*
X149745771Y-42325589D01*
X149745771Y-42325589D02*
X149841009Y-42373208D01*
X149841009Y-42373208D02*
X149936247Y-42373208D01*
X149936247Y-42373208D02*
X150031485Y-41897018D01*
X150364819Y-42801780D02*
X149698152Y-42801780D01*
X149888628Y-42801780D02*
X149793390Y-42849399D01*
X149793390Y-42849399D02*
X149745771Y-42897018D01*
X149745771Y-42897018D02*
X149698152Y-42992256D01*
X149698152Y-42992256D02*
X149698152Y-43087494D01*
X149698152Y-44039876D02*
X149698152Y-44420828D01*
X150364819Y-44182733D02*
X149507676Y-44182733D01*
X149507676Y-44182733D02*
X149412438Y-44230352D01*
X149412438Y-44230352D02*
X149364819Y-44325590D01*
X149364819Y-44325590D02*
X149364819Y-44420828D01*
X150364819Y-44897019D02*
X150317200Y-44801781D01*
X150317200Y-44801781D02*
X150269580Y-44754162D01*
X150269580Y-44754162D02*
X150174342Y-44706543D01*
X150174342Y-44706543D02*
X149888628Y-44706543D01*
X149888628Y-44706543D02*
X149793390Y-44754162D01*
X149793390Y-44754162D02*
X149745771Y-44801781D01*
X149745771Y-44801781D02*
X149698152Y-44897019D01*
X149698152Y-44897019D02*
X149698152Y-45039876D01*
X149698152Y-45039876D02*
X149745771Y-45135114D01*
X149745771Y-45135114D02*
X149793390Y-45182733D01*
X149793390Y-45182733D02*
X149888628Y-45230352D01*
X149888628Y-45230352D02*
X150174342Y-45230352D01*
X150174342Y-45230352D02*
X150269580Y-45182733D01*
X150269580Y-45182733D02*
X150317200Y-45135114D01*
X150317200Y-45135114D02*
X150364819Y-45039876D01*
X150364819Y-45039876D02*
X150364819Y-44897019D01*
X150364819Y-45658924D02*
X149698152Y-45658924D01*
X149888628Y-45658924D02*
X149793390Y-45706543D01*
X149793390Y-45706543D02*
X149745771Y-45754162D01*
X149745771Y-45754162D02*
X149698152Y-45849400D01*
X149698152Y-45849400D02*
X149698152Y-45944638D01*
X149364819Y-47230353D02*
X149364819Y-47325591D01*
X149364819Y-47325591D02*
X149412438Y-47420829D01*
X149412438Y-47420829D02*
X149460057Y-47468448D01*
X149460057Y-47468448D02*
X149555295Y-47516067D01*
X149555295Y-47516067D02*
X149745771Y-47563686D01*
X149745771Y-47563686D02*
X149983866Y-47563686D01*
X149983866Y-47563686D02*
X150174342Y-47516067D01*
X150174342Y-47516067D02*
X150269580Y-47468448D01*
X150269580Y-47468448D02*
X150317200Y-47420829D01*
X150317200Y-47420829D02*
X150364819Y-47325591D01*
X150364819Y-47325591D02*
X150364819Y-47230353D01*
X150364819Y-47230353D02*
X150317200Y-47135115D01*
X150317200Y-47135115D02*
X150269580Y-47087496D01*
X150269580Y-47087496D02*
X150174342Y-47039877D01*
X150174342Y-47039877D02*
X149983866Y-46992258D01*
X149983866Y-46992258D02*
X149745771Y-46992258D01*
X149745771Y-46992258D02*
X149555295Y-47039877D01*
X149555295Y-47039877D02*
X149460057Y-47087496D01*
X149460057Y-47087496D02*
X149412438Y-47135115D01*
X149412438Y-47135115D02*
X149364819Y-47230353D01*
X150269580Y-47992258D02*
X150317200Y-48039877D01*
X150317200Y-48039877D02*
X150364819Y-47992258D01*
X150364819Y-47992258D02*
X150317200Y-47944639D01*
X150317200Y-47944639D02*
X150269580Y-47992258D01*
X150269580Y-47992258D02*
X150364819Y-47992258D01*
X149460057Y-48420829D02*
X149412438Y-48468448D01*
X149412438Y-48468448D02*
X149364819Y-48563686D01*
X149364819Y-48563686D02*
X149364819Y-48801781D01*
X149364819Y-48801781D02*
X149412438Y-48897019D01*
X149412438Y-48897019D02*
X149460057Y-48944638D01*
X149460057Y-48944638D02*
X149555295Y-48992257D01*
X149555295Y-48992257D02*
X149650533Y-48992257D01*
X149650533Y-48992257D02*
X149793390Y-48944638D01*
X149793390Y-48944638D02*
X150364819Y-48373210D01*
X150364819Y-48373210D02*
X150364819Y-48992257D01*
X149364819Y-49373210D02*
X149555295Y-49373210D01*
X149364819Y-49754162D02*
X149555295Y-49754162D01*
X150317200Y-50897020D02*
X150364819Y-50992258D01*
X150364819Y-50992258D02*
X150364819Y-51182734D01*
X150364819Y-51182734D02*
X150317200Y-51277972D01*
X150317200Y-51277972D02*
X150221961Y-51325591D01*
X150221961Y-51325591D02*
X150174342Y-51325591D01*
X150174342Y-51325591D02*
X150079104Y-51277972D01*
X150079104Y-51277972D02*
X150031485Y-51182734D01*
X150031485Y-51182734D02*
X150031485Y-51039877D01*
X150031485Y-51039877D02*
X149983866Y-50944639D01*
X149983866Y-50944639D02*
X149888628Y-50897020D01*
X149888628Y-50897020D02*
X149841009Y-50897020D01*
X149841009Y-50897020D02*
X149745771Y-50944639D01*
X149745771Y-50944639D02*
X149698152Y-51039877D01*
X149698152Y-51039877D02*
X149698152Y-51182734D01*
X149698152Y-51182734D02*
X149745771Y-51277972D01*
X149698152Y-51754163D02*
X150698152Y-51754163D01*
X149745771Y-51754163D02*
X149698152Y-51849401D01*
X149698152Y-51849401D02*
X149698152Y-52039877D01*
X149698152Y-52039877D02*
X149745771Y-52135115D01*
X149745771Y-52135115D02*
X149793390Y-52182734D01*
X149793390Y-52182734D02*
X149888628Y-52230353D01*
X149888628Y-52230353D02*
X150174342Y-52230353D01*
X150174342Y-52230353D02*
X150269580Y-52182734D01*
X150269580Y-52182734D02*
X150317200Y-52135115D01*
X150317200Y-52135115D02*
X150364819Y-52039877D01*
X150364819Y-52039877D02*
X150364819Y-51849401D01*
X150364819Y-51849401D02*
X150317200Y-51754163D01*
X150364819Y-53087496D02*
X149841009Y-53087496D01*
X149841009Y-53087496D02*
X149745771Y-53039877D01*
X149745771Y-53039877D02*
X149698152Y-52944639D01*
X149698152Y-52944639D02*
X149698152Y-52754163D01*
X149698152Y-52754163D02*
X149745771Y-52658925D01*
X150317200Y-53087496D02*
X150364819Y-52992258D01*
X150364819Y-52992258D02*
X150364819Y-52754163D01*
X150364819Y-52754163D02*
X150317200Y-52658925D01*
X150317200Y-52658925D02*
X150221961Y-52611306D01*
X150221961Y-52611306D02*
X150126723Y-52611306D01*
X150126723Y-52611306D02*
X150031485Y-52658925D01*
X150031485Y-52658925D02*
X149983866Y-52754163D01*
X149983866Y-52754163D02*
X149983866Y-52992258D01*
X149983866Y-52992258D02*
X149936247Y-53087496D01*
X150317200Y-53992258D02*
X150364819Y-53897020D01*
X150364819Y-53897020D02*
X150364819Y-53706544D01*
X150364819Y-53706544D02*
X150317200Y-53611306D01*
X150317200Y-53611306D02*
X150269580Y-53563687D01*
X150269580Y-53563687D02*
X150174342Y-53516068D01*
X150174342Y-53516068D02*
X149888628Y-53516068D01*
X149888628Y-53516068D02*
X149793390Y-53563687D01*
X149793390Y-53563687D02*
X149745771Y-53611306D01*
X149745771Y-53611306D02*
X149698152Y-53706544D01*
X149698152Y-53706544D02*
X149698152Y-53897020D01*
X149698152Y-53897020D02*
X149745771Y-53992258D01*
X150364819Y-54420830D02*
X149698152Y-54420830D01*
X149364819Y-54420830D02*
X149412438Y-54373211D01*
X149412438Y-54373211D02*
X149460057Y-54420830D01*
X149460057Y-54420830D02*
X149412438Y-54468449D01*
X149412438Y-54468449D02*
X149364819Y-54420830D01*
X149364819Y-54420830D02*
X149460057Y-54420830D01*
X149698152Y-54897020D02*
X150364819Y-54897020D01*
X149793390Y-54897020D02*
X149745771Y-54944639D01*
X149745771Y-54944639D02*
X149698152Y-55039877D01*
X149698152Y-55039877D02*
X149698152Y-55182734D01*
X149698152Y-55182734D02*
X149745771Y-55277972D01*
X149745771Y-55277972D02*
X149841009Y-55325591D01*
X149841009Y-55325591D02*
X150364819Y-55325591D01*
X149698152Y-56230353D02*
X150507676Y-56230353D01*
X150507676Y-56230353D02*
X150602914Y-56182734D01*
X150602914Y-56182734D02*
X150650533Y-56135115D01*
X150650533Y-56135115D02*
X150698152Y-56039877D01*
X150698152Y-56039877D02*
X150698152Y-55897020D01*
X150698152Y-55897020D02*
X150650533Y-55801782D01*
X150317200Y-56230353D02*
X150364819Y-56135115D01*
X150364819Y-56135115D02*
X150364819Y-55944639D01*
X150364819Y-55944639D02*
X150317200Y-55849401D01*
X150317200Y-55849401D02*
X150269580Y-55801782D01*
X150269580Y-55801782D02*
X150174342Y-55754163D01*
X150174342Y-55754163D02*
X149888628Y-55754163D01*
X149888628Y-55754163D02*
X149793390Y-55801782D01*
X149793390Y-55801782D02*
X149745771Y-55849401D01*
X149745771Y-55849401D02*
X149698152Y-55944639D01*
X149698152Y-55944639D02*
X149698152Y-56135115D01*
X149698152Y-56135115D02*
X149745771Y-56230353D01*
X150317200Y-57897020D02*
X150364819Y-57801782D01*
X150364819Y-57801782D02*
X150364819Y-57611306D01*
X150364819Y-57611306D02*
X150317200Y-57516068D01*
X150317200Y-57516068D02*
X150269580Y-57468449D01*
X150269580Y-57468449D02*
X150174342Y-57420830D01*
X150174342Y-57420830D02*
X149888628Y-57420830D01*
X149888628Y-57420830D02*
X149793390Y-57468449D01*
X149793390Y-57468449D02*
X149745771Y-57516068D01*
X149745771Y-57516068D02*
X149698152Y-57611306D01*
X149698152Y-57611306D02*
X149698152Y-57801782D01*
X149698152Y-57801782D02*
X149745771Y-57897020D01*
X150364819Y-58754163D02*
X149841009Y-58754163D01*
X149841009Y-58754163D02*
X149745771Y-58706544D01*
X149745771Y-58706544D02*
X149698152Y-58611306D01*
X149698152Y-58611306D02*
X149698152Y-58420830D01*
X149698152Y-58420830D02*
X149745771Y-58325592D01*
X150317200Y-58754163D02*
X150364819Y-58658925D01*
X150364819Y-58658925D02*
X150364819Y-58420830D01*
X150364819Y-58420830D02*
X150317200Y-58325592D01*
X150317200Y-58325592D02*
X150221961Y-58277973D01*
X150221961Y-58277973D02*
X150126723Y-58277973D01*
X150126723Y-58277973D02*
X150031485Y-58325592D01*
X150031485Y-58325592D02*
X149983866Y-58420830D01*
X149983866Y-58420830D02*
X149983866Y-58658925D01*
X149983866Y-58658925D02*
X149936247Y-58754163D01*
X150364819Y-59230354D02*
X149698152Y-59230354D01*
X149888628Y-59230354D02*
X149793390Y-59277973D01*
X149793390Y-59277973D02*
X149745771Y-59325592D01*
X149745771Y-59325592D02*
X149698152Y-59420830D01*
X149698152Y-59420830D02*
X149698152Y-59516068D01*
X150364819Y-60277973D02*
X149364819Y-60277973D01*
X150317200Y-60277973D02*
X150364819Y-60182735D01*
X150364819Y-60182735D02*
X150364819Y-59992259D01*
X150364819Y-59992259D02*
X150317200Y-59897021D01*
X150317200Y-59897021D02*
X150269580Y-59849402D01*
X150269580Y-59849402D02*
X150174342Y-59801783D01*
X150174342Y-59801783D02*
X149888628Y-59801783D01*
X149888628Y-59801783D02*
X149793390Y-59849402D01*
X149793390Y-59849402D02*
X149745771Y-59897021D01*
X149745771Y-59897021D02*
X149698152Y-59992259D01*
X149698152Y-59992259D02*
X149698152Y-60182735D01*
X149698152Y-60182735D02*
X149745771Y-60277973D01*
X150317200Y-61897021D02*
X150364819Y-61801783D01*
X150364819Y-61801783D02*
X150364819Y-61611307D01*
X150364819Y-61611307D02*
X150317200Y-61516069D01*
X150317200Y-61516069D02*
X150221961Y-61468450D01*
X150221961Y-61468450D02*
X149841009Y-61468450D01*
X149841009Y-61468450D02*
X149745771Y-61516069D01*
X149745771Y-61516069D02*
X149698152Y-61611307D01*
X149698152Y-61611307D02*
X149698152Y-61801783D01*
X149698152Y-61801783D02*
X149745771Y-61897021D01*
X149745771Y-61897021D02*
X149841009Y-61944640D01*
X149841009Y-61944640D02*
X149936247Y-61944640D01*
X149936247Y-61944640D02*
X150031485Y-61468450D01*
X150364819Y-62801783D02*
X149364819Y-62801783D01*
X150317200Y-62801783D02*
X150364819Y-62706545D01*
X150364819Y-62706545D02*
X150364819Y-62516069D01*
X150364819Y-62516069D02*
X150317200Y-62420831D01*
X150317200Y-62420831D02*
X150269580Y-62373212D01*
X150269580Y-62373212D02*
X150174342Y-62325593D01*
X150174342Y-62325593D02*
X149888628Y-62325593D01*
X149888628Y-62325593D02*
X149793390Y-62373212D01*
X149793390Y-62373212D02*
X149745771Y-62420831D01*
X149745771Y-62420831D02*
X149698152Y-62516069D01*
X149698152Y-62516069D02*
X149698152Y-62706545D01*
X149698152Y-62706545D02*
X149745771Y-62801783D01*
X149698152Y-63706545D02*
X150507676Y-63706545D01*
X150507676Y-63706545D02*
X150602914Y-63658926D01*
X150602914Y-63658926D02*
X150650533Y-63611307D01*
X150650533Y-63611307D02*
X150698152Y-63516069D01*
X150698152Y-63516069D02*
X150698152Y-63373212D01*
X150698152Y-63373212D02*
X150650533Y-63277974D01*
X150317200Y-63706545D02*
X150364819Y-63611307D01*
X150364819Y-63611307D02*
X150364819Y-63420831D01*
X150364819Y-63420831D02*
X150317200Y-63325593D01*
X150317200Y-63325593D02*
X150269580Y-63277974D01*
X150269580Y-63277974D02*
X150174342Y-63230355D01*
X150174342Y-63230355D02*
X149888628Y-63230355D01*
X149888628Y-63230355D02*
X149793390Y-63277974D01*
X149793390Y-63277974D02*
X149745771Y-63325593D01*
X149745771Y-63325593D02*
X149698152Y-63420831D01*
X149698152Y-63420831D02*
X149698152Y-63611307D01*
X149698152Y-63611307D02*
X149745771Y-63706545D01*
X150317200Y-64563688D02*
X150364819Y-64468450D01*
X150364819Y-64468450D02*
X150364819Y-64277974D01*
X150364819Y-64277974D02*
X150317200Y-64182736D01*
X150317200Y-64182736D02*
X150221961Y-64135117D01*
X150221961Y-64135117D02*
X149841009Y-64135117D01*
X149841009Y-64135117D02*
X149745771Y-64182736D01*
X149745771Y-64182736D02*
X149698152Y-64277974D01*
X149698152Y-64277974D02*
X149698152Y-64468450D01*
X149698152Y-64468450D02*
X149745771Y-64563688D01*
X149745771Y-64563688D02*
X149841009Y-64611307D01*
X149841009Y-64611307D02*
X149936247Y-64611307D01*
X149936247Y-64611307D02*
X150031485Y-64135117D01*
X150317200Y-66230355D02*
X150364819Y-66135117D01*
X150364819Y-66135117D02*
X150364819Y-65944641D01*
X150364819Y-65944641D02*
X150317200Y-65849403D01*
X150317200Y-65849403D02*
X150269580Y-65801784D01*
X150269580Y-65801784D02*
X150174342Y-65754165D01*
X150174342Y-65754165D02*
X149888628Y-65754165D01*
X149888628Y-65754165D02*
X149793390Y-65801784D01*
X149793390Y-65801784D02*
X149745771Y-65849403D01*
X149745771Y-65849403D02*
X149698152Y-65944641D01*
X149698152Y-65944641D02*
X149698152Y-66135117D01*
X149698152Y-66135117D02*
X149745771Y-66230355D01*
X150364819Y-66801784D02*
X150317200Y-66706546D01*
X150317200Y-66706546D02*
X150269580Y-66658927D01*
X150269580Y-66658927D02*
X150174342Y-66611308D01*
X150174342Y-66611308D02*
X149888628Y-66611308D01*
X149888628Y-66611308D02*
X149793390Y-66658927D01*
X149793390Y-66658927D02*
X149745771Y-66706546D01*
X149745771Y-66706546D02*
X149698152Y-66801784D01*
X149698152Y-66801784D02*
X149698152Y-66944641D01*
X149698152Y-66944641D02*
X149745771Y-67039879D01*
X149745771Y-67039879D02*
X149793390Y-67087498D01*
X149793390Y-67087498D02*
X149888628Y-67135117D01*
X149888628Y-67135117D02*
X150174342Y-67135117D01*
X150174342Y-67135117D02*
X150269580Y-67087498D01*
X150269580Y-67087498D02*
X150317200Y-67039879D01*
X150317200Y-67039879D02*
X150364819Y-66944641D01*
X150364819Y-66944641D02*
X150364819Y-66801784D01*
X149698152Y-67563689D02*
X150364819Y-67563689D01*
X149793390Y-67563689D02*
X149745771Y-67611308D01*
X149745771Y-67611308D02*
X149698152Y-67706546D01*
X149698152Y-67706546D02*
X149698152Y-67849403D01*
X149698152Y-67849403D02*
X149745771Y-67944641D01*
X149745771Y-67944641D02*
X149841009Y-67992260D01*
X149841009Y-67992260D02*
X150364819Y-67992260D01*
X149698152Y-68468451D02*
X150364819Y-68468451D01*
X149793390Y-68468451D02*
X149745771Y-68516070D01*
X149745771Y-68516070D02*
X149698152Y-68611308D01*
X149698152Y-68611308D02*
X149698152Y-68754165D01*
X149698152Y-68754165D02*
X149745771Y-68849403D01*
X149745771Y-68849403D02*
X149841009Y-68897022D01*
X149841009Y-68897022D02*
X150364819Y-68897022D01*
X150317200Y-69754165D02*
X150364819Y-69658927D01*
X150364819Y-69658927D02*
X150364819Y-69468451D01*
X150364819Y-69468451D02*
X150317200Y-69373213D01*
X150317200Y-69373213D02*
X150221961Y-69325594D01*
X150221961Y-69325594D02*
X149841009Y-69325594D01*
X149841009Y-69325594D02*
X149745771Y-69373213D01*
X149745771Y-69373213D02*
X149698152Y-69468451D01*
X149698152Y-69468451D02*
X149698152Y-69658927D01*
X149698152Y-69658927D02*
X149745771Y-69754165D01*
X149745771Y-69754165D02*
X149841009Y-69801784D01*
X149841009Y-69801784D02*
X149936247Y-69801784D01*
X149936247Y-69801784D02*
X150031485Y-69325594D01*
X150317200Y-70658927D02*
X150364819Y-70563689D01*
X150364819Y-70563689D02*
X150364819Y-70373213D01*
X150364819Y-70373213D02*
X150317200Y-70277975D01*
X150317200Y-70277975D02*
X150269580Y-70230356D01*
X150269580Y-70230356D02*
X150174342Y-70182737D01*
X150174342Y-70182737D02*
X149888628Y-70182737D01*
X149888628Y-70182737D02*
X149793390Y-70230356D01*
X149793390Y-70230356D02*
X149745771Y-70277975D01*
X149745771Y-70277975D02*
X149698152Y-70373213D01*
X149698152Y-70373213D02*
X149698152Y-70563689D01*
X149698152Y-70563689D02*
X149745771Y-70658927D01*
X149698152Y-70944642D02*
X149698152Y-71325594D01*
X149364819Y-71087499D02*
X150221961Y-71087499D01*
X150221961Y-71087499D02*
X150317200Y-71135118D01*
X150317200Y-71135118D02*
X150364819Y-71230356D01*
X150364819Y-71230356D02*
X150364819Y-71325594D01*
X150364819Y-71801785D02*
X150317200Y-71706547D01*
X150317200Y-71706547D02*
X150269580Y-71658928D01*
X150269580Y-71658928D02*
X150174342Y-71611309D01*
X150174342Y-71611309D02*
X149888628Y-71611309D01*
X149888628Y-71611309D02*
X149793390Y-71658928D01*
X149793390Y-71658928D02*
X149745771Y-71706547D01*
X149745771Y-71706547D02*
X149698152Y-71801785D01*
X149698152Y-71801785D02*
X149698152Y-71944642D01*
X149698152Y-71944642D02*
X149745771Y-72039880D01*
X149745771Y-72039880D02*
X149793390Y-72087499D01*
X149793390Y-72087499D02*
X149888628Y-72135118D01*
X149888628Y-72135118D02*
X150174342Y-72135118D01*
X150174342Y-72135118D02*
X150269580Y-72087499D01*
X150269580Y-72087499D02*
X150317200Y-72039880D01*
X150317200Y-72039880D02*
X150364819Y-71944642D01*
X150364819Y-71944642D02*
X150364819Y-71801785D01*
X150364819Y-72563690D02*
X149698152Y-72563690D01*
X149888628Y-72563690D02*
X149793390Y-72611309D01*
X149793390Y-72611309D02*
X149745771Y-72658928D01*
X149745771Y-72658928D02*
X149698152Y-72754166D01*
X149698152Y-72754166D02*
X149698152Y-72849404D01*
X149698152Y-73944643D02*
X150698152Y-73944643D01*
X149745771Y-73944643D02*
X149698152Y-74039881D01*
X149698152Y-74039881D02*
X149698152Y-74230357D01*
X149698152Y-74230357D02*
X149745771Y-74325595D01*
X149745771Y-74325595D02*
X149793390Y-74373214D01*
X149793390Y-74373214D02*
X149888628Y-74420833D01*
X149888628Y-74420833D02*
X150174342Y-74420833D01*
X150174342Y-74420833D02*
X150269580Y-74373214D01*
X150269580Y-74373214D02*
X150317200Y-74325595D01*
X150317200Y-74325595D02*
X150364819Y-74230357D01*
X150364819Y-74230357D02*
X150364819Y-74039881D01*
X150364819Y-74039881D02*
X150317200Y-73944643D01*
X150364819Y-74849405D02*
X149698152Y-74849405D01*
X149364819Y-74849405D02*
X149412438Y-74801786D01*
X149412438Y-74801786D02*
X149460057Y-74849405D01*
X149460057Y-74849405D02*
X149412438Y-74897024D01*
X149412438Y-74897024D02*
X149364819Y-74849405D01*
X149364819Y-74849405D02*
X149460057Y-74849405D01*
X149698152Y-75325595D02*
X150364819Y-75325595D01*
X149793390Y-75325595D02*
X149745771Y-75373214D01*
X149745771Y-75373214D02*
X149698152Y-75468452D01*
X149698152Y-75468452D02*
X149698152Y-75611309D01*
X149698152Y-75611309D02*
X149745771Y-75706547D01*
X149745771Y-75706547D02*
X149841009Y-75754166D01*
X149841009Y-75754166D02*
X150364819Y-75754166D01*
X150317200Y-76182738D02*
X150364819Y-76277976D01*
X150364819Y-76277976D02*
X150364819Y-76468452D01*
X150364819Y-76468452D02*
X150317200Y-76563690D01*
X150317200Y-76563690D02*
X150221961Y-76611309D01*
X150221961Y-76611309D02*
X150174342Y-76611309D01*
X150174342Y-76611309D02*
X150079104Y-76563690D01*
X150079104Y-76563690D02*
X150031485Y-76468452D01*
X150031485Y-76468452D02*
X150031485Y-76325595D01*
X150031485Y-76325595D02*
X149983866Y-76230357D01*
X149983866Y-76230357D02*
X149888628Y-76182738D01*
X149888628Y-76182738D02*
X149841009Y-76182738D01*
X149841009Y-76182738D02*
X149745771Y-76230357D01*
X149745771Y-76230357D02*
X149698152Y-76325595D01*
X149698152Y-76325595D02*
X149698152Y-76468452D01*
X149698152Y-76468452D02*
X149745771Y-76563690D01*
X149698152Y-77658929D02*
X149698152Y-78039881D01*
X149364819Y-77801786D02*
X150221961Y-77801786D01*
X150221961Y-77801786D02*
X150317200Y-77849405D01*
X150317200Y-77849405D02*
X150364819Y-77944643D01*
X150364819Y-77944643D02*
X150364819Y-78039881D01*
X150364819Y-78516072D02*
X150317200Y-78420834D01*
X150317200Y-78420834D02*
X150269580Y-78373215D01*
X150269580Y-78373215D02*
X150174342Y-78325596D01*
X150174342Y-78325596D02*
X149888628Y-78325596D01*
X149888628Y-78325596D02*
X149793390Y-78373215D01*
X149793390Y-78373215D02*
X149745771Y-78420834D01*
X149745771Y-78420834D02*
X149698152Y-78516072D01*
X149698152Y-78516072D02*
X149698152Y-78658929D01*
X149698152Y-78658929D02*
X149745771Y-78754167D01*
X149745771Y-78754167D02*
X149793390Y-78801786D01*
X149793390Y-78801786D02*
X149888628Y-78849405D01*
X149888628Y-78849405D02*
X150174342Y-78849405D01*
X150174342Y-78849405D02*
X150269580Y-78801786D01*
X150269580Y-78801786D02*
X150317200Y-78754167D01*
X150317200Y-78754167D02*
X150364819Y-78658929D01*
X150364819Y-78658929D02*
X150364819Y-78516072D01*
X150317200Y-79992263D02*
X150364819Y-80087501D01*
X150364819Y-80087501D02*
X150364819Y-80277977D01*
X150364819Y-80277977D02*
X150317200Y-80373215D01*
X150317200Y-80373215D02*
X150221961Y-80420834D01*
X150221961Y-80420834D02*
X150174342Y-80420834D01*
X150174342Y-80420834D02*
X150079104Y-80373215D01*
X150079104Y-80373215D02*
X150031485Y-80277977D01*
X150031485Y-80277977D02*
X150031485Y-80135120D01*
X150031485Y-80135120D02*
X149983866Y-80039882D01*
X149983866Y-80039882D02*
X149888628Y-79992263D01*
X149888628Y-79992263D02*
X149841009Y-79992263D01*
X149841009Y-79992263D02*
X149745771Y-80039882D01*
X149745771Y-80039882D02*
X149698152Y-80135120D01*
X149698152Y-80135120D02*
X149698152Y-80277977D01*
X149698152Y-80277977D02*
X149745771Y-80373215D01*
X149698152Y-80706549D02*
X149698152Y-81087501D01*
X149364819Y-80849406D02*
X150221961Y-80849406D01*
X150221961Y-80849406D02*
X150317200Y-80897025D01*
X150317200Y-80897025D02*
X150364819Y-80992263D01*
X150364819Y-80992263D02*
X150364819Y-81087501D01*
X150364819Y-81849406D02*
X149841009Y-81849406D01*
X149841009Y-81849406D02*
X149745771Y-81801787D01*
X149745771Y-81801787D02*
X149698152Y-81706549D01*
X149698152Y-81706549D02*
X149698152Y-81516073D01*
X149698152Y-81516073D02*
X149745771Y-81420835D01*
X150317200Y-81849406D02*
X150364819Y-81754168D01*
X150364819Y-81754168D02*
X150364819Y-81516073D01*
X150364819Y-81516073D02*
X150317200Y-81420835D01*
X150317200Y-81420835D02*
X150221961Y-81373216D01*
X150221961Y-81373216D02*
X150126723Y-81373216D01*
X150126723Y-81373216D02*
X150031485Y-81420835D01*
X150031485Y-81420835D02*
X149983866Y-81516073D01*
X149983866Y-81516073D02*
X149983866Y-81754168D01*
X149983866Y-81754168D02*
X149936247Y-81849406D01*
X149698152Y-82325597D02*
X150364819Y-82325597D01*
X149793390Y-82325597D02*
X149745771Y-82373216D01*
X149745771Y-82373216D02*
X149698152Y-82468454D01*
X149698152Y-82468454D02*
X149698152Y-82611311D01*
X149698152Y-82611311D02*
X149745771Y-82706549D01*
X149745771Y-82706549D02*
X149841009Y-82754168D01*
X149841009Y-82754168D02*
X150364819Y-82754168D01*
X150364819Y-83658930D02*
X149364819Y-83658930D01*
X150317200Y-83658930D02*
X150364819Y-83563692D01*
X150364819Y-83563692D02*
X150364819Y-83373216D01*
X150364819Y-83373216D02*
X150317200Y-83277978D01*
X150317200Y-83277978D02*
X150269580Y-83230359D01*
X150269580Y-83230359D02*
X150174342Y-83182740D01*
X150174342Y-83182740D02*
X149888628Y-83182740D01*
X149888628Y-83182740D02*
X149793390Y-83230359D01*
X149793390Y-83230359D02*
X149745771Y-83277978D01*
X149745771Y-83277978D02*
X149698152Y-83373216D01*
X149698152Y-83373216D02*
X149698152Y-83563692D01*
X149698152Y-83563692D02*
X149745771Y-83658930D01*
X150364819Y-84563692D02*
X149841009Y-84563692D01*
X149841009Y-84563692D02*
X149745771Y-84516073D01*
X149745771Y-84516073D02*
X149698152Y-84420835D01*
X149698152Y-84420835D02*
X149698152Y-84230359D01*
X149698152Y-84230359D02*
X149745771Y-84135121D01*
X150317200Y-84563692D02*
X150364819Y-84468454D01*
X150364819Y-84468454D02*
X150364819Y-84230359D01*
X150364819Y-84230359D02*
X150317200Y-84135121D01*
X150317200Y-84135121D02*
X150221961Y-84087502D01*
X150221961Y-84087502D02*
X150126723Y-84087502D01*
X150126723Y-84087502D02*
X150031485Y-84135121D01*
X150031485Y-84135121D02*
X149983866Y-84230359D01*
X149983866Y-84230359D02*
X149983866Y-84468454D01*
X149983866Y-84468454D02*
X149936247Y-84563692D01*
X150364819Y-85039883D02*
X149698152Y-85039883D01*
X149888628Y-85039883D02*
X149793390Y-85087502D01*
X149793390Y-85087502D02*
X149745771Y-85135121D01*
X149745771Y-85135121D02*
X149698152Y-85230359D01*
X149698152Y-85230359D02*
X149698152Y-85325597D01*
X150364819Y-86087502D02*
X149364819Y-86087502D01*
X150317200Y-86087502D02*
X150364819Y-85992264D01*
X150364819Y-85992264D02*
X150364819Y-85801788D01*
X150364819Y-85801788D02*
X150317200Y-85706550D01*
X150317200Y-85706550D02*
X150269580Y-85658931D01*
X150269580Y-85658931D02*
X150174342Y-85611312D01*
X150174342Y-85611312D02*
X149888628Y-85611312D01*
X149888628Y-85611312D02*
X149793390Y-85658931D01*
X149793390Y-85658931D02*
X149745771Y-85706550D01*
X149745771Y-85706550D02*
X149698152Y-85801788D01*
X149698152Y-85801788D02*
X149698152Y-85992264D01*
X149698152Y-85992264D02*
X149745771Y-86087502D01*
X149364819Y-87801788D02*
X149364819Y-87325598D01*
X149364819Y-87325598D02*
X149841009Y-87277979D01*
X149841009Y-87277979D02*
X149793390Y-87325598D01*
X149793390Y-87325598D02*
X149745771Y-87420836D01*
X149745771Y-87420836D02*
X149745771Y-87658931D01*
X149745771Y-87658931D02*
X149793390Y-87754169D01*
X149793390Y-87754169D02*
X149841009Y-87801788D01*
X149841009Y-87801788D02*
X149936247Y-87849407D01*
X149936247Y-87849407D02*
X150174342Y-87849407D01*
X150174342Y-87849407D02*
X150269580Y-87801788D01*
X150269580Y-87801788D02*
X150317200Y-87754169D01*
X150317200Y-87754169D02*
X150364819Y-87658931D01*
X150364819Y-87658931D02*
X150364819Y-87420836D01*
X150364819Y-87420836D02*
X150317200Y-87325598D01*
X150317200Y-87325598D02*
X150269580Y-87277979D01*
X149364819Y-88468455D02*
X149364819Y-88563693D01*
X149364819Y-88563693D02*
X149412438Y-88658931D01*
X149412438Y-88658931D02*
X149460057Y-88706550D01*
X149460057Y-88706550D02*
X149555295Y-88754169D01*
X149555295Y-88754169D02*
X149745771Y-88801788D01*
X149745771Y-88801788D02*
X149983866Y-88801788D01*
X149983866Y-88801788D02*
X150174342Y-88754169D01*
X150174342Y-88754169D02*
X150269580Y-88706550D01*
X150269580Y-88706550D02*
X150317200Y-88658931D01*
X150317200Y-88658931D02*
X150364819Y-88563693D01*
X150364819Y-88563693D02*
X150364819Y-88468455D01*
X150364819Y-88468455D02*
X150317200Y-88373217D01*
X150317200Y-88373217D02*
X150269580Y-88325598D01*
X150269580Y-88325598D02*
X150174342Y-88277979D01*
X150174342Y-88277979D02*
X149983866Y-88230360D01*
X149983866Y-88230360D02*
X149745771Y-88230360D01*
X149745771Y-88230360D02*
X149555295Y-88277979D01*
X149555295Y-88277979D02*
X149460057Y-88325598D01*
X149460057Y-88325598D02*
X149412438Y-88373217D01*
X149412438Y-88373217D02*
X149364819Y-88468455D01*
X149698152Y-89992265D02*
X150698152Y-89992265D01*
X149745771Y-89992265D02*
X149698152Y-90087503D01*
X149698152Y-90087503D02*
X149698152Y-90277979D01*
X149698152Y-90277979D02*
X149745771Y-90373217D01*
X149745771Y-90373217D02*
X149793390Y-90420836D01*
X149793390Y-90420836D02*
X149888628Y-90468455D01*
X149888628Y-90468455D02*
X150174342Y-90468455D01*
X150174342Y-90468455D02*
X150269580Y-90420836D01*
X150269580Y-90420836D02*
X150317200Y-90373217D01*
X150317200Y-90373217D02*
X150364819Y-90277979D01*
X150364819Y-90277979D02*
X150364819Y-90087503D01*
X150364819Y-90087503D02*
X150317200Y-89992265D01*
X150364819Y-90897027D02*
X149698152Y-90897027D01*
X149364819Y-90897027D02*
X149412438Y-90849408D01*
X149412438Y-90849408D02*
X149460057Y-90897027D01*
X149460057Y-90897027D02*
X149412438Y-90944646D01*
X149412438Y-90944646D02*
X149364819Y-90897027D01*
X149364819Y-90897027D02*
X149460057Y-90897027D01*
X149698152Y-91373217D02*
X150364819Y-91373217D01*
X149793390Y-91373217D02*
X149745771Y-91420836D01*
X149745771Y-91420836D02*
X149698152Y-91516074D01*
X149698152Y-91516074D02*
X149698152Y-91658931D01*
X149698152Y-91658931D02*
X149745771Y-91754169D01*
X149745771Y-91754169D02*
X149841009Y-91801788D01*
X149841009Y-91801788D02*
X150364819Y-91801788D01*
X150364819Y-93039884D02*
X149698152Y-93039884D01*
X149888628Y-93039884D02*
X149793390Y-93087503D01*
X149793390Y-93087503D02*
X149745771Y-93135122D01*
X149745771Y-93135122D02*
X149698152Y-93230360D01*
X149698152Y-93230360D02*
X149698152Y-93325598D01*
X150364819Y-93658932D02*
X149698152Y-93658932D01*
X149364819Y-93658932D02*
X149412438Y-93611313D01*
X149412438Y-93611313D02*
X149460057Y-93658932D01*
X149460057Y-93658932D02*
X149412438Y-93706551D01*
X149412438Y-93706551D02*
X149364819Y-93658932D01*
X149364819Y-93658932D02*
X149460057Y-93658932D01*
X150364819Y-94135122D02*
X149364819Y-94135122D01*
X149745771Y-94135122D02*
X149698152Y-94230360D01*
X149698152Y-94230360D02*
X149698152Y-94420836D01*
X149698152Y-94420836D02*
X149745771Y-94516074D01*
X149745771Y-94516074D02*
X149793390Y-94563693D01*
X149793390Y-94563693D02*
X149888628Y-94611312D01*
X149888628Y-94611312D02*
X150174342Y-94611312D01*
X150174342Y-94611312D02*
X150269580Y-94563693D01*
X150269580Y-94563693D02*
X150317200Y-94516074D01*
X150317200Y-94516074D02*
X150364819Y-94420836D01*
X150364819Y-94420836D02*
X150364819Y-94230360D01*
X150364819Y-94230360D02*
X150317200Y-94135122D01*
X150364819Y-95039884D02*
X149364819Y-95039884D01*
X149745771Y-95039884D02*
X149698152Y-95135122D01*
X149698152Y-95135122D02*
X149698152Y-95325598D01*
X149698152Y-95325598D02*
X149745771Y-95420836D01*
X149745771Y-95420836D02*
X149793390Y-95468455D01*
X149793390Y-95468455D02*
X149888628Y-95516074D01*
X149888628Y-95516074D02*
X150174342Y-95516074D01*
X150174342Y-95516074D02*
X150269580Y-95468455D01*
X150269580Y-95468455D02*
X150317200Y-95420836D01*
X150317200Y-95420836D02*
X150364819Y-95325598D01*
X150364819Y-95325598D02*
X150364819Y-95135122D01*
X150364819Y-95135122D02*
X150317200Y-95039884D01*
X150364819Y-96087503D02*
X150317200Y-95992265D01*
X150317200Y-95992265D02*
X150269580Y-95944646D01*
X150269580Y-95944646D02*
X150174342Y-95897027D01*
X150174342Y-95897027D02*
X149888628Y-95897027D01*
X149888628Y-95897027D02*
X149793390Y-95944646D01*
X149793390Y-95944646D02*
X149745771Y-95992265D01*
X149745771Y-95992265D02*
X149698152Y-96087503D01*
X149698152Y-96087503D02*
X149698152Y-96230360D01*
X149698152Y-96230360D02*
X149745771Y-96325598D01*
X149745771Y-96325598D02*
X149793390Y-96373217D01*
X149793390Y-96373217D02*
X149888628Y-96420836D01*
X149888628Y-96420836D02*
X150174342Y-96420836D01*
X150174342Y-96420836D02*
X150269580Y-96373217D01*
X150269580Y-96373217D02*
X150317200Y-96325598D01*
X150317200Y-96325598D02*
X150364819Y-96230360D01*
X150364819Y-96230360D02*
X150364819Y-96087503D01*
X149698152Y-96849408D02*
X150364819Y-96849408D01*
X149793390Y-96849408D02*
X149745771Y-96897027D01*
X149745771Y-96897027D02*
X149698152Y-96992265D01*
X149698152Y-96992265D02*
X149698152Y-97135122D01*
X149698152Y-97135122D02*
X149745771Y-97230360D01*
X149745771Y-97230360D02*
X149841009Y-97277979D01*
X149841009Y-97277979D02*
X150364819Y-97277979D01*
D11*
%TO.C,J3*%
X146110000Y-100390000D02*
X140910000Y-100390000D01*
X146110000Y-39370000D02*
X146110000Y-100390000D01*
X146110000Y-39370000D02*
X143510000Y-39370000D01*
X146110000Y-38100000D02*
X146110000Y-36770000D01*
X146110000Y-36770000D02*
X144780000Y-36770000D01*
X143510000Y-39370000D02*
X143510000Y-36770000D01*
X143510000Y-36770000D02*
X140910000Y-36770000D01*
X140910000Y-36770000D02*
X140910000Y-100390000D01*
%TD*%
%LPC*%
D12*
%TO.C,J2*%
X152400000Y-38100000D03*
D13*
X152400000Y-40640000D03*
X152400000Y-43180000D03*
X152400000Y-45720000D03*
X152400000Y-48260000D03*
X152400000Y-50800000D03*
X152400000Y-53340000D03*
X152400000Y-55880000D03*
X152400000Y-58420000D03*
X152400000Y-60960000D03*
X152400000Y-63500000D03*
X152400000Y-66040000D03*
X152400000Y-68580000D03*
X152400000Y-71120000D03*
X152400000Y-73660000D03*
X152400000Y-76200000D03*
X152400000Y-78740000D03*
X152400000Y-81280000D03*
X152400000Y-83820000D03*
X152400000Y-86360000D03*
X152400000Y-88900000D03*
X152400000Y-91440000D03*
X152400000Y-93980000D03*
X152400000Y-96520000D03*
X152400000Y-99060000D03*
%TD*%
D12*
%TO.C,J1*%
X147320000Y-38100000D03*
D13*
X147320000Y-40640000D03*
X147320000Y-43180000D03*
X147320000Y-45720000D03*
X147320000Y-48260000D03*
X147320000Y-50800000D03*
X147320000Y-53340000D03*
X147320000Y-55880000D03*
X147320000Y-58420000D03*
X147320000Y-60960000D03*
X147320000Y-63500000D03*
X147320000Y-66040000D03*
X147320000Y-68580000D03*
X147320000Y-71120000D03*
X147320000Y-73660000D03*
X147320000Y-76200000D03*
X147320000Y-78740000D03*
X147320000Y-81280000D03*
X147320000Y-83820000D03*
X147320000Y-86360000D03*
X147320000Y-88900000D03*
X147320000Y-91440000D03*
X147320000Y-93980000D03*
X147320000Y-96520000D03*
X147320000Y-99060000D03*
%TD*%
D12*
%TO.C,J3*%
X144780000Y-38100000D03*
D13*
X142240000Y-38100000D03*
X144780000Y-40640000D03*
X142240000Y-40640000D03*
X144780000Y-43180000D03*
X142240000Y-43180000D03*
X144780000Y-45720000D03*
X142240000Y-45720000D03*
X144780000Y-48260000D03*
X142240000Y-48260000D03*
X144780000Y-50800000D03*
X142240000Y-50800000D03*
X144780000Y-53340000D03*
X142240000Y-53340000D03*
X144780000Y-55880000D03*
X142240000Y-55880000D03*
X144780000Y-58420000D03*
X142240000Y-58420000D03*
X144780000Y-60960000D03*
X142240000Y-60960000D03*
X144780000Y-63500000D03*
X142240000Y-63500000D03*
X144780000Y-66040000D03*
X142240000Y-66040000D03*
X144780000Y-68580000D03*
X142240000Y-68580000D03*
X144780000Y-71120000D03*
X142240000Y-71120000D03*
X144780000Y-73660000D03*
X142240000Y-73660000D03*
X144780000Y-76200000D03*
X142240000Y-76200000D03*
X144780000Y-78740000D03*
X142240000Y-78740000D03*
X144780000Y-81280000D03*
X142240000Y-81280000D03*
X144780000Y-83820000D03*
X142240000Y-83820000D03*
X144780000Y-86360000D03*
X142240000Y-86360000D03*
X144780000Y-88900000D03*
X142240000Y-88900000D03*
X144780000Y-91440000D03*
X142240000Y-91440000D03*
X144780000Y-93980000D03*
X142240000Y-93980000D03*
X144780000Y-96520000D03*
X142240000Y-96520000D03*
X144780000Y-99060000D03*
X142240000Y-99060000D03*
%TD*%
%LPD*%
M02*
