%TF.GenerationSoftware,KiCad,Pcbnew,8.0.4*%
%TF.CreationDate,2024-08-17T03:05:55-04:00*%
%TF.ProjectId,50 pin ribbon adapter,35302070-696e-4207-9269-62626f6e2061,rev?*%
%TF.SameCoordinates,Original*%
%TF.FileFunction,Legend,Top*%
%TF.FilePolarity,Positive*%
%FSLAX46Y46*%
G04 Gerber Fmt 4.6, Leading zero omitted, Abs format (unit mm)*
G04 Created by KiCad (PCBNEW 8.0.4) date 2024-08-17 03:05:55*
%MOMM*%
%LPD*%
G01*
G04 APERTURE LIST*
%ADD10C,0.150000*%
%ADD11C,0.000000*%
%ADD12C,0.120000*%
%ADD13R,1.700000X1.700000*%
%ADD14O,1.700000X1.700000*%
G04 APERTURE END LIST*
D10*
X149714009Y-43398887D02*
X149714009Y-43732220D01*
X150237819Y-43732220D02*
X149237819Y-43732220D01*
X149237819Y-43732220D02*
X149237819Y-43256030D01*
X150237819Y-42875077D02*
X149571152Y-42875077D01*
X149237819Y-42875077D02*
X149285438Y-42922696D01*
X149285438Y-42922696D02*
X149333057Y-42875077D01*
X149333057Y-42875077D02*
X149285438Y-42827458D01*
X149285438Y-42827458D02*
X149237819Y-42875077D01*
X149237819Y-42875077D02*
X149333057Y-42875077D01*
X150237819Y-42494125D02*
X149571152Y-41970316D01*
X149571152Y-42494125D02*
X150237819Y-41970316D01*
X150190200Y-41208411D02*
X150237819Y-41303649D01*
X150237819Y-41303649D02*
X150237819Y-41494125D01*
X150237819Y-41494125D02*
X150190200Y-41589363D01*
X150190200Y-41589363D02*
X150094961Y-41636982D01*
X150094961Y-41636982D02*
X149714009Y-41636982D01*
X149714009Y-41636982D02*
X149618771Y-41589363D01*
X149618771Y-41589363D02*
X149571152Y-41494125D01*
X149571152Y-41494125D02*
X149571152Y-41303649D01*
X149571152Y-41303649D02*
X149618771Y-41208411D01*
X149618771Y-41208411D02*
X149714009Y-41160792D01*
X149714009Y-41160792D02*
X149809247Y-41160792D01*
X149809247Y-41160792D02*
X149904485Y-41636982D01*
X150237819Y-40303649D02*
X149237819Y-40303649D01*
X150190200Y-40303649D02*
X150237819Y-40398887D01*
X150237819Y-40398887D02*
X150237819Y-40589363D01*
X150237819Y-40589363D02*
X150190200Y-40684601D01*
X150190200Y-40684601D02*
X150142580Y-40732220D01*
X150142580Y-40732220D02*
X150047342Y-40779839D01*
X150047342Y-40779839D02*
X149761628Y-40779839D01*
X149761628Y-40779839D02*
X149666390Y-40732220D01*
X149666390Y-40732220D02*
X149618771Y-40684601D01*
X149618771Y-40684601D02*
X149571152Y-40589363D01*
X149571152Y-40589363D02*
X149571152Y-40398887D01*
X149571152Y-40398887D02*
X149618771Y-40303649D01*
X150142580Y-39065553D02*
X150190200Y-39017934D01*
X150190200Y-39017934D02*
X150237819Y-39065553D01*
X150237819Y-39065553D02*
X150190200Y-39113172D01*
X150190200Y-39113172D02*
X150142580Y-39065553D01*
X150142580Y-39065553D02*
X150237819Y-39065553D01*
X149856866Y-39065553D02*
X149285438Y-39113172D01*
X149285438Y-39113172D02*
X149237819Y-39065553D01*
X149237819Y-39065553D02*
X149285438Y-39017934D01*
X149285438Y-39017934D02*
X149856866Y-39065553D01*
X149856866Y-39065553D02*
X149237819Y-39065553D01*
X150269580Y-99421792D02*
X150317200Y-99469411D01*
X150317200Y-99469411D02*
X150364819Y-99612268D01*
X150364819Y-99612268D02*
X150364819Y-99707506D01*
X150364819Y-99707506D02*
X150317200Y-99850363D01*
X150317200Y-99850363D02*
X150221961Y-99945601D01*
X150221961Y-99945601D02*
X150126723Y-99993220D01*
X150126723Y-99993220D02*
X149936247Y-100040839D01*
X149936247Y-100040839D02*
X149793390Y-100040839D01*
X149793390Y-100040839D02*
X149602914Y-99993220D01*
X149602914Y-99993220D02*
X149507676Y-99945601D01*
X149507676Y-99945601D02*
X149412438Y-99850363D01*
X149412438Y-99850363D02*
X149364819Y-99707506D01*
X149364819Y-99707506D02*
X149364819Y-99612268D01*
X149364819Y-99612268D02*
X149412438Y-99469411D01*
X149412438Y-99469411D02*
X149460057Y-99421792D01*
X149698152Y-99088458D02*
X150364819Y-98850363D01*
X149698152Y-98612268D02*
X150364819Y-98850363D01*
X150364819Y-98850363D02*
X150602914Y-98945601D01*
X150602914Y-98945601D02*
X150650533Y-98993220D01*
X150650533Y-98993220D02*
X150698152Y-99088458D01*
X150364819Y-98231315D02*
X149364819Y-98231315D01*
X149745771Y-98231315D02*
X149698152Y-98136077D01*
X149698152Y-98136077D02*
X149698152Y-97945601D01*
X149698152Y-97945601D02*
X149745771Y-97850363D01*
X149745771Y-97850363D02*
X149793390Y-97802744D01*
X149793390Y-97802744D02*
X149888628Y-97755125D01*
X149888628Y-97755125D02*
X150174342Y-97755125D01*
X150174342Y-97755125D02*
X150269580Y-97802744D01*
X150269580Y-97802744D02*
X150317200Y-97850363D01*
X150317200Y-97850363D02*
X150364819Y-97945601D01*
X150364819Y-97945601D02*
X150364819Y-98136077D01*
X150364819Y-98136077D02*
X150317200Y-98231315D01*
X150317200Y-96945601D02*
X150364819Y-97040839D01*
X150364819Y-97040839D02*
X150364819Y-97231315D01*
X150364819Y-97231315D02*
X150317200Y-97326553D01*
X150317200Y-97326553D02*
X150221961Y-97374172D01*
X150221961Y-97374172D02*
X149841009Y-97374172D01*
X149841009Y-97374172D02*
X149745771Y-97326553D01*
X149745771Y-97326553D02*
X149698152Y-97231315D01*
X149698152Y-97231315D02*
X149698152Y-97040839D01*
X149698152Y-97040839D02*
X149745771Y-96945601D01*
X149745771Y-96945601D02*
X149841009Y-96897982D01*
X149841009Y-96897982D02*
X149936247Y-96897982D01*
X149936247Y-96897982D02*
X150031485Y-97374172D01*
X150364819Y-96469410D02*
X149698152Y-96469410D01*
X149888628Y-96469410D02*
X149793390Y-96421791D01*
X149793390Y-96421791D02*
X149745771Y-96374172D01*
X149745771Y-96374172D02*
X149698152Y-96278934D01*
X149698152Y-96278934D02*
X149698152Y-96183696D01*
X150364819Y-95421791D02*
X149841009Y-95421791D01*
X149841009Y-95421791D02*
X149745771Y-95469410D01*
X149745771Y-95469410D02*
X149698152Y-95564648D01*
X149698152Y-95564648D02*
X149698152Y-95755124D01*
X149698152Y-95755124D02*
X149745771Y-95850362D01*
X150317200Y-95421791D02*
X150364819Y-95517029D01*
X150364819Y-95517029D02*
X150364819Y-95755124D01*
X150364819Y-95755124D02*
X150317200Y-95850362D01*
X150317200Y-95850362D02*
X150221961Y-95897981D01*
X150221961Y-95897981D02*
X150126723Y-95897981D01*
X150126723Y-95897981D02*
X150031485Y-95850362D01*
X150031485Y-95850362D02*
X149983866Y-95755124D01*
X149983866Y-95755124D02*
X149983866Y-95517029D01*
X149983866Y-95517029D02*
X149936247Y-95421791D01*
X150364819Y-94945600D02*
X149698152Y-94945600D01*
X149793390Y-94945600D02*
X149745771Y-94897981D01*
X149745771Y-94897981D02*
X149698152Y-94802743D01*
X149698152Y-94802743D02*
X149698152Y-94659886D01*
X149698152Y-94659886D02*
X149745771Y-94564648D01*
X149745771Y-94564648D02*
X149841009Y-94517029D01*
X149841009Y-94517029D02*
X150364819Y-94517029D01*
X149841009Y-94517029D02*
X149745771Y-94469410D01*
X149745771Y-94469410D02*
X149698152Y-94374172D01*
X149698152Y-94374172D02*
X149698152Y-94231315D01*
X149698152Y-94231315D02*
X149745771Y-94136076D01*
X149745771Y-94136076D02*
X149841009Y-94088457D01*
X149841009Y-94088457D02*
X150364819Y-94088457D01*
X150364819Y-93612267D02*
X149698152Y-93612267D01*
X149364819Y-93612267D02*
X149412438Y-93659886D01*
X149412438Y-93659886D02*
X149460057Y-93612267D01*
X149460057Y-93612267D02*
X149412438Y-93564648D01*
X149412438Y-93564648D02*
X149364819Y-93612267D01*
X149364819Y-93612267D02*
X149460057Y-93612267D01*
X150317200Y-92707506D02*
X150364819Y-92802744D01*
X150364819Y-92802744D02*
X150364819Y-92993220D01*
X150364819Y-92993220D02*
X150317200Y-93088458D01*
X150317200Y-93088458D02*
X150269580Y-93136077D01*
X150269580Y-93136077D02*
X150174342Y-93183696D01*
X150174342Y-93183696D02*
X149888628Y-93183696D01*
X149888628Y-93183696D02*
X149793390Y-93136077D01*
X149793390Y-93136077D02*
X149745771Y-93088458D01*
X149745771Y-93088458D02*
X149698152Y-92993220D01*
X149698152Y-92993220D02*
X149698152Y-92802744D01*
X149698152Y-92802744D02*
X149745771Y-92707506D01*
X150317200Y-91088458D02*
X150364819Y-91183696D01*
X150364819Y-91183696D02*
X150364819Y-91374172D01*
X150364819Y-91374172D02*
X150317200Y-91469410D01*
X150317200Y-91469410D02*
X150269580Y-91517029D01*
X150269580Y-91517029D02*
X150174342Y-91564648D01*
X150174342Y-91564648D02*
X149888628Y-91564648D01*
X149888628Y-91564648D02*
X149793390Y-91517029D01*
X149793390Y-91517029D02*
X149745771Y-91469410D01*
X149745771Y-91469410D02*
X149698152Y-91374172D01*
X149698152Y-91374172D02*
X149698152Y-91183696D01*
X149698152Y-91183696D02*
X149745771Y-91088458D01*
X150364819Y-90517029D02*
X150317200Y-90612267D01*
X150317200Y-90612267D02*
X150269580Y-90659886D01*
X150269580Y-90659886D02*
X150174342Y-90707505D01*
X150174342Y-90707505D02*
X149888628Y-90707505D01*
X149888628Y-90707505D02*
X149793390Y-90659886D01*
X149793390Y-90659886D02*
X149745771Y-90612267D01*
X149745771Y-90612267D02*
X149698152Y-90517029D01*
X149698152Y-90517029D02*
X149698152Y-90374172D01*
X149698152Y-90374172D02*
X149745771Y-90278934D01*
X149745771Y-90278934D02*
X149793390Y-90231315D01*
X149793390Y-90231315D02*
X149888628Y-90183696D01*
X149888628Y-90183696D02*
X150174342Y-90183696D01*
X150174342Y-90183696D02*
X150269580Y-90231315D01*
X150269580Y-90231315D02*
X150317200Y-90278934D01*
X150317200Y-90278934D02*
X150364819Y-90374172D01*
X150364819Y-90374172D02*
X150364819Y-90517029D01*
X149698152Y-89755124D02*
X150364819Y-89755124D01*
X149793390Y-89755124D02*
X149745771Y-89707505D01*
X149745771Y-89707505D02*
X149698152Y-89612267D01*
X149698152Y-89612267D02*
X149698152Y-89469410D01*
X149698152Y-89469410D02*
X149745771Y-89374172D01*
X149745771Y-89374172D02*
X149841009Y-89326553D01*
X149841009Y-89326553D02*
X150364819Y-89326553D01*
X149698152Y-88993219D02*
X149698152Y-88612267D01*
X149364819Y-88850362D02*
X150221961Y-88850362D01*
X150221961Y-88850362D02*
X150317200Y-88802743D01*
X150317200Y-88802743D02*
X150364819Y-88707505D01*
X150364819Y-88707505D02*
X150364819Y-88612267D01*
X150364819Y-88278933D02*
X149698152Y-88278933D01*
X149888628Y-88278933D02*
X149793390Y-88231314D01*
X149793390Y-88231314D02*
X149745771Y-88183695D01*
X149745771Y-88183695D02*
X149698152Y-88088457D01*
X149698152Y-88088457D02*
X149698152Y-87993219D01*
X150364819Y-87517028D02*
X150317200Y-87612266D01*
X150317200Y-87612266D02*
X150269580Y-87659885D01*
X150269580Y-87659885D02*
X150174342Y-87707504D01*
X150174342Y-87707504D02*
X149888628Y-87707504D01*
X149888628Y-87707504D02*
X149793390Y-87659885D01*
X149793390Y-87659885D02*
X149745771Y-87612266D01*
X149745771Y-87612266D02*
X149698152Y-87517028D01*
X149698152Y-87517028D02*
X149698152Y-87374171D01*
X149698152Y-87374171D02*
X149745771Y-87278933D01*
X149745771Y-87278933D02*
X149793390Y-87231314D01*
X149793390Y-87231314D02*
X149888628Y-87183695D01*
X149888628Y-87183695D02*
X150174342Y-87183695D01*
X150174342Y-87183695D02*
X150269580Y-87231314D01*
X150269580Y-87231314D02*
X150317200Y-87278933D01*
X150317200Y-87278933D02*
X150364819Y-87374171D01*
X150364819Y-87374171D02*
X150364819Y-87517028D01*
X150364819Y-86612266D02*
X150317200Y-86707504D01*
X150317200Y-86707504D02*
X150221961Y-86755123D01*
X150221961Y-86755123D02*
X149364819Y-86755123D01*
X150317200Y-85517027D02*
X150364819Y-85421789D01*
X150364819Y-85421789D02*
X150364819Y-85231313D01*
X150364819Y-85231313D02*
X150317200Y-85136075D01*
X150317200Y-85136075D02*
X150221961Y-85088456D01*
X150221961Y-85088456D02*
X150174342Y-85088456D01*
X150174342Y-85088456D02*
X150079104Y-85136075D01*
X150079104Y-85136075D02*
X150031485Y-85231313D01*
X150031485Y-85231313D02*
X150031485Y-85374170D01*
X150031485Y-85374170D02*
X149983866Y-85469408D01*
X149983866Y-85469408D02*
X149888628Y-85517027D01*
X149888628Y-85517027D02*
X149841009Y-85517027D01*
X149841009Y-85517027D02*
X149745771Y-85469408D01*
X149745771Y-85469408D02*
X149698152Y-85374170D01*
X149698152Y-85374170D02*
X149698152Y-85231313D01*
X149698152Y-85231313D02*
X149745771Y-85136075D01*
X149698152Y-84755122D02*
X150364819Y-84517027D01*
X149698152Y-84278932D02*
X150364819Y-84517027D01*
X150364819Y-84517027D02*
X150602914Y-84612265D01*
X150602914Y-84612265D02*
X150650533Y-84659884D01*
X150650533Y-84659884D02*
X150698152Y-84755122D01*
X150317200Y-83945598D02*
X150364819Y-83850360D01*
X150364819Y-83850360D02*
X150364819Y-83659884D01*
X150364819Y-83659884D02*
X150317200Y-83564646D01*
X150317200Y-83564646D02*
X150221961Y-83517027D01*
X150221961Y-83517027D02*
X150174342Y-83517027D01*
X150174342Y-83517027D02*
X150079104Y-83564646D01*
X150079104Y-83564646D02*
X150031485Y-83659884D01*
X150031485Y-83659884D02*
X150031485Y-83802741D01*
X150031485Y-83802741D02*
X149983866Y-83897979D01*
X149983866Y-83897979D02*
X149888628Y-83945598D01*
X149888628Y-83945598D02*
X149841009Y-83945598D01*
X149841009Y-83945598D02*
X149745771Y-83897979D01*
X149745771Y-83897979D02*
X149698152Y-83802741D01*
X149698152Y-83802741D02*
X149698152Y-83659884D01*
X149698152Y-83659884D02*
X149745771Y-83564646D01*
X149698152Y-83231312D02*
X149698152Y-82850360D01*
X149364819Y-83088455D02*
X150221961Y-83088455D01*
X150221961Y-83088455D02*
X150317200Y-83040836D01*
X150317200Y-83040836D02*
X150364819Y-82945598D01*
X150364819Y-82945598D02*
X150364819Y-82850360D01*
X150317200Y-82136074D02*
X150364819Y-82231312D01*
X150364819Y-82231312D02*
X150364819Y-82421788D01*
X150364819Y-82421788D02*
X150317200Y-82517026D01*
X150317200Y-82517026D02*
X150221961Y-82564645D01*
X150221961Y-82564645D02*
X149841009Y-82564645D01*
X149841009Y-82564645D02*
X149745771Y-82517026D01*
X149745771Y-82517026D02*
X149698152Y-82421788D01*
X149698152Y-82421788D02*
X149698152Y-82231312D01*
X149698152Y-82231312D02*
X149745771Y-82136074D01*
X149745771Y-82136074D02*
X149841009Y-82088455D01*
X149841009Y-82088455D02*
X149936247Y-82088455D01*
X149936247Y-82088455D02*
X150031485Y-82564645D01*
X150364819Y-81659883D02*
X149698152Y-81659883D01*
X149793390Y-81659883D02*
X149745771Y-81612264D01*
X149745771Y-81612264D02*
X149698152Y-81517026D01*
X149698152Y-81517026D02*
X149698152Y-81374169D01*
X149698152Y-81374169D02*
X149745771Y-81278931D01*
X149745771Y-81278931D02*
X149841009Y-81231312D01*
X149841009Y-81231312D02*
X150364819Y-81231312D01*
X149841009Y-81231312D02*
X149745771Y-81183693D01*
X149745771Y-81183693D02*
X149698152Y-81088455D01*
X149698152Y-81088455D02*
X149698152Y-80945598D01*
X149698152Y-80945598D02*
X149745771Y-80850359D01*
X149745771Y-80850359D02*
X149841009Y-80802740D01*
X149841009Y-80802740D02*
X150364819Y-80802740D01*
X150364819Y-79136074D02*
X149841009Y-79136074D01*
X149841009Y-79136074D02*
X149745771Y-79183693D01*
X149745771Y-79183693D02*
X149698152Y-79278931D01*
X149698152Y-79278931D02*
X149698152Y-79469407D01*
X149698152Y-79469407D02*
X149745771Y-79564645D01*
X150317200Y-79136074D02*
X150364819Y-79231312D01*
X150364819Y-79231312D02*
X150364819Y-79469407D01*
X150364819Y-79469407D02*
X150317200Y-79564645D01*
X150317200Y-79564645D02*
X150221961Y-79612264D01*
X150221961Y-79612264D02*
X150126723Y-79612264D01*
X150126723Y-79612264D02*
X150031485Y-79564645D01*
X150031485Y-79564645D02*
X149983866Y-79469407D01*
X149983866Y-79469407D02*
X149983866Y-79231312D01*
X149983866Y-79231312D02*
X149936247Y-79136074D01*
X150364819Y-78231312D02*
X149364819Y-78231312D01*
X150317200Y-78231312D02*
X150364819Y-78326550D01*
X150364819Y-78326550D02*
X150364819Y-78517026D01*
X150364819Y-78517026D02*
X150317200Y-78612264D01*
X150317200Y-78612264D02*
X150269580Y-78659883D01*
X150269580Y-78659883D02*
X150174342Y-78707502D01*
X150174342Y-78707502D02*
X149888628Y-78707502D01*
X149888628Y-78707502D02*
X149793390Y-78659883D01*
X149793390Y-78659883D02*
X149745771Y-78612264D01*
X149745771Y-78612264D02*
X149698152Y-78517026D01*
X149698152Y-78517026D02*
X149698152Y-78326550D01*
X149698152Y-78326550D02*
X149745771Y-78231312D01*
X150364819Y-77326550D02*
X149841009Y-77326550D01*
X149841009Y-77326550D02*
X149745771Y-77374169D01*
X149745771Y-77374169D02*
X149698152Y-77469407D01*
X149698152Y-77469407D02*
X149698152Y-77659883D01*
X149698152Y-77659883D02*
X149745771Y-77755121D01*
X150317200Y-77326550D02*
X150364819Y-77421788D01*
X150364819Y-77421788D02*
X150364819Y-77659883D01*
X150364819Y-77659883D02*
X150317200Y-77755121D01*
X150317200Y-77755121D02*
X150221961Y-77802740D01*
X150221961Y-77802740D02*
X150126723Y-77802740D01*
X150126723Y-77802740D02*
X150031485Y-77755121D01*
X150031485Y-77755121D02*
X149983866Y-77659883D01*
X149983866Y-77659883D02*
X149983866Y-77421788D01*
X149983866Y-77421788D02*
X149936247Y-77326550D01*
X149698152Y-76850359D02*
X150698152Y-76850359D01*
X149745771Y-76850359D02*
X149698152Y-76755121D01*
X149698152Y-76755121D02*
X149698152Y-76564645D01*
X149698152Y-76564645D02*
X149745771Y-76469407D01*
X149745771Y-76469407D02*
X149793390Y-76421788D01*
X149793390Y-76421788D02*
X149888628Y-76374169D01*
X149888628Y-76374169D02*
X150174342Y-76374169D01*
X150174342Y-76374169D02*
X150269580Y-76421788D01*
X150269580Y-76421788D02*
X150317200Y-76469407D01*
X150317200Y-76469407D02*
X150364819Y-76564645D01*
X150364819Y-76564645D02*
X150364819Y-76755121D01*
X150364819Y-76755121D02*
X150317200Y-76850359D01*
X149698152Y-76088454D02*
X149698152Y-75707502D01*
X149364819Y-75945597D02*
X150221961Y-75945597D01*
X150221961Y-75945597D02*
X150317200Y-75897978D01*
X150317200Y-75897978D02*
X150364819Y-75802740D01*
X150364819Y-75802740D02*
X150364819Y-75707502D01*
X150317200Y-74993216D02*
X150364819Y-75088454D01*
X150364819Y-75088454D02*
X150364819Y-75278930D01*
X150364819Y-75278930D02*
X150317200Y-75374168D01*
X150317200Y-75374168D02*
X150221961Y-75421787D01*
X150221961Y-75421787D02*
X149841009Y-75421787D01*
X149841009Y-75421787D02*
X149745771Y-75374168D01*
X149745771Y-75374168D02*
X149698152Y-75278930D01*
X149698152Y-75278930D02*
X149698152Y-75088454D01*
X149698152Y-75088454D02*
X149745771Y-74993216D01*
X149745771Y-74993216D02*
X149841009Y-74945597D01*
X149841009Y-74945597D02*
X149936247Y-74945597D01*
X149936247Y-74945597D02*
X150031485Y-75421787D01*
X150364819Y-74517025D02*
X149698152Y-74517025D01*
X149888628Y-74517025D02*
X149793390Y-74469406D01*
X149793390Y-74469406D02*
X149745771Y-74421787D01*
X149745771Y-74421787D02*
X149698152Y-74326549D01*
X149698152Y-74326549D02*
X149698152Y-74231311D01*
X150364819Y-72707501D02*
X149841009Y-72707501D01*
X149841009Y-72707501D02*
X149745771Y-72755120D01*
X149745771Y-72755120D02*
X149698152Y-72850358D01*
X149698152Y-72850358D02*
X149698152Y-73040834D01*
X149698152Y-73040834D02*
X149745771Y-73136072D01*
X150317200Y-72707501D02*
X150364819Y-72802739D01*
X150364819Y-72802739D02*
X150364819Y-73040834D01*
X150364819Y-73040834D02*
X150317200Y-73136072D01*
X150317200Y-73136072D02*
X150221961Y-73183691D01*
X150221961Y-73183691D02*
X150126723Y-73183691D01*
X150126723Y-73183691D02*
X150031485Y-73136072D01*
X150031485Y-73136072D02*
X149983866Y-73040834D01*
X149983866Y-73040834D02*
X149983866Y-72802739D01*
X149983866Y-72802739D02*
X149936247Y-72707501D01*
X150364819Y-72231310D02*
X149364819Y-72231310D01*
X149745771Y-72231310D02*
X149698152Y-72136072D01*
X149698152Y-72136072D02*
X149698152Y-71945596D01*
X149698152Y-71945596D02*
X149745771Y-71850358D01*
X149745771Y-71850358D02*
X149793390Y-71802739D01*
X149793390Y-71802739D02*
X149888628Y-71755120D01*
X149888628Y-71755120D02*
X150174342Y-71755120D01*
X150174342Y-71755120D02*
X150269580Y-71802739D01*
X150269580Y-71802739D02*
X150317200Y-71850358D01*
X150317200Y-71850358D02*
X150364819Y-71945596D01*
X150364819Y-71945596D02*
X150364819Y-72136072D01*
X150364819Y-72136072D02*
X150317200Y-72231310D01*
X149698152Y-71421786D02*
X149698152Y-70897977D01*
X149698152Y-70897977D02*
X150364819Y-71421786D01*
X150364819Y-71421786D02*
X150364819Y-70897977D01*
X150364819Y-70517024D02*
X149698152Y-70517024D01*
X149793390Y-70517024D02*
X149745771Y-70469405D01*
X149745771Y-70469405D02*
X149698152Y-70374167D01*
X149698152Y-70374167D02*
X149698152Y-70231310D01*
X149698152Y-70231310D02*
X149745771Y-70136072D01*
X149745771Y-70136072D02*
X149841009Y-70088453D01*
X149841009Y-70088453D02*
X150364819Y-70088453D01*
X149841009Y-70088453D02*
X149745771Y-70040834D01*
X149745771Y-70040834D02*
X149698152Y-69945596D01*
X149698152Y-69945596D02*
X149698152Y-69802739D01*
X149698152Y-69802739D02*
X149745771Y-69707500D01*
X149745771Y-69707500D02*
X149841009Y-69659881D01*
X149841009Y-69659881D02*
X150364819Y-69659881D01*
X150364819Y-68755120D02*
X149841009Y-68755120D01*
X149841009Y-68755120D02*
X149745771Y-68802739D01*
X149745771Y-68802739D02*
X149698152Y-68897977D01*
X149698152Y-68897977D02*
X149698152Y-69088453D01*
X149698152Y-69088453D02*
X149745771Y-69183691D01*
X150317200Y-68755120D02*
X150364819Y-68850358D01*
X150364819Y-68850358D02*
X150364819Y-69088453D01*
X150364819Y-69088453D02*
X150317200Y-69183691D01*
X150317200Y-69183691D02*
X150221961Y-69231310D01*
X150221961Y-69231310D02*
X150126723Y-69231310D01*
X150126723Y-69231310D02*
X150031485Y-69183691D01*
X150031485Y-69183691D02*
X149983866Y-69088453D01*
X149983866Y-69088453D02*
X149983866Y-68850358D01*
X149983866Y-68850358D02*
X149936247Y-68755120D01*
X149698152Y-68278929D02*
X150364819Y-68278929D01*
X149793390Y-68278929D02*
X149745771Y-68231310D01*
X149745771Y-68231310D02*
X149698152Y-68136072D01*
X149698152Y-68136072D02*
X149698152Y-67993215D01*
X149698152Y-67993215D02*
X149745771Y-67897977D01*
X149745771Y-67897977D02*
X149841009Y-67850358D01*
X149841009Y-67850358D02*
X150364819Y-67850358D01*
X149460057Y-67421786D02*
X149412438Y-67374167D01*
X149412438Y-67374167D02*
X149364819Y-67278929D01*
X149364819Y-67278929D02*
X149364819Y-67040834D01*
X149364819Y-67040834D02*
X149412438Y-66945596D01*
X149412438Y-66945596D02*
X149460057Y-66897977D01*
X149460057Y-66897977D02*
X149555295Y-66850358D01*
X149555295Y-66850358D02*
X149650533Y-66850358D01*
X149650533Y-66850358D02*
X149793390Y-66897977D01*
X149793390Y-66897977D02*
X150364819Y-67469405D01*
X150364819Y-67469405D02*
X150364819Y-66850358D01*
X150364819Y-66421786D02*
X149364819Y-66421786D01*
X149983866Y-66326548D02*
X150364819Y-66040834D01*
X149698152Y-66040834D02*
X150079104Y-66421786D01*
X150269580Y-65612262D02*
X150317200Y-65564643D01*
X150317200Y-65564643D02*
X150364819Y-65612262D01*
X150364819Y-65612262D02*
X150317200Y-65659881D01*
X150317200Y-65659881D02*
X150269580Y-65612262D01*
X150269580Y-65612262D02*
X150364819Y-65612262D01*
X149698152Y-65231310D02*
X150364819Y-65040834D01*
X150364819Y-65040834D02*
X149888628Y-64850358D01*
X149888628Y-64850358D02*
X150364819Y-64659882D01*
X150364819Y-64659882D02*
X149698152Y-64469406D01*
X150364819Y-63945596D02*
X150317200Y-64040834D01*
X150317200Y-64040834D02*
X150269580Y-64088453D01*
X150269580Y-64088453D02*
X150174342Y-64136072D01*
X150174342Y-64136072D02*
X149888628Y-64136072D01*
X149888628Y-64136072D02*
X149793390Y-64088453D01*
X149793390Y-64088453D02*
X149745771Y-64040834D01*
X149745771Y-64040834D02*
X149698152Y-63945596D01*
X149698152Y-63945596D02*
X149698152Y-63802739D01*
X149698152Y-63802739D02*
X149745771Y-63707501D01*
X149745771Y-63707501D02*
X149793390Y-63659882D01*
X149793390Y-63659882D02*
X149888628Y-63612263D01*
X149888628Y-63612263D02*
X150174342Y-63612263D01*
X150174342Y-63612263D02*
X150269580Y-63659882D01*
X150269580Y-63659882D02*
X150317200Y-63707501D01*
X150317200Y-63707501D02*
X150364819Y-63802739D01*
X150364819Y-63802739D02*
X150364819Y-63945596D01*
X150364819Y-63183691D02*
X149698152Y-63183691D01*
X149888628Y-63183691D02*
X149793390Y-63136072D01*
X149793390Y-63136072D02*
X149745771Y-63088453D01*
X149745771Y-63088453D02*
X149698152Y-62993215D01*
X149698152Y-62993215D02*
X149698152Y-62897977D01*
X150364819Y-62136072D02*
X149364819Y-62136072D01*
X150317200Y-62136072D02*
X150364819Y-62231310D01*
X150364819Y-62231310D02*
X150364819Y-62421786D01*
X150364819Y-62421786D02*
X150317200Y-62517024D01*
X150317200Y-62517024D02*
X150269580Y-62564643D01*
X150269580Y-62564643D02*
X150174342Y-62612262D01*
X150174342Y-62612262D02*
X149888628Y-62612262D01*
X149888628Y-62612262D02*
X149793390Y-62564643D01*
X149793390Y-62564643D02*
X149745771Y-62517024D01*
X149745771Y-62517024D02*
X149698152Y-62421786D01*
X149698152Y-62421786D02*
X149698152Y-62231310D01*
X149698152Y-62231310D02*
X149745771Y-62136072D01*
X149698152Y-61659881D02*
X150698152Y-61659881D01*
X149745771Y-61659881D02*
X149698152Y-61564643D01*
X149698152Y-61564643D02*
X149698152Y-61374167D01*
X149698152Y-61374167D02*
X149745771Y-61278929D01*
X149745771Y-61278929D02*
X149793390Y-61231310D01*
X149793390Y-61231310D02*
X149888628Y-61183691D01*
X149888628Y-61183691D02*
X150174342Y-61183691D01*
X150174342Y-61183691D02*
X150269580Y-61231310D01*
X150269580Y-61231310D02*
X150317200Y-61278929D01*
X150317200Y-61278929D02*
X150364819Y-61374167D01*
X150364819Y-61374167D02*
X150364819Y-61564643D01*
X150364819Y-61564643D02*
X150317200Y-61659881D01*
X150364819Y-60755119D02*
X149698152Y-60755119D01*
X149888628Y-60755119D02*
X149793390Y-60707500D01*
X149793390Y-60707500D02*
X149745771Y-60659881D01*
X149745771Y-60659881D02*
X149698152Y-60564643D01*
X149698152Y-60564643D02*
X149698152Y-60469405D01*
X150317200Y-59755119D02*
X150364819Y-59850357D01*
X150364819Y-59850357D02*
X150364819Y-60040833D01*
X150364819Y-60040833D02*
X150317200Y-60136071D01*
X150317200Y-60136071D02*
X150221961Y-60183690D01*
X150221961Y-60183690D02*
X149841009Y-60183690D01*
X149841009Y-60183690D02*
X149745771Y-60136071D01*
X149745771Y-60136071D02*
X149698152Y-60040833D01*
X149698152Y-60040833D02*
X149698152Y-59850357D01*
X149698152Y-59850357D02*
X149745771Y-59755119D01*
X149745771Y-59755119D02*
X149841009Y-59707500D01*
X149841009Y-59707500D02*
X149936247Y-59707500D01*
X149936247Y-59707500D02*
X150031485Y-60183690D01*
X150317200Y-59326547D02*
X150364819Y-59231309D01*
X150364819Y-59231309D02*
X150364819Y-59040833D01*
X150364819Y-59040833D02*
X150317200Y-58945595D01*
X150317200Y-58945595D02*
X150221961Y-58897976D01*
X150221961Y-58897976D02*
X150174342Y-58897976D01*
X150174342Y-58897976D02*
X150079104Y-58945595D01*
X150079104Y-58945595D02*
X150031485Y-59040833D01*
X150031485Y-59040833D02*
X150031485Y-59183690D01*
X150031485Y-59183690D02*
X149983866Y-59278928D01*
X149983866Y-59278928D02*
X149888628Y-59326547D01*
X149888628Y-59326547D02*
X149841009Y-59326547D01*
X149841009Y-59326547D02*
X149745771Y-59278928D01*
X149745771Y-59278928D02*
X149698152Y-59183690D01*
X149698152Y-59183690D02*
X149698152Y-59040833D01*
X149698152Y-59040833D02*
X149745771Y-58945595D01*
X150317200Y-58517023D02*
X150364819Y-58421785D01*
X150364819Y-58421785D02*
X150364819Y-58231309D01*
X150364819Y-58231309D02*
X150317200Y-58136071D01*
X150317200Y-58136071D02*
X150221961Y-58088452D01*
X150221961Y-58088452D02*
X150174342Y-58088452D01*
X150174342Y-58088452D02*
X150079104Y-58136071D01*
X150079104Y-58136071D02*
X150031485Y-58231309D01*
X150031485Y-58231309D02*
X150031485Y-58374166D01*
X150031485Y-58374166D02*
X149983866Y-58469404D01*
X149983866Y-58469404D02*
X149888628Y-58517023D01*
X149888628Y-58517023D02*
X149841009Y-58517023D01*
X149841009Y-58517023D02*
X149745771Y-58469404D01*
X149745771Y-58469404D02*
X149698152Y-58374166D01*
X149698152Y-58374166D02*
X149698152Y-58231309D01*
X149698152Y-58231309D02*
X149745771Y-58136071D01*
X150269580Y-57659880D02*
X150317200Y-57612261D01*
X150317200Y-57612261D02*
X150364819Y-57659880D01*
X150364819Y-57659880D02*
X150317200Y-57707499D01*
X150317200Y-57707499D02*
X150269580Y-57659880D01*
X150269580Y-57659880D02*
X150364819Y-57659880D01*
X150317200Y-56755119D02*
X150364819Y-56850357D01*
X150364819Y-56850357D02*
X150364819Y-57040833D01*
X150364819Y-57040833D02*
X150317200Y-57136071D01*
X150317200Y-57136071D02*
X150269580Y-57183690D01*
X150269580Y-57183690D02*
X150174342Y-57231309D01*
X150174342Y-57231309D02*
X149888628Y-57231309D01*
X149888628Y-57231309D02*
X149793390Y-57183690D01*
X149793390Y-57183690D02*
X149745771Y-57136071D01*
X149745771Y-57136071D02*
X149698152Y-57040833D01*
X149698152Y-57040833D02*
X149698152Y-56850357D01*
X149698152Y-56850357D02*
X149745771Y-56755119D01*
X150364819Y-56183690D02*
X150317200Y-56278928D01*
X150317200Y-56278928D02*
X150269580Y-56326547D01*
X150269580Y-56326547D02*
X150174342Y-56374166D01*
X150174342Y-56374166D02*
X149888628Y-56374166D01*
X149888628Y-56374166D02*
X149793390Y-56326547D01*
X149793390Y-56326547D02*
X149745771Y-56278928D01*
X149745771Y-56278928D02*
X149698152Y-56183690D01*
X149698152Y-56183690D02*
X149698152Y-56040833D01*
X149698152Y-56040833D02*
X149745771Y-55945595D01*
X149745771Y-55945595D02*
X149793390Y-55897976D01*
X149793390Y-55897976D02*
X149888628Y-55850357D01*
X149888628Y-55850357D02*
X150174342Y-55850357D01*
X150174342Y-55850357D02*
X150269580Y-55897976D01*
X150269580Y-55897976D02*
X150317200Y-55945595D01*
X150317200Y-55945595D02*
X150364819Y-56040833D01*
X150364819Y-56040833D02*
X150364819Y-56183690D01*
X150364819Y-55421785D02*
X149698152Y-55421785D01*
X149793390Y-55421785D02*
X149745771Y-55374166D01*
X149745771Y-55374166D02*
X149698152Y-55278928D01*
X149698152Y-55278928D02*
X149698152Y-55136071D01*
X149698152Y-55136071D02*
X149745771Y-55040833D01*
X149745771Y-55040833D02*
X149841009Y-54993214D01*
X149841009Y-54993214D02*
X150364819Y-54993214D01*
X149841009Y-54993214D02*
X149745771Y-54945595D01*
X149745771Y-54945595D02*
X149698152Y-54850357D01*
X149698152Y-54850357D02*
X149698152Y-54707500D01*
X149698152Y-54707500D02*
X149745771Y-54612261D01*
X149745771Y-54612261D02*
X149841009Y-54564642D01*
X149841009Y-54564642D02*
X150364819Y-54564642D01*
D11*
%TO.C,G\u002A\u002A\u002A*%
G36*
X148670622Y-48800863D02*
G01*
X148742574Y-48801006D01*
X148807074Y-48801230D01*
X148862329Y-48801527D01*
X148906546Y-48801883D01*
X148937930Y-48802290D01*
X148954690Y-48802736D01*
X148957030Y-48802983D01*
X148952347Y-48810565D01*
X148939881Y-48829208D01*
X148921776Y-48855730D01*
X148908755Y-48874600D01*
X148838675Y-48990690D01*
X148782275Y-49116294D01*
X148740608Y-49249007D01*
X148735648Y-49269576D01*
X148720563Y-49334682D01*
X148398359Y-49658056D01*
X148076154Y-49981431D01*
X148032722Y-49976581D01*
X148006377Y-49973603D01*
X147968232Y-49969246D01*
X147923732Y-49964132D01*
X147885120Y-49959673D01*
X147831411Y-49953604D01*
X147771621Y-49947082D01*
X147714705Y-49941075D01*
X147685462Y-49938100D01*
X147642796Y-49933713D01*
X147603163Y-49929397D01*
X147571815Y-49925735D01*
X147557420Y-49923848D01*
X147524867Y-49919109D01*
X147524867Y-49132209D01*
X147557420Y-49127471D01*
X147579651Y-49124636D01*
X147613914Y-49120734D01*
X147654954Y-49116346D01*
X147685462Y-49113243D01*
X147737369Y-49107851D01*
X147797018Y-49101295D01*
X147854929Y-49094631D01*
X147880780Y-49091525D01*
X147930838Y-49085727D01*
X147984312Y-49080072D01*
X148033277Y-49075378D01*
X148057320Y-49073352D01*
X148093289Y-49069562D01*
X148120435Y-49064736D01*
X148135136Y-49059582D01*
X148136677Y-49057812D01*
X148144428Y-49032087D01*
X148156049Y-48996292D01*
X148169895Y-48955206D01*
X148184318Y-48913603D01*
X148197674Y-48876261D01*
X148208315Y-48847956D01*
X148212531Y-48837706D01*
X148228824Y-48800813D01*
X148593011Y-48800813D01*
X148670622Y-48800863D01*
G37*
G36*
X151471558Y-50496166D02*
G01*
X151492902Y-50521448D01*
X151516459Y-50550196D01*
X151523595Y-50559102D01*
X151537331Y-50576299D01*
X151559827Y-50604375D01*
X151588961Y-50640683D01*
X151622607Y-50682576D01*
X151658643Y-50727407D01*
X151666060Y-50736630D01*
X151700679Y-50779697D01*
X151731793Y-50818452D01*
X151757690Y-50850755D01*
X151776657Y-50874471D01*
X151786981Y-50887461D01*
X151788157Y-50888974D01*
X151783764Y-50897153D01*
X151767643Y-50916628D01*
X151740534Y-50946612D01*
X151703179Y-50986322D01*
X151656320Y-51034974D01*
X151600697Y-51091782D01*
X151537053Y-51155962D01*
X151515386Y-51177656D01*
X151235717Y-51457226D01*
X151083898Y-51334918D01*
X151038922Y-51298665D01*
X150997653Y-51265364D01*
X150962306Y-51236804D01*
X150935094Y-51214774D01*
X150918231Y-51201064D01*
X150914686Y-51198150D01*
X150900508Y-51186567D01*
X150876712Y-51167334D01*
X150847248Y-51143637D01*
X150829647Y-51129527D01*
X150762000Y-51075363D01*
X150686444Y-51113645D01*
X150646217Y-51133639D01*
X150604696Y-51153644D01*
X150568989Y-51170254D01*
X150559176Y-51174636D01*
X150507463Y-51197347D01*
X150253178Y-50943171D01*
X150198573Y-50888446D01*
X150147987Y-50837469D01*
X150102702Y-50791555D01*
X150063999Y-50752015D01*
X150033163Y-50720164D01*
X150011474Y-50697313D01*
X150000216Y-50684776D01*
X149998893Y-50682823D01*
X150006527Y-50677665D01*
X150025466Y-50672586D01*
X150031446Y-50671542D01*
X150163415Y-50643410D01*
X150289660Y-50601769D01*
X150407138Y-50547745D01*
X150478462Y-50505810D01*
X150537644Y-50467525D01*
X151446787Y-50467525D01*
X151471558Y-50496166D01*
G37*
G36*
X151235835Y-47606236D02*
G01*
X151255309Y-47622357D01*
X151285294Y-47649466D01*
X151325004Y-47686821D01*
X151373655Y-47733680D01*
X151430463Y-47789303D01*
X151494643Y-47852947D01*
X151516337Y-47874614D01*
X151795908Y-48154283D01*
X151673599Y-48306102D01*
X151637347Y-48351078D01*
X151604046Y-48392347D01*
X151575486Y-48427694D01*
X151553456Y-48454906D01*
X151539745Y-48471769D01*
X151536832Y-48475314D01*
X151525249Y-48489492D01*
X151506016Y-48513288D01*
X151482318Y-48542752D01*
X151468208Y-48560353D01*
X151414045Y-48628000D01*
X151452326Y-48703556D01*
X151472184Y-48743486D01*
X151491928Y-48784420D01*
X151508220Y-48819399D01*
X151512591Y-48829180D01*
X151534575Y-48879249D01*
X151278269Y-49135993D01*
X151223448Y-49190723D01*
X151172451Y-49241278D01*
X151126568Y-49286405D01*
X151087090Y-49324854D01*
X151055304Y-49355370D01*
X151032503Y-49376703D01*
X151019976Y-49387598D01*
X151017957Y-49388731D01*
X151014624Y-49378713D01*
X151009860Y-49356489D01*
X151005102Y-49329321D01*
X150975751Y-49200007D01*
X150929530Y-49072822D01*
X150866905Y-48948967D01*
X150839601Y-48904115D01*
X150797526Y-48838142D01*
X150797937Y-48391949D01*
X150798347Y-47945755D01*
X150847643Y-47906691D01*
X150874886Y-47885039D01*
X150898910Y-47865833D01*
X150914508Y-47853237D01*
X150928210Y-47842123D01*
X150952100Y-47822852D01*
X150983769Y-47797360D01*
X151020806Y-47767582D01*
X151060801Y-47735453D01*
X151101344Y-47702907D01*
X151140025Y-47671879D01*
X151174434Y-47644304D01*
X151202160Y-47622117D01*
X151220794Y-47607254D01*
X151227656Y-47601843D01*
X151235835Y-47606236D01*
G37*
G36*
X148711601Y-49659284D02*
G01*
X148716453Y-49679017D01*
X148718664Y-49692765D01*
X148725141Y-49728693D01*
X148735772Y-49775266D01*
X148749030Y-49826721D01*
X148763387Y-49877298D01*
X148777316Y-49921235D01*
X148784578Y-49941360D01*
X148806823Y-49993103D01*
X148835198Y-50050849D01*
X148865761Y-50106961D01*
X148893083Y-50151575D01*
X148922475Y-50195877D01*
X148922475Y-51116588D01*
X148901991Y-51130010D01*
X148882040Y-51144403D01*
X148869438Y-51155043D01*
X148858665Y-51164351D01*
X148837006Y-51182276D01*
X148807155Y-51206617D01*
X148771803Y-51235172D01*
X148753199Y-51250105D01*
X148711657Y-51283419D01*
X148669937Y-51316936D01*
X148632214Y-51347298D01*
X148602662Y-51371147D01*
X148596208Y-51376373D01*
X148566827Y-51399856D01*
X148539078Y-51421473D01*
X148518627Y-51436815D01*
X148517494Y-51437626D01*
X148491602Y-51456063D01*
X147933540Y-50897225D01*
X147974436Y-50843961D01*
X147991380Y-50822255D01*
X148016852Y-50790076D01*
X148048493Y-50750363D01*
X148083943Y-50706053D01*
X148120845Y-50660085D01*
X148156837Y-50615397D01*
X148189561Y-50574926D01*
X148216657Y-50541611D01*
X148235766Y-50518391D01*
X148238318Y-50515340D01*
X148251992Y-50498623D01*
X148271099Y-50474750D01*
X148283454Y-50459119D01*
X148313942Y-50420330D01*
X148280960Y-50359290D01*
X148260444Y-50319437D01*
X148238224Y-50273376D01*
X148219075Y-50231006D01*
X148218898Y-50230594D01*
X148189817Y-50162938D01*
X148445411Y-49907235D01*
X148500287Y-49852475D01*
X148551411Y-49801729D01*
X148597474Y-49756277D01*
X148637168Y-49717397D01*
X148669185Y-49686368D01*
X148692216Y-49664467D01*
X148704953Y-49652975D01*
X148707038Y-49651531D01*
X148711601Y-49659284D01*
G37*
G36*
X148510655Y-47609441D02*
G01*
X148531371Y-47625971D01*
X148560735Y-47649477D01*
X148596313Y-47678001D01*
X148635668Y-47709587D01*
X148676363Y-47742277D01*
X148715962Y-47774115D01*
X148752029Y-47803143D01*
X148782128Y-47827405D01*
X148803821Y-47844944D01*
X148813995Y-47853237D01*
X148828179Y-47864795D01*
X148851974Y-47884004D01*
X148881426Y-47907678D01*
X148898917Y-47921697D01*
X148966447Y-47975766D01*
X149059481Y-47929272D01*
X149099476Y-47909689D01*
X149137103Y-47891983D01*
X149167804Y-47878259D01*
X149185341Y-47871190D01*
X149218166Y-47859603D01*
X149469637Y-48110962D01*
X149523923Y-48165357D01*
X149574185Y-48215977D01*
X149619133Y-48261504D01*
X149657478Y-48300619D01*
X149687931Y-48332007D01*
X149709202Y-48354348D01*
X149720003Y-48366326D01*
X149721108Y-48367959D01*
X149714224Y-48375482D01*
X149707376Y-48378866D01*
X149687365Y-48383242D01*
X149674288Y-48384135D01*
X149652138Y-48386813D01*
X149617975Y-48394066D01*
X149576170Y-48404725D01*
X149531092Y-48417619D01*
X149487113Y-48431580D01*
X149456343Y-48442471D01*
X149382207Y-48472901D01*
X149315571Y-48506476D01*
X149249904Y-48546012D01*
X149191038Y-48583793D01*
X148281895Y-48583793D01*
X148257123Y-48555153D01*
X148235779Y-48529888D01*
X148212197Y-48501154D01*
X148205018Y-48492217D01*
X148191504Y-48475342D01*
X148169119Y-48447483D01*
X148139896Y-48411166D01*
X148105870Y-48368919D01*
X148069073Y-48323267D01*
X148055230Y-48306102D01*
X147932774Y-48154283D01*
X148212344Y-47874614D01*
X148278691Y-47808588D01*
X148337914Y-47750350D01*
X148389228Y-47700641D01*
X148431850Y-47660202D01*
X148464993Y-47629774D01*
X148487875Y-47610099D01*
X148499709Y-47601919D01*
X148501026Y-47601843D01*
X148510655Y-47609441D01*
G37*
G36*
X150262529Y-47218739D02*
G01*
X150265364Y-47240970D01*
X150269266Y-47275232D01*
X150273654Y-47316273D01*
X150276757Y-47346780D01*
X150282149Y-47398688D01*
X150288705Y-47458336D01*
X150295369Y-47516247D01*
X150298475Y-47542098D01*
X150304273Y-47592157D01*
X150309928Y-47645631D01*
X150314622Y-47694596D01*
X150316648Y-47718638D01*
X150320436Y-47754589D01*
X150325262Y-47781741D01*
X150330413Y-47796464D01*
X150332188Y-47798017D01*
X150364643Y-47807764D01*
X150406966Y-47821457D01*
X150452770Y-47836946D01*
X150495666Y-47852083D01*
X150521911Y-47861844D01*
X150580506Y-47884397D01*
X150580506Y-48247116D01*
X150580415Y-48324573D01*
X150580156Y-48396375D01*
X150579748Y-48460722D01*
X150579211Y-48515817D01*
X150578563Y-48559863D01*
X150577825Y-48591060D01*
X150577016Y-48607613D01*
X150576582Y-48609836D01*
X150568113Y-48605214D01*
X150549212Y-48592968D01*
X150523602Y-48575526D01*
X150517471Y-48571258D01*
X150444605Y-48525095D01*
X150364100Y-48482134D01*
X150284711Y-48446980D01*
X150272338Y-48442255D01*
X150233143Y-48428686D01*
X150189289Y-48415121D01*
X150145114Y-48402726D01*
X150104955Y-48392663D01*
X150073149Y-48386097D01*
X150055809Y-48384135D01*
X150044983Y-48377999D01*
X150022569Y-48359557D01*
X149988513Y-48328758D01*
X149942761Y-48285550D01*
X149885258Y-48229882D01*
X149815950Y-48161702D01*
X149734783Y-48080959D01*
X149722442Y-48068621D01*
X149407016Y-47753106D01*
X149412576Y-47701857D01*
X149415882Y-47672032D01*
X149420542Y-47630859D01*
X149425885Y-47584230D01*
X149430261Y-47546438D01*
X149436358Y-47492732D01*
X149442902Y-47432945D01*
X149448922Y-47376031D01*
X149451900Y-47346780D01*
X149456287Y-47304115D01*
X149460603Y-47264482D01*
X149464265Y-47233133D01*
X149466152Y-47218739D01*
X149470891Y-47186186D01*
X150257791Y-47186186D01*
X150262529Y-47218739D01*
G37*
G36*
X151692204Y-49074239D02*
G01*
X151720214Y-49077435D01*
X151759812Y-49081982D01*
X151805338Y-49087228D01*
X151843562Y-49091646D01*
X151897271Y-49097715D01*
X151957060Y-49104236D01*
X152013977Y-49110244D01*
X152043220Y-49113218D01*
X152085885Y-49117606D01*
X152125518Y-49121922D01*
X152156867Y-49125583D01*
X152171261Y-49127471D01*
X152203814Y-49132209D01*
X152203814Y-49919109D01*
X152171261Y-49923848D01*
X152149030Y-49926682D01*
X152114768Y-49930585D01*
X152073727Y-49934973D01*
X152043220Y-49938075D01*
X151991312Y-49943468D01*
X151931664Y-49950023D01*
X151873753Y-49956687D01*
X151847902Y-49959793D01*
X151797843Y-49965592D01*
X151744369Y-49971246D01*
X151695404Y-49975940D01*
X151671362Y-49977966D01*
X151635393Y-49981756D01*
X151608247Y-49986583D01*
X151593545Y-49991736D01*
X151592004Y-49993507D01*
X151584254Y-50019232D01*
X151572632Y-50055026D01*
X151558787Y-50096113D01*
X151544363Y-50137716D01*
X151531008Y-50175058D01*
X151520367Y-50203363D01*
X151516151Y-50213612D01*
X151499858Y-50250505D01*
X151135158Y-50250505D01*
X151043036Y-50250409D01*
X150967002Y-50250094D01*
X150905781Y-50249522D01*
X150858100Y-50248654D01*
X150822686Y-50247452D01*
X150798265Y-50245877D01*
X150783565Y-50243890D01*
X150777310Y-50241454D01*
X150777143Y-50239654D01*
X150785189Y-50227508D01*
X150800119Y-50205679D01*
X150818838Y-50178689D01*
X150820574Y-50176204D01*
X150864323Y-50107057D01*
X150905821Y-50029561D01*
X150940426Y-49952564D01*
X150947745Y-49933657D01*
X150960119Y-49897939D01*
X150972990Y-49856697D01*
X150985177Y-49814241D01*
X150995502Y-49774881D01*
X151002782Y-49742927D01*
X151005837Y-49722689D01*
X151005865Y-49721468D01*
X151011842Y-49712876D01*
X151029008Y-49693264D01*
X151056216Y-49663826D01*
X151092318Y-49625760D01*
X151136168Y-49580260D01*
X151186618Y-49528523D01*
X151242520Y-49471745D01*
X151302728Y-49411120D01*
X151325441Y-49388380D01*
X151645016Y-49068892D01*
X151692204Y-49074239D01*
G37*
G36*
X149162492Y-50446507D02*
G01*
X149184321Y-50461437D01*
X149211311Y-50480157D01*
X149213796Y-50481892D01*
X149282943Y-50525642D01*
X149360439Y-50567139D01*
X149437436Y-50601745D01*
X149456343Y-50609064D01*
X149492061Y-50621437D01*
X149533303Y-50634308D01*
X149575759Y-50646496D01*
X149615119Y-50656820D01*
X149647073Y-50664100D01*
X149667311Y-50667156D01*
X149668532Y-50667184D01*
X149678052Y-50673204D01*
X149698154Y-50690326D01*
X149727439Y-50717138D01*
X149764505Y-50752228D01*
X149807954Y-50794187D01*
X149856385Y-50841604D01*
X149908400Y-50893066D01*
X149962597Y-50947164D01*
X150017578Y-51002487D01*
X150071943Y-51057623D01*
X150124292Y-51111162D01*
X150173225Y-51161693D01*
X150217343Y-51207804D01*
X150255246Y-51248086D01*
X150285534Y-51281126D01*
X150306807Y-51305515D01*
X150317666Y-51319841D01*
X150318782Y-51322627D01*
X150316805Y-51344226D01*
X150314464Y-51365987D01*
X150305458Y-51443921D01*
X150298164Y-51507508D01*
X150292261Y-51559643D01*
X150287427Y-51603221D01*
X150283340Y-51641136D01*
X150279678Y-51676284D01*
X150276820Y-51704538D01*
X150272417Y-51747203D01*
X150268088Y-51786835D01*
X150264419Y-51818184D01*
X150262529Y-51832580D01*
X150257791Y-51865133D01*
X149470891Y-51865133D01*
X149466152Y-51832580D01*
X149463318Y-51810349D01*
X149459415Y-51776086D01*
X149455027Y-51735046D01*
X149451925Y-51704538D01*
X149446532Y-51652631D01*
X149439977Y-51592982D01*
X149433313Y-51535071D01*
X149430207Y-51509220D01*
X149424408Y-51459162D01*
X149418754Y-51405688D01*
X149414060Y-51356723D01*
X149412034Y-51332680D01*
X149408244Y-51296711D01*
X149403417Y-51269565D01*
X149398264Y-51254864D01*
X149396493Y-51253323D01*
X149370768Y-51245572D01*
X149334974Y-51233951D01*
X149293887Y-51220105D01*
X149252284Y-51205682D01*
X149214942Y-51192326D01*
X149186637Y-51181685D01*
X149176388Y-51177469D01*
X149139495Y-51161176D01*
X149139495Y-50796477D01*
X149139591Y-50704355D01*
X149139906Y-50628320D01*
X149140478Y-50567099D01*
X149141346Y-50519418D01*
X149142548Y-50484004D01*
X149144123Y-50459584D01*
X149146110Y-50444883D01*
X149148546Y-50438629D01*
X149150346Y-50438462D01*
X149162492Y-50446507D01*
G37*
G36*
X150245656Y-49018164D02*
G01*
X150326246Y-49076504D01*
X150394289Y-49145979D01*
X150448702Y-49225265D01*
X150488405Y-49313035D01*
X150489994Y-49317651D01*
X150501109Y-49353664D01*
X150508480Y-49387324D01*
X150512992Y-49424504D01*
X150515533Y-49471075D01*
X150516126Y-49490936D01*
X150516519Y-49536899D01*
X150515520Y-49581299D01*
X150513331Y-49618559D01*
X150510755Y-49640052D01*
X150492088Y-49711017D01*
X150462187Y-49784598D01*
X150424074Y-49853495D01*
X150419647Y-49860268D01*
X150363628Y-49929169D01*
X150294762Y-49987929D01*
X150214683Y-50035991D01*
X150125020Y-50072796D01*
X150027408Y-50097785D01*
X149923477Y-50110399D01*
X149814859Y-50110080D01*
X149721108Y-50099395D01*
X149712427Y-50097436D01*
X149623491Y-50077370D01*
X149537170Y-50044521D01*
X149458627Y-49999085D01*
X149384349Y-49939297D01*
X149364742Y-49920635D01*
X149299793Y-49847373D01*
X149249972Y-49769009D01*
X149213108Y-49681918D01*
X149203691Y-49651607D01*
X149193276Y-49613112D01*
X149186919Y-49581721D01*
X149183961Y-49551102D01*
X149183736Y-49514920D01*
X149184277Y-49500236D01*
X149351305Y-49500236D01*
X149355451Y-49555614D01*
X149369245Y-49606922D01*
X149377067Y-49624236D01*
X149415970Y-49681433D01*
X149468330Y-49731287D01*
X149530999Y-49771522D01*
X149600827Y-49799859D01*
X149630233Y-49807389D01*
X149659636Y-49813720D01*
X149684802Y-49819227D01*
X149692895Y-49821038D01*
X149712427Y-49825477D01*
X149712378Y-49588760D01*
X149712044Y-49522539D01*
X149711122Y-49461517D01*
X149709695Y-49408191D01*
X149707846Y-49365057D01*
X149705656Y-49334613D01*
X149703536Y-49320383D01*
X149688391Y-49288810D01*
X149662702Y-49268602D01*
X149624768Y-49258771D01*
X149595236Y-49257443D01*
X149533517Y-49266417D01*
X149476158Y-49291079D01*
X149425575Y-49329868D01*
X149384184Y-49381218D01*
X149372458Y-49401598D01*
X149356932Y-49446870D01*
X149351305Y-49500236D01*
X149184277Y-49500236D01*
X149185209Y-49474906D01*
X149192002Y-49398920D01*
X149205862Y-49333820D01*
X149228449Y-49273995D01*
X149261419Y-49213833D01*
X149263214Y-49210964D01*
X149314327Y-49145535D01*
X149378467Y-49089696D01*
X149453253Y-49045034D01*
X149536304Y-49013140D01*
X149573534Y-49003838D01*
X149616089Y-48997327D01*
X149664630Y-48993834D01*
X149714999Y-48993225D01*
X149763038Y-48995367D01*
X149804590Y-49000124D01*
X149835497Y-49007364D01*
X149846905Y-49012645D01*
X149868681Y-49026914D01*
X149868681Y-49825147D01*
X149905575Y-49824842D01*
X149988333Y-49816327D01*
X150065712Y-49792999D01*
X150135660Y-49756083D01*
X150196123Y-49706803D01*
X150245049Y-49646383D01*
X150265690Y-49610080D01*
X150279478Y-49581604D01*
X150288715Y-49559222D01*
X150294312Y-49538174D01*
X150297181Y-49513698D01*
X150298233Y-49481034D01*
X150298380Y-49439315D01*
X150298056Y-49393498D01*
X150296620Y-49360486D01*
X150293375Y-49335726D01*
X150287626Y-49314668D01*
X150278676Y-49292758D01*
X150274626Y-49283977D01*
X150254771Y-49247971D01*
X150227265Y-49206253D01*
X150196290Y-49164548D01*
X150166027Y-49128582D01*
X150147417Y-49109806D01*
X150133128Y-49092147D01*
X150131219Y-49073626D01*
X150142277Y-49050981D01*
X150162542Y-49025791D01*
X150195979Y-48988112D01*
X150245656Y-49018164D01*
G37*
D12*
%TO.C,J2*%
X151070000Y-39370000D02*
X151070000Y-100390000D01*
X151070000Y-39370000D02*
X153730000Y-39370000D01*
X151070000Y-100390000D02*
X153730000Y-100390000D01*
X152400000Y-36770000D02*
X153730000Y-36770000D01*
X153730000Y-36770000D02*
X153730000Y-38100000D01*
X153730000Y-39370000D02*
X153730000Y-100390000D01*
%TO.C,J1*%
X145990000Y-39370000D02*
X145990000Y-100390000D01*
X145990000Y-39370000D02*
X148650000Y-39370000D01*
X145990000Y-100390000D02*
X148650000Y-100390000D01*
X147320000Y-36770000D02*
X148650000Y-36770000D01*
X148650000Y-36770000D02*
X148650000Y-38100000D01*
X148650000Y-39370000D02*
X148650000Y-100390000D01*
%TD*%
%LPC*%
D13*
%TO.C,J2*%
X152400000Y-38100000D03*
D14*
X152400000Y-40640000D03*
X152400000Y-43180000D03*
X152400000Y-45720000D03*
X152400000Y-48260000D03*
X152400000Y-50800000D03*
X152400000Y-53340000D03*
X152400000Y-55880000D03*
X152400000Y-58420000D03*
X152400000Y-60960000D03*
X152400000Y-63500000D03*
X152400000Y-66040000D03*
X152400000Y-68580000D03*
X152400000Y-71120000D03*
X152400000Y-73660000D03*
X152400000Y-76200000D03*
X152400000Y-78740000D03*
X152400000Y-81280000D03*
X152400000Y-83820000D03*
X152400000Y-86360000D03*
X152400000Y-88900000D03*
X152400000Y-91440000D03*
X152400000Y-93980000D03*
X152400000Y-96520000D03*
X152400000Y-99060000D03*
%TD*%
D13*
%TO.C,J1*%
X147320000Y-38100000D03*
D14*
X147320000Y-40640000D03*
X147320000Y-43180000D03*
X147320000Y-45720000D03*
X147320000Y-48260000D03*
X147320000Y-50800000D03*
X147320000Y-53340000D03*
X147320000Y-55880000D03*
X147320000Y-58420000D03*
X147320000Y-60960000D03*
X147320000Y-63500000D03*
X147320000Y-66040000D03*
X147320000Y-68580000D03*
X147320000Y-71120000D03*
X147320000Y-73660000D03*
X147320000Y-76200000D03*
X147320000Y-78740000D03*
X147320000Y-81280000D03*
X147320000Y-83820000D03*
X147320000Y-86360000D03*
X147320000Y-88900000D03*
X147320000Y-91440000D03*
X147320000Y-93980000D03*
X147320000Y-96520000D03*
X147320000Y-99060000D03*
%TD*%
D13*
%TO.C,J3*%
X144780000Y-38100000D03*
D14*
X142240000Y-38100000D03*
X144780000Y-40640000D03*
X142240000Y-40640000D03*
X144780000Y-43180000D03*
X142240000Y-43180000D03*
X144780000Y-45720000D03*
X142240000Y-45720000D03*
X144780000Y-48260000D03*
X142240000Y-48260000D03*
X144780000Y-50800000D03*
X142240000Y-50800000D03*
X144780000Y-53340000D03*
X142240000Y-53340000D03*
X144780000Y-55880000D03*
X142240000Y-55880000D03*
X144780000Y-58420000D03*
X142240000Y-58420000D03*
X144780000Y-60960000D03*
X142240000Y-60960000D03*
X144780000Y-63500000D03*
X142240000Y-63500000D03*
X144780000Y-66040000D03*
X142240000Y-66040000D03*
X144780000Y-68580000D03*
X142240000Y-68580000D03*
X144780000Y-71120000D03*
X142240000Y-71120000D03*
X144780000Y-73660000D03*
X142240000Y-73660000D03*
X144780000Y-76200000D03*
X142240000Y-76200000D03*
X144780000Y-78740000D03*
X142240000Y-78740000D03*
X144780000Y-81280000D03*
X142240000Y-81280000D03*
X144780000Y-83820000D03*
X142240000Y-83820000D03*
X144780000Y-86360000D03*
X142240000Y-86360000D03*
X144780000Y-88900000D03*
X142240000Y-88900000D03*
X144780000Y-91440000D03*
X142240000Y-91440000D03*
X144780000Y-93980000D03*
X142240000Y-93980000D03*
X144780000Y-96520000D03*
X142240000Y-96520000D03*
X144780000Y-99060000D03*
X142240000Y-99060000D03*
%TD*%
%LPD*%
M02*
