%TF.GenerationSoftware,KiCad,Pcbnew,8.0.4*%
%TF.CreationDate,2024-08-17T03:45:06-04:00*%
%TF.ProjectId,8216 substitute,38323136-2073-4756-9273-746974757465,rev?*%
%TF.SameCoordinates,Original*%
%TF.FileFunction,Legend,Top*%
%TF.FilePolarity,Positive*%
%FSLAX46Y46*%
G04 Gerber Fmt 4.6, Leading zero omitted, Abs format (unit mm)*
G04 Created by KiCad (PCBNEW 8.0.4) date 2024-08-17 03:45:06*
%MOMM*%
%LPD*%
G01*
G04 APERTURE LIST*
%ADD10C,0.150000*%
%ADD11C,0.120000*%
%ADD12R,1.600000X1.600000*%
%ADD13O,1.600000X1.600000*%
G04 APERTURE END LIST*
D10*
X99533152Y-69513220D02*
X100533152Y-69513220D01*
X99580771Y-69513220D02*
X99533152Y-69417982D01*
X99533152Y-69417982D02*
X99533152Y-69227506D01*
X99533152Y-69227506D02*
X99580771Y-69132268D01*
X99580771Y-69132268D02*
X99628390Y-69084649D01*
X99628390Y-69084649D02*
X99723628Y-69037030D01*
X99723628Y-69037030D02*
X100009342Y-69037030D01*
X100009342Y-69037030D02*
X100104580Y-69084649D01*
X100104580Y-69084649D02*
X100152200Y-69132268D01*
X100152200Y-69132268D02*
X100199819Y-69227506D01*
X100199819Y-69227506D02*
X100199819Y-69417982D01*
X100199819Y-69417982D02*
X100152200Y-69513220D01*
X100199819Y-68608458D02*
X99533152Y-68608458D01*
X99199819Y-68608458D02*
X99247438Y-68656077D01*
X99247438Y-68656077D02*
X99295057Y-68608458D01*
X99295057Y-68608458D02*
X99247438Y-68560839D01*
X99247438Y-68560839D02*
X99199819Y-68608458D01*
X99199819Y-68608458D02*
X99295057Y-68608458D01*
X99533152Y-68132268D02*
X100199819Y-68132268D01*
X99628390Y-68132268D02*
X99580771Y-68084649D01*
X99580771Y-68084649D02*
X99533152Y-67989411D01*
X99533152Y-67989411D02*
X99533152Y-67846554D01*
X99533152Y-67846554D02*
X99580771Y-67751316D01*
X99580771Y-67751316D02*
X99676009Y-67703697D01*
X99676009Y-67703697D02*
X100199819Y-67703697D01*
X100152200Y-67275125D02*
X100199819Y-67179887D01*
X100199819Y-67179887D02*
X100199819Y-66989411D01*
X100199819Y-66989411D02*
X100152200Y-66894173D01*
X100152200Y-66894173D02*
X100056961Y-66846554D01*
X100056961Y-66846554D02*
X100009342Y-66846554D01*
X100009342Y-66846554D02*
X99914104Y-66894173D01*
X99914104Y-66894173D02*
X99866485Y-66989411D01*
X99866485Y-66989411D02*
X99866485Y-67132268D01*
X99866485Y-67132268D02*
X99818866Y-67227506D01*
X99818866Y-67227506D02*
X99723628Y-67275125D01*
X99723628Y-67275125D02*
X99676009Y-67275125D01*
X99676009Y-67275125D02*
X99580771Y-67227506D01*
X99580771Y-67227506D02*
X99533152Y-67132268D01*
X99533152Y-67132268D02*
X99533152Y-66989411D01*
X99533152Y-66989411D02*
X99580771Y-66894173D01*
X75403152Y-69513220D02*
X76403152Y-69513220D01*
X75450771Y-69513220D02*
X75403152Y-69417982D01*
X75403152Y-69417982D02*
X75403152Y-69227506D01*
X75403152Y-69227506D02*
X75450771Y-69132268D01*
X75450771Y-69132268D02*
X75498390Y-69084649D01*
X75498390Y-69084649D02*
X75593628Y-69037030D01*
X75593628Y-69037030D02*
X75879342Y-69037030D01*
X75879342Y-69037030D02*
X75974580Y-69084649D01*
X75974580Y-69084649D02*
X76022200Y-69132268D01*
X76022200Y-69132268D02*
X76069819Y-69227506D01*
X76069819Y-69227506D02*
X76069819Y-69417982D01*
X76069819Y-69417982D02*
X76022200Y-69513220D01*
X76069819Y-68608458D02*
X75403152Y-68608458D01*
X75069819Y-68608458D02*
X75117438Y-68656077D01*
X75117438Y-68656077D02*
X75165057Y-68608458D01*
X75165057Y-68608458D02*
X75117438Y-68560839D01*
X75117438Y-68560839D02*
X75069819Y-68608458D01*
X75069819Y-68608458D02*
X75165057Y-68608458D01*
X75403152Y-68132268D02*
X76069819Y-68132268D01*
X75498390Y-68132268D02*
X75450771Y-68084649D01*
X75450771Y-68084649D02*
X75403152Y-67989411D01*
X75403152Y-67989411D02*
X75403152Y-67846554D01*
X75403152Y-67846554D02*
X75450771Y-67751316D01*
X75450771Y-67751316D02*
X75546009Y-67703697D01*
X75546009Y-67703697D02*
X76069819Y-67703697D01*
X76022200Y-67275125D02*
X76069819Y-67179887D01*
X76069819Y-67179887D02*
X76069819Y-66989411D01*
X76069819Y-66989411D02*
X76022200Y-66894173D01*
X76022200Y-66894173D02*
X75926961Y-66846554D01*
X75926961Y-66846554D02*
X75879342Y-66846554D01*
X75879342Y-66846554D02*
X75784104Y-66894173D01*
X75784104Y-66894173D02*
X75736485Y-66989411D01*
X75736485Y-66989411D02*
X75736485Y-67132268D01*
X75736485Y-67132268D02*
X75688866Y-67227506D01*
X75688866Y-67227506D02*
X75593628Y-67275125D01*
X75593628Y-67275125D02*
X75546009Y-67275125D01*
X75546009Y-67275125D02*
X75450771Y-67227506D01*
X75450771Y-67227506D02*
X75403152Y-67132268D01*
X75403152Y-67132268D02*
X75403152Y-66989411D01*
X75403152Y-66989411D02*
X75450771Y-66894173D01*
X87084819Y-71699047D02*
X87084819Y-71032381D01*
X87084819Y-71032381D02*
X88084819Y-71460952D01*
X87418152Y-70222857D02*
X88084819Y-70222857D01*
X87037200Y-70460952D02*
X87751485Y-70699047D01*
X87751485Y-70699047D02*
X87751485Y-70080000D01*
X88084819Y-69222857D02*
X88084819Y-69699047D01*
X88084819Y-69699047D02*
X87084819Y-69699047D01*
X88037200Y-68937142D02*
X88084819Y-68794285D01*
X88084819Y-68794285D02*
X88084819Y-68556190D01*
X88084819Y-68556190D02*
X88037200Y-68460952D01*
X88037200Y-68460952D02*
X87989580Y-68413333D01*
X87989580Y-68413333D02*
X87894342Y-68365714D01*
X87894342Y-68365714D02*
X87799104Y-68365714D01*
X87799104Y-68365714D02*
X87703866Y-68413333D01*
X87703866Y-68413333D02*
X87656247Y-68460952D01*
X87656247Y-68460952D02*
X87608628Y-68556190D01*
X87608628Y-68556190D02*
X87561009Y-68746666D01*
X87561009Y-68746666D02*
X87513390Y-68841904D01*
X87513390Y-68841904D02*
X87465771Y-68889523D01*
X87465771Y-68889523D02*
X87370533Y-68937142D01*
X87370533Y-68937142D02*
X87275295Y-68937142D01*
X87275295Y-68937142D02*
X87180057Y-68889523D01*
X87180057Y-68889523D02*
X87132438Y-68841904D01*
X87132438Y-68841904D02*
X87084819Y-68746666D01*
X87084819Y-68746666D02*
X87084819Y-68508571D01*
X87084819Y-68508571D02*
X87132438Y-68365714D01*
X87180057Y-67984761D02*
X87132438Y-67937142D01*
X87132438Y-67937142D02*
X87084819Y-67841904D01*
X87084819Y-67841904D02*
X87084819Y-67603809D01*
X87084819Y-67603809D02*
X87132438Y-67508571D01*
X87132438Y-67508571D02*
X87180057Y-67460952D01*
X87180057Y-67460952D02*
X87275295Y-67413333D01*
X87275295Y-67413333D02*
X87370533Y-67413333D01*
X87370533Y-67413333D02*
X87513390Y-67460952D01*
X87513390Y-67460952D02*
X88084819Y-68032380D01*
X88084819Y-68032380D02*
X88084819Y-67413333D01*
X87418152Y-66556190D02*
X88084819Y-66556190D01*
X87037200Y-66794285D02*
X87751485Y-67032380D01*
X87751485Y-67032380D02*
X87751485Y-66413333D01*
X87084819Y-65556190D02*
X87084819Y-66032380D01*
X87084819Y-66032380D02*
X87561009Y-66079999D01*
X87561009Y-66079999D02*
X87513390Y-66032380D01*
X87513390Y-66032380D02*
X87465771Y-65937142D01*
X87465771Y-65937142D02*
X87465771Y-65699047D01*
X87465771Y-65699047D02*
X87513390Y-65603809D01*
X87513390Y-65603809D02*
X87561009Y-65556190D01*
X87561009Y-65556190D02*
X87656247Y-65508571D01*
X87656247Y-65508571D02*
X87894342Y-65508571D01*
X87894342Y-65508571D02*
X87989580Y-65556190D01*
X87989580Y-65556190D02*
X88037200Y-65603809D01*
X88037200Y-65603809D02*
X88084819Y-65699047D01*
X88084819Y-65699047D02*
X88084819Y-65937142D01*
X88084819Y-65937142D02*
X88037200Y-66032380D01*
X88037200Y-66032380D02*
X87989580Y-66079999D01*
D11*
%TO.C,U2*%
X97640000Y-57090000D02*
X97640000Y-77530000D01*
X97640000Y-77530000D02*
X102940000Y-77530000D01*
X99290000Y-57090000D02*
X97640000Y-57090000D01*
X102940000Y-57090000D02*
X101290000Y-57090000D01*
X102940000Y-77530000D02*
X102940000Y-57090000D01*
X101290000Y-57090000D02*
G75*
G02*
X99290000Y-57090000I-1000000J0D01*
G01*
%TO.C,U3*%
X73535000Y-57090000D02*
X73535000Y-77530000D01*
X73535000Y-77530000D02*
X78835000Y-77530000D01*
X75185000Y-57090000D02*
X73535000Y-57090000D01*
X78835000Y-57090000D02*
X77185000Y-57090000D01*
X78835000Y-77530000D02*
X78835000Y-57090000D01*
X77185000Y-57090000D02*
G75*
G02*
X75185000Y-57090000I-1000000J0D01*
G01*
%TO.C,U1*%
X84980000Y-57090000D02*
X84980000Y-82610000D01*
X84980000Y-82610000D02*
X90280000Y-82610000D01*
X86630000Y-57090000D02*
X84980000Y-57090000D01*
X90280000Y-57090000D02*
X88630000Y-57090000D01*
X90280000Y-82610000D02*
X90280000Y-57090000D01*
X88630000Y-57090000D02*
G75*
G02*
X86630000Y-57090000I-1000000J0D01*
G01*
%TD*%
%LPC*%
D12*
%TO.C,U2*%
X104140000Y-58420000D03*
D13*
X104140000Y-60960000D03*
X104140000Y-63500000D03*
X104140000Y-66040000D03*
X104140000Y-68580000D03*
X104140000Y-71120000D03*
X104140000Y-73660000D03*
X104140000Y-76200000D03*
X96520000Y-76200000D03*
X96520000Y-73660000D03*
X96520000Y-71120000D03*
X96520000Y-68580000D03*
X96520000Y-66040000D03*
X96520000Y-63500000D03*
X96520000Y-60960000D03*
X96520000Y-58420000D03*
%TD*%
D12*
%TO.C,U3*%
X80010000Y-58420000D03*
D13*
X80010000Y-60960000D03*
X80010000Y-63500000D03*
X80010000Y-66040000D03*
X80010000Y-68580000D03*
X80010000Y-71120000D03*
X80010000Y-73660000D03*
X80010000Y-76200000D03*
X72390000Y-76200000D03*
X72390000Y-73660000D03*
X72390000Y-71120000D03*
X72390000Y-68580000D03*
X72390000Y-66040000D03*
X72390000Y-63500000D03*
X72390000Y-60960000D03*
X72390000Y-58420000D03*
%TD*%
D12*
%TO.C,U1*%
X83820000Y-58420000D03*
D13*
X83820000Y-60960000D03*
X83820000Y-63500000D03*
X83820000Y-66040000D03*
X83820000Y-68580000D03*
X83820000Y-71120000D03*
X83820000Y-73660000D03*
X83820000Y-76200000D03*
X83820000Y-78740000D03*
X83820000Y-81280000D03*
X91440000Y-81280000D03*
X91440000Y-78740000D03*
X91440000Y-76200000D03*
X91440000Y-73660000D03*
X91440000Y-71120000D03*
X91440000Y-68580000D03*
X91440000Y-66040000D03*
X91440000Y-63500000D03*
X91440000Y-60960000D03*
X91440000Y-58420000D03*
%TD*%
%LPD*%
M02*
