M48
; DRILL file {KiCad 8.0.4} date 2024-08-17T03:45:06-0400
; FORMAT={-:-/ absolute / inch / decimal}
; #@! TF.CreationDate,2024-08-17T03:45:06-04:00
; #@! TF.GenerationSoftware,Kicad,Pcbnew,8.0.4
; #@! TF.FileFunction,Plated,1,2,PTH
FMAT,2
INCH
; #@! TA.AperFunction,Plated,PTH,ComponentDrill
T1C0.0315
%
G90
G05
T1
X2.85Y-2.3
X2.85Y-2.4
X2.85Y-2.5
X2.85Y-2.6
X2.85Y-2.7
X2.85Y-2.8
X2.85Y-2.9
X2.85Y-3.0
X3.15Y-2.3
X3.15Y-2.4
X3.15Y-2.5
X3.15Y-2.6
X3.15Y-2.7
X3.15Y-2.8
X3.15Y-2.9
X3.15Y-3.0
X3.3Y-2.3
X3.3Y-2.4
X3.3Y-2.5
X3.3Y-2.6
X3.3Y-2.7
X3.3Y-2.8
X3.3Y-2.9
X3.3Y-3.0
X3.3Y-3.1
X3.3Y-3.2
X3.6Y-2.3
X3.6Y-2.4
X3.6Y-2.5
X3.6Y-2.6
X3.6Y-2.7
X3.6Y-2.8
X3.6Y-2.9
X3.6Y-3.0
X3.6Y-3.1
X3.6Y-3.2
X3.8Y-2.3
X3.8Y-2.4
X3.8Y-2.5
X3.8Y-2.6
X3.8Y-2.7
X3.8Y-2.8
X3.8Y-2.9
X3.8Y-3.0
X4.1Y-2.3
X4.1Y-2.4
X4.1Y-2.5
X4.1Y-2.6
X4.1Y-2.7
X4.1Y-2.8
X4.1Y-2.9
X4.1Y-3.0
M30
