%TF.GenerationSoftware,KiCad,Pcbnew,8.0.4*%
%TF.CreationDate,2024-08-17T03:45:06-04:00*%
%TF.ProjectId,8216 substitute,38323136-2073-4756-9273-746974757465,rev?*%
%TF.SameCoordinates,Original*%
%TF.FileFunction,Legend,Bot*%
%TF.FilePolarity,Positive*%
%FSLAX46Y46*%
G04 Gerber Fmt 4.6, Leading zero omitted, Abs format (unit mm)*
G04 Created by KiCad (PCBNEW 8.0.4) date 2024-08-17 03:45:06*
%MOMM*%
%LPD*%
G01*
G04 APERTURE LIST*
%ADD10C,0.150000*%
%ADD11C,0.000000*%
%ADD12R,1.600000X1.600000*%
%ADD13O,1.600000X1.600000*%
G04 APERTURE END LIST*
D10*
X88084819Y-62995350D02*
X87561009Y-62995350D01*
X87561009Y-62995350D02*
X87465771Y-62947731D01*
X87465771Y-62947731D02*
X87418152Y-62852493D01*
X87418152Y-62852493D02*
X87418152Y-62662017D01*
X87418152Y-62662017D02*
X87465771Y-62566779D01*
X88037200Y-62995350D02*
X88084819Y-62900112D01*
X88084819Y-62900112D02*
X88084819Y-62662017D01*
X88084819Y-62662017D02*
X88037200Y-62566779D01*
X88037200Y-62566779D02*
X87941961Y-62519160D01*
X87941961Y-62519160D02*
X87846723Y-62519160D01*
X87846723Y-62519160D02*
X87751485Y-62566779D01*
X87751485Y-62566779D02*
X87703866Y-62662017D01*
X87703866Y-62662017D02*
X87703866Y-62900112D01*
X87703866Y-62900112D02*
X87656247Y-62995350D01*
X88084819Y-63471541D02*
X87084819Y-63471541D01*
X87465771Y-63471541D02*
X87418152Y-63566779D01*
X87418152Y-63566779D02*
X87418152Y-63757255D01*
X87418152Y-63757255D02*
X87465771Y-63852493D01*
X87465771Y-63852493D02*
X87513390Y-63900112D01*
X87513390Y-63900112D02*
X87608628Y-63947731D01*
X87608628Y-63947731D02*
X87894342Y-63947731D01*
X87894342Y-63947731D02*
X87989580Y-63900112D01*
X87989580Y-63900112D02*
X88037200Y-63852493D01*
X88037200Y-63852493D02*
X88084819Y-63757255D01*
X88084819Y-63757255D02*
X88084819Y-63566779D01*
X88084819Y-63566779D02*
X88037200Y-63471541D01*
X87418152Y-64281065D02*
X87418152Y-64804874D01*
X87418152Y-64804874D02*
X88084819Y-64281065D01*
X88084819Y-64281065D02*
X88084819Y-64804874D01*
X88084819Y-65185827D02*
X87418152Y-65185827D01*
X87513390Y-65185827D02*
X87465771Y-65233446D01*
X87465771Y-65233446D02*
X87418152Y-65328684D01*
X87418152Y-65328684D02*
X87418152Y-65471541D01*
X87418152Y-65471541D02*
X87465771Y-65566779D01*
X87465771Y-65566779D02*
X87561009Y-65614398D01*
X87561009Y-65614398D02*
X88084819Y-65614398D01*
X87561009Y-65614398D02*
X87465771Y-65662017D01*
X87465771Y-65662017D02*
X87418152Y-65757255D01*
X87418152Y-65757255D02*
X87418152Y-65900112D01*
X87418152Y-65900112D02*
X87465771Y-65995351D01*
X87465771Y-65995351D02*
X87561009Y-66042970D01*
X87561009Y-66042970D02*
X88084819Y-66042970D01*
X88084819Y-66947731D02*
X87561009Y-66947731D01*
X87561009Y-66947731D02*
X87465771Y-66900112D01*
X87465771Y-66900112D02*
X87418152Y-66804874D01*
X87418152Y-66804874D02*
X87418152Y-66614398D01*
X87418152Y-66614398D02*
X87465771Y-66519160D01*
X88037200Y-66947731D02*
X88084819Y-66852493D01*
X88084819Y-66852493D02*
X88084819Y-66614398D01*
X88084819Y-66614398D02*
X88037200Y-66519160D01*
X88037200Y-66519160D02*
X87941961Y-66471541D01*
X87941961Y-66471541D02*
X87846723Y-66471541D01*
X87846723Y-66471541D02*
X87751485Y-66519160D01*
X87751485Y-66519160D02*
X87703866Y-66614398D01*
X87703866Y-66614398D02*
X87703866Y-66852493D01*
X87703866Y-66852493D02*
X87656247Y-66947731D01*
X87418152Y-67423922D02*
X88084819Y-67423922D01*
X87513390Y-67423922D02*
X87465771Y-67471541D01*
X87465771Y-67471541D02*
X87418152Y-67566779D01*
X87418152Y-67566779D02*
X87418152Y-67709636D01*
X87418152Y-67709636D02*
X87465771Y-67804874D01*
X87465771Y-67804874D02*
X87561009Y-67852493D01*
X87561009Y-67852493D02*
X88084819Y-67852493D01*
X87180057Y-68281065D02*
X87132438Y-68328684D01*
X87132438Y-68328684D02*
X87084819Y-68423922D01*
X87084819Y-68423922D02*
X87084819Y-68662017D01*
X87084819Y-68662017D02*
X87132438Y-68757255D01*
X87132438Y-68757255D02*
X87180057Y-68804874D01*
X87180057Y-68804874D02*
X87275295Y-68852493D01*
X87275295Y-68852493D02*
X87370533Y-68852493D01*
X87370533Y-68852493D02*
X87513390Y-68804874D01*
X87513390Y-68804874D02*
X88084819Y-68233446D01*
X88084819Y-68233446D02*
X88084819Y-68852493D01*
X88084819Y-69281065D02*
X87084819Y-69281065D01*
X87703866Y-69376303D02*
X88084819Y-69662017D01*
X87418152Y-69662017D02*
X87799104Y-69281065D01*
X87989580Y-70090589D02*
X88037200Y-70138208D01*
X88037200Y-70138208D02*
X88084819Y-70090589D01*
X88084819Y-70090589D02*
X88037200Y-70042970D01*
X88037200Y-70042970D02*
X87989580Y-70090589D01*
X87989580Y-70090589D02*
X88084819Y-70090589D01*
X87418152Y-70471541D02*
X88084819Y-70662017D01*
X88084819Y-70662017D02*
X87608628Y-70852493D01*
X87608628Y-70852493D02*
X88084819Y-71042969D01*
X88084819Y-71042969D02*
X87418152Y-71233445D01*
X88084819Y-71757255D02*
X88037200Y-71662017D01*
X88037200Y-71662017D02*
X87989580Y-71614398D01*
X87989580Y-71614398D02*
X87894342Y-71566779D01*
X87894342Y-71566779D02*
X87608628Y-71566779D01*
X87608628Y-71566779D02*
X87513390Y-71614398D01*
X87513390Y-71614398D02*
X87465771Y-71662017D01*
X87465771Y-71662017D02*
X87418152Y-71757255D01*
X87418152Y-71757255D02*
X87418152Y-71900112D01*
X87418152Y-71900112D02*
X87465771Y-71995350D01*
X87465771Y-71995350D02*
X87513390Y-72042969D01*
X87513390Y-72042969D02*
X87608628Y-72090588D01*
X87608628Y-72090588D02*
X87894342Y-72090588D01*
X87894342Y-72090588D02*
X87989580Y-72042969D01*
X87989580Y-72042969D02*
X88037200Y-71995350D01*
X88037200Y-71995350D02*
X88084819Y-71900112D01*
X88084819Y-71900112D02*
X88084819Y-71757255D01*
X88084819Y-72519160D02*
X87418152Y-72519160D01*
X87608628Y-72519160D02*
X87513390Y-72566779D01*
X87513390Y-72566779D02*
X87465771Y-72614398D01*
X87465771Y-72614398D02*
X87418152Y-72709636D01*
X87418152Y-72709636D02*
X87418152Y-72804874D01*
X88084819Y-73566779D02*
X87084819Y-73566779D01*
X88037200Y-73566779D02*
X88084819Y-73471541D01*
X88084819Y-73471541D02*
X88084819Y-73281065D01*
X88084819Y-73281065D02*
X88037200Y-73185827D01*
X88037200Y-73185827D02*
X87989580Y-73138208D01*
X87989580Y-73138208D02*
X87894342Y-73090589D01*
X87894342Y-73090589D02*
X87608628Y-73090589D01*
X87608628Y-73090589D02*
X87513390Y-73138208D01*
X87513390Y-73138208D02*
X87465771Y-73185827D01*
X87465771Y-73185827D02*
X87418152Y-73281065D01*
X87418152Y-73281065D02*
X87418152Y-73471541D01*
X87418152Y-73471541D02*
X87465771Y-73566779D01*
X87418152Y-74042970D02*
X88418152Y-74042970D01*
X87465771Y-74042970D02*
X87418152Y-74138208D01*
X87418152Y-74138208D02*
X87418152Y-74328684D01*
X87418152Y-74328684D02*
X87465771Y-74423922D01*
X87465771Y-74423922D02*
X87513390Y-74471541D01*
X87513390Y-74471541D02*
X87608628Y-74519160D01*
X87608628Y-74519160D02*
X87894342Y-74519160D01*
X87894342Y-74519160D02*
X87989580Y-74471541D01*
X87989580Y-74471541D02*
X88037200Y-74423922D01*
X88037200Y-74423922D02*
X88084819Y-74328684D01*
X88084819Y-74328684D02*
X88084819Y-74138208D01*
X88084819Y-74138208D02*
X88037200Y-74042970D01*
X88084819Y-74947732D02*
X87418152Y-74947732D01*
X87608628Y-74947732D02*
X87513390Y-74995351D01*
X87513390Y-74995351D02*
X87465771Y-75042970D01*
X87465771Y-75042970D02*
X87418152Y-75138208D01*
X87418152Y-75138208D02*
X87418152Y-75233446D01*
X88037200Y-75947732D02*
X88084819Y-75852494D01*
X88084819Y-75852494D02*
X88084819Y-75662018D01*
X88084819Y-75662018D02*
X88037200Y-75566780D01*
X88037200Y-75566780D02*
X87941961Y-75519161D01*
X87941961Y-75519161D02*
X87561009Y-75519161D01*
X87561009Y-75519161D02*
X87465771Y-75566780D01*
X87465771Y-75566780D02*
X87418152Y-75662018D01*
X87418152Y-75662018D02*
X87418152Y-75852494D01*
X87418152Y-75852494D02*
X87465771Y-75947732D01*
X87465771Y-75947732D02*
X87561009Y-75995351D01*
X87561009Y-75995351D02*
X87656247Y-75995351D01*
X87656247Y-75995351D02*
X87751485Y-75519161D01*
X88037200Y-76376304D02*
X88084819Y-76471542D01*
X88084819Y-76471542D02*
X88084819Y-76662018D01*
X88084819Y-76662018D02*
X88037200Y-76757256D01*
X88037200Y-76757256D02*
X87941961Y-76804875D01*
X87941961Y-76804875D02*
X87894342Y-76804875D01*
X87894342Y-76804875D02*
X87799104Y-76757256D01*
X87799104Y-76757256D02*
X87751485Y-76662018D01*
X87751485Y-76662018D02*
X87751485Y-76519161D01*
X87751485Y-76519161D02*
X87703866Y-76423923D01*
X87703866Y-76423923D02*
X87608628Y-76376304D01*
X87608628Y-76376304D02*
X87561009Y-76376304D01*
X87561009Y-76376304D02*
X87465771Y-76423923D01*
X87465771Y-76423923D02*
X87418152Y-76519161D01*
X87418152Y-76519161D02*
X87418152Y-76662018D01*
X87418152Y-76662018D02*
X87465771Y-76757256D01*
X88037200Y-77185828D02*
X88084819Y-77281066D01*
X88084819Y-77281066D02*
X88084819Y-77471542D01*
X88084819Y-77471542D02*
X88037200Y-77566780D01*
X88037200Y-77566780D02*
X87941961Y-77614399D01*
X87941961Y-77614399D02*
X87894342Y-77614399D01*
X87894342Y-77614399D02*
X87799104Y-77566780D01*
X87799104Y-77566780D02*
X87751485Y-77471542D01*
X87751485Y-77471542D02*
X87751485Y-77328685D01*
X87751485Y-77328685D02*
X87703866Y-77233447D01*
X87703866Y-77233447D02*
X87608628Y-77185828D01*
X87608628Y-77185828D02*
X87561009Y-77185828D01*
X87561009Y-77185828D02*
X87465771Y-77233447D01*
X87465771Y-77233447D02*
X87418152Y-77328685D01*
X87418152Y-77328685D02*
X87418152Y-77471542D01*
X87418152Y-77471542D02*
X87465771Y-77566780D01*
X87989580Y-78042971D02*
X88037200Y-78090590D01*
X88037200Y-78090590D02*
X88084819Y-78042971D01*
X88084819Y-78042971D02*
X88037200Y-77995352D01*
X88037200Y-77995352D02*
X87989580Y-78042971D01*
X87989580Y-78042971D02*
X88084819Y-78042971D01*
X88037200Y-78947732D02*
X88084819Y-78852494D01*
X88084819Y-78852494D02*
X88084819Y-78662018D01*
X88084819Y-78662018D02*
X88037200Y-78566780D01*
X88037200Y-78566780D02*
X87989580Y-78519161D01*
X87989580Y-78519161D02*
X87894342Y-78471542D01*
X87894342Y-78471542D02*
X87608628Y-78471542D01*
X87608628Y-78471542D02*
X87513390Y-78519161D01*
X87513390Y-78519161D02*
X87465771Y-78566780D01*
X87465771Y-78566780D02*
X87418152Y-78662018D01*
X87418152Y-78662018D02*
X87418152Y-78852494D01*
X87418152Y-78852494D02*
X87465771Y-78947732D01*
X88084819Y-79519161D02*
X88037200Y-79423923D01*
X88037200Y-79423923D02*
X87989580Y-79376304D01*
X87989580Y-79376304D02*
X87894342Y-79328685D01*
X87894342Y-79328685D02*
X87608628Y-79328685D01*
X87608628Y-79328685D02*
X87513390Y-79376304D01*
X87513390Y-79376304D02*
X87465771Y-79423923D01*
X87465771Y-79423923D02*
X87418152Y-79519161D01*
X87418152Y-79519161D02*
X87418152Y-79662018D01*
X87418152Y-79662018D02*
X87465771Y-79757256D01*
X87465771Y-79757256D02*
X87513390Y-79804875D01*
X87513390Y-79804875D02*
X87608628Y-79852494D01*
X87608628Y-79852494D02*
X87894342Y-79852494D01*
X87894342Y-79852494D02*
X87989580Y-79804875D01*
X87989580Y-79804875D02*
X88037200Y-79757256D01*
X88037200Y-79757256D02*
X88084819Y-79662018D01*
X88084819Y-79662018D02*
X88084819Y-79519161D01*
X88084819Y-80281066D02*
X87418152Y-80281066D01*
X87513390Y-80281066D02*
X87465771Y-80328685D01*
X87465771Y-80328685D02*
X87418152Y-80423923D01*
X87418152Y-80423923D02*
X87418152Y-80566780D01*
X87418152Y-80566780D02*
X87465771Y-80662018D01*
X87465771Y-80662018D02*
X87561009Y-80709637D01*
X87561009Y-80709637D02*
X88084819Y-80709637D01*
X87561009Y-80709637D02*
X87465771Y-80757256D01*
X87465771Y-80757256D02*
X87418152Y-80852494D01*
X87418152Y-80852494D02*
X87418152Y-80995351D01*
X87418152Y-80995351D02*
X87465771Y-81090590D01*
X87465771Y-81090590D02*
X87561009Y-81138209D01*
X87561009Y-81138209D02*
X88084819Y-81138209D01*
X76069819Y-58756779D02*
X75069819Y-58756779D01*
X75069819Y-58756779D02*
X75784104Y-59090112D01*
X75784104Y-59090112D02*
X75069819Y-59423445D01*
X75069819Y-59423445D02*
X76069819Y-59423445D01*
X75498390Y-60042493D02*
X75450771Y-59947255D01*
X75450771Y-59947255D02*
X75403152Y-59899636D01*
X75403152Y-59899636D02*
X75307914Y-59852017D01*
X75307914Y-59852017D02*
X75260295Y-59852017D01*
X75260295Y-59852017D02*
X75165057Y-59899636D01*
X75165057Y-59899636D02*
X75117438Y-59947255D01*
X75117438Y-59947255D02*
X75069819Y-60042493D01*
X75069819Y-60042493D02*
X75069819Y-60232969D01*
X75069819Y-60232969D02*
X75117438Y-60328207D01*
X75117438Y-60328207D02*
X75165057Y-60375826D01*
X75165057Y-60375826D02*
X75260295Y-60423445D01*
X75260295Y-60423445D02*
X75307914Y-60423445D01*
X75307914Y-60423445D02*
X75403152Y-60375826D01*
X75403152Y-60375826D02*
X75450771Y-60328207D01*
X75450771Y-60328207D02*
X75498390Y-60232969D01*
X75498390Y-60232969D02*
X75498390Y-60042493D01*
X75498390Y-60042493D02*
X75546009Y-59947255D01*
X75546009Y-59947255D02*
X75593628Y-59899636D01*
X75593628Y-59899636D02*
X75688866Y-59852017D01*
X75688866Y-59852017D02*
X75879342Y-59852017D01*
X75879342Y-59852017D02*
X75974580Y-59899636D01*
X75974580Y-59899636D02*
X76022200Y-59947255D01*
X76022200Y-59947255D02*
X76069819Y-60042493D01*
X76069819Y-60042493D02*
X76069819Y-60232969D01*
X76069819Y-60232969D02*
X76022200Y-60328207D01*
X76022200Y-60328207D02*
X75974580Y-60375826D01*
X75974580Y-60375826D02*
X75879342Y-60423445D01*
X75879342Y-60423445D02*
X75688866Y-60423445D01*
X75688866Y-60423445D02*
X75593628Y-60375826D01*
X75593628Y-60375826D02*
X75546009Y-60328207D01*
X75546009Y-60328207D02*
X75498390Y-60232969D01*
X75165057Y-60804398D02*
X75117438Y-60852017D01*
X75117438Y-60852017D02*
X75069819Y-60947255D01*
X75069819Y-60947255D02*
X75069819Y-61185350D01*
X75069819Y-61185350D02*
X75117438Y-61280588D01*
X75117438Y-61280588D02*
X75165057Y-61328207D01*
X75165057Y-61328207D02*
X75260295Y-61375826D01*
X75260295Y-61375826D02*
X75355533Y-61375826D01*
X75355533Y-61375826D02*
X75498390Y-61328207D01*
X75498390Y-61328207D02*
X76069819Y-60756779D01*
X76069819Y-60756779D02*
X76069819Y-61375826D01*
X76069819Y-62328207D02*
X76069819Y-61756779D01*
X76069819Y-62042493D02*
X75069819Y-62042493D01*
X75069819Y-62042493D02*
X75212676Y-61947255D01*
X75212676Y-61947255D02*
X75307914Y-61852017D01*
X75307914Y-61852017D02*
X75355533Y-61756779D01*
X75069819Y-63185350D02*
X75069819Y-62994874D01*
X75069819Y-62994874D02*
X75117438Y-62899636D01*
X75117438Y-62899636D02*
X75165057Y-62852017D01*
X75165057Y-62852017D02*
X75307914Y-62756779D01*
X75307914Y-62756779D02*
X75498390Y-62709160D01*
X75498390Y-62709160D02*
X75879342Y-62709160D01*
X75879342Y-62709160D02*
X75974580Y-62756779D01*
X75974580Y-62756779D02*
X76022200Y-62804398D01*
X76022200Y-62804398D02*
X76069819Y-62899636D01*
X76069819Y-62899636D02*
X76069819Y-63090112D01*
X76069819Y-63090112D02*
X76022200Y-63185350D01*
X76022200Y-63185350D02*
X75974580Y-63232969D01*
X75974580Y-63232969D02*
X75879342Y-63280588D01*
X75879342Y-63280588D02*
X75641247Y-63280588D01*
X75641247Y-63280588D02*
X75546009Y-63232969D01*
X75546009Y-63232969D02*
X75498390Y-63185350D01*
X75498390Y-63185350D02*
X75450771Y-63090112D01*
X75450771Y-63090112D02*
X75450771Y-62899636D01*
X75450771Y-62899636D02*
X75498390Y-62804398D01*
X75498390Y-62804398D02*
X75546009Y-62756779D01*
X75546009Y-62756779D02*
X75641247Y-62709160D01*
X76022200Y-64899636D02*
X76069819Y-64804398D01*
X76069819Y-64804398D02*
X76069819Y-64613922D01*
X76069819Y-64613922D02*
X76022200Y-64518684D01*
X76022200Y-64518684D02*
X75974580Y-64471065D01*
X75974580Y-64471065D02*
X75879342Y-64423446D01*
X75879342Y-64423446D02*
X75593628Y-64423446D01*
X75593628Y-64423446D02*
X75498390Y-64471065D01*
X75498390Y-64471065D02*
X75450771Y-64518684D01*
X75450771Y-64518684D02*
X75403152Y-64613922D01*
X75403152Y-64613922D02*
X75403152Y-64804398D01*
X75403152Y-64804398D02*
X75450771Y-64899636D01*
X76069819Y-65328208D02*
X75069819Y-65328208D01*
X76069819Y-65756779D02*
X75546009Y-65756779D01*
X75546009Y-65756779D02*
X75450771Y-65709160D01*
X75450771Y-65709160D02*
X75403152Y-65613922D01*
X75403152Y-65613922D02*
X75403152Y-65471065D01*
X75403152Y-65471065D02*
X75450771Y-65375827D01*
X75450771Y-65375827D02*
X75498390Y-65328208D01*
X76069819Y-66232970D02*
X75403152Y-66232970D01*
X75069819Y-66232970D02*
X75117438Y-66185351D01*
X75117438Y-66185351D02*
X75165057Y-66232970D01*
X75165057Y-66232970D02*
X75117438Y-66280589D01*
X75117438Y-66280589D02*
X75069819Y-66232970D01*
X75069819Y-66232970D02*
X75165057Y-66232970D01*
X75403152Y-66709160D02*
X76403152Y-66709160D01*
X75450771Y-66709160D02*
X75403152Y-66804398D01*
X75403152Y-66804398D02*
X75403152Y-66994874D01*
X75403152Y-66994874D02*
X75450771Y-67090112D01*
X75450771Y-67090112D02*
X75498390Y-67137731D01*
X75498390Y-67137731D02*
X75593628Y-67185350D01*
X75593628Y-67185350D02*
X75879342Y-67185350D01*
X75879342Y-67185350D02*
X75974580Y-67137731D01*
X75974580Y-67137731D02*
X76022200Y-67090112D01*
X76022200Y-67090112D02*
X76069819Y-66994874D01*
X76069819Y-66994874D02*
X76069819Y-66804398D01*
X76069819Y-66804398D02*
X76022200Y-66709160D01*
X76069819Y-68375827D02*
X75403152Y-68375827D01*
X75593628Y-68375827D02*
X75498390Y-68423446D01*
X75498390Y-68423446D02*
X75450771Y-68471065D01*
X75450771Y-68471065D02*
X75403152Y-68566303D01*
X75403152Y-68566303D02*
X75403152Y-68661541D01*
X76022200Y-69375827D02*
X76069819Y-69280589D01*
X76069819Y-69280589D02*
X76069819Y-69090113D01*
X76069819Y-69090113D02*
X76022200Y-68994875D01*
X76022200Y-68994875D02*
X75926961Y-68947256D01*
X75926961Y-68947256D02*
X75546009Y-68947256D01*
X75546009Y-68947256D02*
X75450771Y-68994875D01*
X75450771Y-68994875D02*
X75403152Y-69090113D01*
X75403152Y-69090113D02*
X75403152Y-69280589D01*
X75403152Y-69280589D02*
X75450771Y-69375827D01*
X75450771Y-69375827D02*
X75546009Y-69423446D01*
X75546009Y-69423446D02*
X75641247Y-69423446D01*
X75641247Y-69423446D02*
X75736485Y-68947256D01*
X75403152Y-69852018D02*
X76403152Y-69852018D01*
X75450771Y-69852018D02*
X75403152Y-69947256D01*
X75403152Y-69947256D02*
X75403152Y-70137732D01*
X75403152Y-70137732D02*
X75450771Y-70232970D01*
X75450771Y-70232970D02*
X75498390Y-70280589D01*
X75498390Y-70280589D02*
X75593628Y-70328208D01*
X75593628Y-70328208D02*
X75879342Y-70328208D01*
X75879342Y-70328208D02*
X75974580Y-70280589D01*
X75974580Y-70280589D02*
X76022200Y-70232970D01*
X76022200Y-70232970D02*
X76069819Y-70137732D01*
X76069819Y-70137732D02*
X76069819Y-69947256D01*
X76069819Y-69947256D02*
X76022200Y-69852018D01*
X76069819Y-70899637D02*
X76022200Y-70804399D01*
X76022200Y-70804399D02*
X75926961Y-70756780D01*
X75926961Y-70756780D02*
X75069819Y-70756780D01*
X76069819Y-71709161D02*
X75546009Y-71709161D01*
X75546009Y-71709161D02*
X75450771Y-71661542D01*
X75450771Y-71661542D02*
X75403152Y-71566304D01*
X75403152Y-71566304D02*
X75403152Y-71375828D01*
X75403152Y-71375828D02*
X75450771Y-71280590D01*
X76022200Y-71709161D02*
X76069819Y-71613923D01*
X76069819Y-71613923D02*
X76069819Y-71375828D01*
X76069819Y-71375828D02*
X76022200Y-71280590D01*
X76022200Y-71280590D02*
X75926961Y-71232971D01*
X75926961Y-71232971D02*
X75831723Y-71232971D01*
X75831723Y-71232971D02*
X75736485Y-71280590D01*
X75736485Y-71280590D02*
X75688866Y-71375828D01*
X75688866Y-71375828D02*
X75688866Y-71613923D01*
X75688866Y-71613923D02*
X75641247Y-71709161D01*
X76022200Y-72613923D02*
X76069819Y-72518685D01*
X76069819Y-72518685D02*
X76069819Y-72328209D01*
X76069819Y-72328209D02*
X76022200Y-72232971D01*
X76022200Y-72232971D02*
X75974580Y-72185352D01*
X75974580Y-72185352D02*
X75879342Y-72137733D01*
X75879342Y-72137733D02*
X75593628Y-72137733D01*
X75593628Y-72137733D02*
X75498390Y-72185352D01*
X75498390Y-72185352D02*
X75450771Y-72232971D01*
X75450771Y-72232971D02*
X75403152Y-72328209D01*
X75403152Y-72328209D02*
X75403152Y-72518685D01*
X75403152Y-72518685D02*
X75450771Y-72613923D01*
X76022200Y-73423447D02*
X76069819Y-73328209D01*
X76069819Y-73328209D02*
X76069819Y-73137733D01*
X76069819Y-73137733D02*
X76022200Y-73042495D01*
X76022200Y-73042495D02*
X75926961Y-72994876D01*
X75926961Y-72994876D02*
X75546009Y-72994876D01*
X75546009Y-72994876D02*
X75450771Y-73042495D01*
X75450771Y-73042495D02*
X75403152Y-73137733D01*
X75403152Y-73137733D02*
X75403152Y-73328209D01*
X75403152Y-73328209D02*
X75450771Y-73423447D01*
X75450771Y-73423447D02*
X75546009Y-73471066D01*
X75546009Y-73471066D02*
X75641247Y-73471066D01*
X75641247Y-73471066D02*
X75736485Y-72994876D01*
X76069819Y-73899638D02*
X75403152Y-73899638D01*
X75498390Y-73899638D02*
X75450771Y-73947257D01*
X75450771Y-73947257D02*
X75403152Y-74042495D01*
X75403152Y-74042495D02*
X75403152Y-74185352D01*
X75403152Y-74185352D02*
X75450771Y-74280590D01*
X75450771Y-74280590D02*
X75546009Y-74328209D01*
X75546009Y-74328209D02*
X76069819Y-74328209D01*
X75546009Y-74328209D02*
X75450771Y-74375828D01*
X75450771Y-74375828D02*
X75403152Y-74471066D01*
X75403152Y-74471066D02*
X75403152Y-74613923D01*
X75403152Y-74613923D02*
X75450771Y-74709162D01*
X75450771Y-74709162D02*
X75546009Y-74756781D01*
X75546009Y-74756781D02*
X76069819Y-74756781D01*
X76022200Y-75613923D02*
X76069819Y-75518685D01*
X76069819Y-75518685D02*
X76069819Y-75328209D01*
X76069819Y-75328209D02*
X76022200Y-75232971D01*
X76022200Y-75232971D02*
X75926961Y-75185352D01*
X75926961Y-75185352D02*
X75546009Y-75185352D01*
X75546009Y-75185352D02*
X75450771Y-75232971D01*
X75450771Y-75232971D02*
X75403152Y-75328209D01*
X75403152Y-75328209D02*
X75403152Y-75518685D01*
X75403152Y-75518685D02*
X75450771Y-75613923D01*
X75450771Y-75613923D02*
X75546009Y-75661542D01*
X75546009Y-75661542D02*
X75641247Y-75661542D01*
X75641247Y-75661542D02*
X75736485Y-75185352D01*
X75403152Y-76090114D02*
X76069819Y-76090114D01*
X75498390Y-76090114D02*
X75450771Y-76137733D01*
X75450771Y-76137733D02*
X75403152Y-76232971D01*
X75403152Y-76232971D02*
X75403152Y-76375828D01*
X75403152Y-76375828D02*
X75450771Y-76471066D01*
X75450771Y-76471066D02*
X75546009Y-76518685D01*
X75546009Y-76518685D02*
X76069819Y-76518685D01*
X75403152Y-76852019D02*
X75403152Y-77232971D01*
X75069819Y-76994876D02*
X75926961Y-76994876D01*
X75926961Y-76994876D02*
X76022200Y-77042495D01*
X76022200Y-77042495D02*
X76069819Y-77137733D01*
X76069819Y-77137733D02*
X76069819Y-77232971D01*
D11*
%TO.C,REF\u002A\u002A*%
G36*
X102974142Y-68493453D02*
G01*
X102810039Y-68493463D01*
X102777224Y-68493496D01*
X102733535Y-68493717D01*
X102699778Y-68494228D01*
X102674369Y-68495122D01*
X102655722Y-68496493D01*
X102642252Y-68498435D01*
X102632373Y-68501040D01*
X102624500Y-68504403D01*
X102609068Y-68514311D01*
X102588070Y-68538045D01*
X102576531Y-68567037D01*
X102575303Y-68598559D01*
X102585240Y-68629886D01*
X102597999Y-68654364D01*
X102554124Y-68690459D01*
X102553175Y-68691238D01*
X102531770Y-68708207D01*
X102517657Y-68717648D01*
X102509061Y-68720535D01*
X102504204Y-68717843D01*
X102485357Y-68681815D01*
X102475169Y-68639208D01*
X102475578Y-68595481D01*
X102486534Y-68553298D01*
X102507988Y-68515321D01*
X102524667Y-68493453D01*
X102480270Y-68493453D01*
X102480270Y-68393429D01*
X102974142Y-68393429D01*
X102974142Y-68493453D01*
G37*
G36*
X102974142Y-66486710D02*
G01*
X102812926Y-66486710D01*
X102791611Y-66486715D01*
X102746913Y-66486815D01*
X102712357Y-66487138D01*
X102686261Y-66487809D01*
X102666943Y-66488955D01*
X102652721Y-66490699D01*
X102641914Y-66493167D01*
X102632840Y-66496484D01*
X102623817Y-66500776D01*
X102603585Y-66514754D01*
X102584586Y-66539369D01*
X102574808Y-66568497D01*
X102575101Y-66599231D01*
X102586317Y-66628668D01*
X102598544Y-66648722D01*
X102556803Y-66683369D01*
X102548894Y-66689857D01*
X102530578Y-66704262D01*
X102516734Y-66714268D01*
X102509881Y-66718017D01*
X102506149Y-66714795D01*
X102498475Y-66702879D01*
X102489421Y-66685196D01*
X102483862Y-66671762D01*
X102474366Y-66629478D01*
X102475743Y-66586970D01*
X102487687Y-66546835D01*
X102509893Y-66511668D01*
X102531257Y-66486710D01*
X102480270Y-66486710D01*
X102480270Y-66386685D01*
X102974142Y-66386685D01*
X102974142Y-66486710D01*
G37*
G36*
X102191389Y-68563783D02*
G01*
X102189574Y-68615358D01*
X102017656Y-68618484D01*
X101991202Y-68618971D01*
X101943142Y-68619988D01*
X101905390Y-68621216D01*
X101876452Y-68622949D01*
X101854833Y-68625478D01*
X101839041Y-68629098D01*
X101827579Y-68634101D01*
X101818956Y-68640780D01*
X101811676Y-68649428D01*
X101804246Y-68660338D01*
X101797010Y-68676933D01*
X101792959Y-68704043D01*
X101794874Y-68732733D01*
X101802832Y-68757670D01*
X101813064Y-68777455D01*
X101785641Y-68801467D01*
X101774283Y-68811241D01*
X101755833Y-68826532D01*
X101741562Y-68837678D01*
X101724907Y-68849878D01*
X101712199Y-68829316D01*
X101699372Y-68801841D01*
X101691264Y-68764453D01*
X101691043Y-68725542D01*
X101698371Y-68688153D01*
X101712909Y-68655333D01*
X101734320Y-68630127D01*
X101735259Y-68629343D01*
X101739597Y-68624070D01*
X101735191Y-68620962D01*
X101720178Y-68618484D01*
X101695702Y-68615358D01*
X101693886Y-68563783D01*
X101692071Y-68512208D01*
X102193205Y-68512208D01*
X102191389Y-68563783D01*
G37*
G36*
X101880122Y-68008991D02*
G01*
X101886549Y-68008993D01*
X101938265Y-68009044D01*
X101979214Y-68009238D01*
X102010961Y-68009681D01*
X102035070Y-68010476D01*
X102053106Y-68011727D01*
X102066633Y-68013541D01*
X102077214Y-68016020D01*
X102086416Y-68019269D01*
X102095800Y-68023393D01*
X102113351Y-68032553D01*
X102149623Y-68060805D01*
X102176416Y-68096960D01*
X102193085Y-68140241D01*
X102195067Y-68149845D01*
X102196069Y-68191480D01*
X102185695Y-68233906D01*
X102164428Y-68274857D01*
X102143532Y-68305907D01*
X102192699Y-68305907D01*
X102192699Y-68405932D01*
X101692576Y-68405932D01*
X101692576Y-68305907D01*
X101853792Y-68305907D01*
X101875246Y-68305902D01*
X101919909Y-68305802D01*
X101954433Y-68305479D01*
X101980499Y-68304807D01*
X101999786Y-68303662D01*
X102013975Y-68301917D01*
X102024747Y-68299449D01*
X102033781Y-68296132D01*
X102042758Y-68291841D01*
X102051165Y-68287190D01*
X102075405Y-68266472D01*
X102089332Y-68239353D01*
X102093623Y-68204673D01*
X102093516Y-68199789D01*
X102088875Y-68171911D01*
X102075964Y-68149279D01*
X102052772Y-68128125D01*
X102049771Y-68125989D01*
X102043660Y-68122603D01*
X102035696Y-68119972D01*
X102024358Y-68117977D01*
X102008124Y-68116500D01*
X101985472Y-68115421D01*
X101954882Y-68114621D01*
X101914832Y-68113984D01*
X101863801Y-68113388D01*
X101692080Y-68111542D01*
X101693891Y-68060250D01*
X101695702Y-68008959D01*
X101880122Y-68008991D01*
G37*
G36*
X102192699Y-66467048D02*
G01*
X102025471Y-66469064D01*
X101988971Y-66469519D01*
X101946664Y-66470157D01*
X101914133Y-66470913D01*
X101889778Y-66471926D01*
X101872000Y-66473337D01*
X101859198Y-66475285D01*
X101849772Y-66477910D01*
X101842121Y-66481351D01*
X101834647Y-66485750D01*
X101830315Y-66488562D01*
X101808564Y-66508815D01*
X101796392Y-66534599D01*
X101792601Y-66568267D01*
X101796543Y-66600659D01*
X101809619Y-66627029D01*
X101832520Y-66646839D01*
X101838960Y-66650196D01*
X101847533Y-66653091D01*
X101859329Y-66655367D01*
X101875894Y-66657147D01*
X101898775Y-66658552D01*
X101929519Y-66659707D01*
X101969673Y-66660733D01*
X102020782Y-66661753D01*
X102189574Y-66664878D01*
X102191397Y-66716945D01*
X102193221Y-66769011D01*
X102006977Y-66766957D01*
X102004365Y-66766928D01*
X101951513Y-66766304D01*
X101909537Y-66765655D01*
X101876882Y-66764862D01*
X101851989Y-66763809D01*
X101833302Y-66762376D01*
X101819264Y-66760447D01*
X101808319Y-66757903D01*
X101798908Y-66754628D01*
X101789475Y-66750502D01*
X101756803Y-66731964D01*
X101728962Y-66706013D01*
X101706597Y-66671130D01*
X101702890Y-66663260D01*
X101692660Y-66627600D01*
X101690350Y-66589405D01*
X101695578Y-66551996D01*
X101707961Y-66518692D01*
X101727117Y-66492813D01*
X101736278Y-66483507D01*
X101741474Y-66474009D01*
X101735407Y-66469254D01*
X101717582Y-66467955D01*
X101692576Y-66467955D01*
X101692576Y-66367930D01*
X102192699Y-66367930D01*
X102192699Y-66467048D01*
G37*
G36*
X102011403Y-65881226D02*
G01*
X102059778Y-65893365D01*
X102102508Y-65912402D01*
X102137221Y-65938367D01*
X102156727Y-65961531D01*
X102178652Y-66000610D01*
X102192493Y-66043674D01*
X102195589Y-66071465D01*
X102194544Y-66110099D01*
X102188892Y-66149738D01*
X102179154Y-66184859D01*
X102172840Y-66198831D01*
X102157785Y-66224030D01*
X102140744Y-66246015D01*
X102114555Y-66274507D01*
X102084963Y-66238646D01*
X102078272Y-66230488D01*
X102066140Y-66214742D01*
X102060620Y-66204596D01*
X102060566Y-66197279D01*
X102064830Y-66190022D01*
X102067053Y-66186954D01*
X102087370Y-66149337D01*
X102097612Y-66109465D01*
X102097417Y-66069967D01*
X102086423Y-66033472D01*
X102067809Y-66008274D01*
X102039448Y-65989020D01*
X102003590Y-65977690D01*
X101980147Y-65973517D01*
X101980147Y-66286660D01*
X101941075Y-66286613D01*
X101916708Y-66286118D01*
X101863185Y-66280672D01*
X101818372Y-66268758D01*
X101780537Y-66249806D01*
X101747943Y-66223248D01*
X101725267Y-66195875D01*
X101703822Y-66154945D01*
X101692090Y-66110606D01*
X101690310Y-66069657D01*
X101786519Y-66069657D01*
X101788272Y-66101572D01*
X101797948Y-66130314D01*
X101809431Y-66145353D01*
X101831413Y-66162825D01*
X101856957Y-66175497D01*
X101881106Y-66180384D01*
X101898877Y-66180384D01*
X101898877Y-65974396D01*
X101878559Y-65978064D01*
X101853139Y-65984954D01*
X101822375Y-66001174D01*
X101800498Y-66023457D01*
X101792572Y-66039529D01*
X101786519Y-66069657D01*
X101690310Y-66069657D01*
X101690110Y-66065065D01*
X101697921Y-66020530D01*
X101715560Y-65979210D01*
X101743066Y-65943310D01*
X101767851Y-65922956D01*
X101808879Y-65901052D01*
X101856120Y-65885898D01*
X101898877Y-65878887D01*
X101907202Y-65877522D01*
X101959753Y-65875955D01*
X102011403Y-65881226D01*
G37*
G36*
X102800241Y-68734679D02*
G01*
X102847606Y-68747146D01*
X102886620Y-68765664D01*
X102908020Y-68780522D01*
X102935253Y-68806431D01*
X102955690Y-68837726D01*
X102972007Y-68877923D01*
X102976959Y-68899966D01*
X102979382Y-68936060D01*
X102977258Y-68975252D01*
X102970913Y-69012778D01*
X102960673Y-69043874D01*
X102957733Y-69049965D01*
X102945752Y-69071083D01*
X102931902Y-69091571D01*
X102918172Y-69108856D01*
X102906552Y-69120367D01*
X102899034Y-69123532D01*
X102898875Y-69123459D01*
X102892403Y-69117629D01*
X102880540Y-69104935D01*
X102865730Y-69087986D01*
X102837056Y-69054238D01*
X102852407Y-69035995D01*
X102865886Y-69014458D01*
X102877331Y-68984212D01*
X102883707Y-68952469D01*
X102883480Y-68924725D01*
X102872592Y-68891607D01*
X102852562Y-68863404D01*
X102825623Y-68843114D01*
X102793869Y-68832881D01*
X102767841Y-68829390D01*
X102767841Y-69138935D01*
X102696614Y-69136209D01*
X102691541Y-69136011D01*
X102660679Y-69134438D01*
X102638147Y-69132107D01*
X102620273Y-69128263D01*
X102603387Y-69122152D01*
X102583818Y-69113018D01*
X102548003Y-69091092D01*
X102514114Y-69058023D01*
X102490544Y-69018082D01*
X102477540Y-68971710D01*
X102476296Y-68941966D01*
X102569018Y-68941966D01*
X102576796Y-68974566D01*
X102595070Y-69001258D01*
X102623065Y-69021101D01*
X102660002Y-69033153D01*
X102680319Y-69037025D01*
X102680319Y-68829390D01*
X102654291Y-68832881D01*
X102623457Y-68842077D01*
X102596790Y-68861438D01*
X102578245Y-68889037D01*
X102569355Y-68923241D01*
X102569018Y-68941966D01*
X102476296Y-68941966D01*
X102475350Y-68919350D01*
X102475805Y-68913082D01*
X102485520Y-68864579D01*
X102505551Y-68822859D01*
X102535514Y-68788275D01*
X102575021Y-68761181D01*
X102623687Y-68741929D01*
X102680319Y-68731029D01*
X102681127Y-68730873D01*
X102691822Y-68729827D01*
X102747366Y-68728746D01*
X102800241Y-68734679D01*
G37*
G36*
X101972803Y-69268707D02*
G01*
X102007157Y-69271170D01*
X102033747Y-69275458D01*
X102072519Y-69288061D01*
X102116502Y-69312456D01*
X102151402Y-69345206D01*
X102176852Y-69385946D01*
X102192486Y-69434310D01*
X102193073Y-69437288D01*
X102197204Y-69491263D01*
X102189565Y-69544610D01*
X102170719Y-69595076D01*
X102141225Y-69640408D01*
X102135660Y-69646889D01*
X102124646Y-69658068D01*
X102117985Y-69662491D01*
X102117744Y-69662460D01*
X102110957Y-69657369D01*
X102098876Y-69645251D01*
X102083948Y-69628546D01*
X102054947Y-69594601D01*
X102070302Y-69571974D01*
X102072628Y-69568423D01*
X102084402Y-69547261D01*
X102092995Y-69527113D01*
X102095564Y-69517253D01*
X102098291Y-69489839D01*
X102096734Y-69460307D01*
X102091333Y-69433412D01*
X102082526Y-69413908D01*
X102066568Y-69398342D01*
X102043601Y-69383648D01*
X102018922Y-69372861D01*
X101997577Y-69368669D01*
X101980147Y-69368669D01*
X101980147Y-69676344D01*
X101909817Y-69673780D01*
X101864496Y-69670575D01*
X101827509Y-69663797D01*
X101797229Y-69652428D01*
X101770849Y-69635407D01*
X101745567Y-69611674D01*
X101717172Y-69574074D01*
X101697255Y-69529254D01*
X101688978Y-69481550D01*
X101689688Y-69472360D01*
X101786349Y-69472360D01*
X101786546Y-69479209D01*
X101794137Y-69512825D01*
X101812089Y-69540186D01*
X101839491Y-69560272D01*
X101875434Y-69572067D01*
X101898877Y-69576361D01*
X101898877Y-69368669D01*
X101881106Y-69368669D01*
X101862564Y-69371708D01*
X101836902Y-69382923D01*
X101813711Y-69399595D01*
X101797948Y-69418739D01*
X101797476Y-69419638D01*
X101789398Y-69443855D01*
X101786349Y-69472360D01*
X101689688Y-69472360D01*
X101692773Y-69432425D01*
X101706069Y-69389829D01*
X101730411Y-69349327D01*
X101764558Y-69316397D01*
X101808273Y-69291264D01*
X101861315Y-69274152D01*
X101869272Y-69272618D01*
X101898877Y-69269436D01*
X101899250Y-69269396D01*
X101935297Y-69268104D01*
X101972803Y-69268707D01*
G37*
G36*
X102001336Y-68842901D02*
G01*
X102051884Y-68855478D01*
X102096132Y-68875513D01*
X102131840Y-68902441D01*
X102137978Y-68908845D01*
X102162355Y-68941956D01*
X102181549Y-68980242D01*
X102192645Y-69018155D01*
X102196172Y-69042136D01*
X102197686Y-69069828D01*
X102194852Y-69095059D01*
X102187397Y-69123359D01*
X102183316Y-69135171D01*
X102167051Y-69170250D01*
X102146525Y-69202613D01*
X102124660Y-69227415D01*
X102115586Y-69234842D01*
X102108291Y-69235390D01*
X102098237Y-69227415D01*
X102094436Y-69223780D01*
X102080822Y-69209163D01*
X102066560Y-69192196D01*
X102048074Y-69168886D01*
X102065201Y-69146431D01*
X102068805Y-69141490D01*
X102086195Y-69107480D01*
X102093609Y-69071589D01*
X102091450Y-69036125D01*
X102080127Y-69003393D01*
X102060042Y-68975699D01*
X102031603Y-68955350D01*
X102030022Y-68954582D01*
X102013169Y-68947627D01*
X101995600Y-68943459D01*
X101973396Y-68941442D01*
X101942638Y-68940942D01*
X101933693Y-68940981D01*
X101906112Y-68941809D01*
X101886006Y-68944233D01*
X101869409Y-68948943D01*
X101852352Y-68956626D01*
X101826933Y-68973262D01*
X101806578Y-68998126D01*
X101795764Y-69029947D01*
X101793874Y-69069919D01*
X101794607Y-69081175D01*
X101797864Y-69103736D01*
X101804532Y-69121687D01*
X101816414Y-69140685D01*
X101836720Y-69169494D01*
X101818475Y-69192500D01*
X101813817Y-69198241D01*
X101799204Y-69215005D01*
X101786973Y-69227474D01*
X101784922Y-69229318D01*
X101776257Y-69235598D01*
X101769039Y-69234229D01*
X101758032Y-69224709D01*
X101755203Y-69221971D01*
X101730529Y-69191172D01*
X101709664Y-69153088D01*
X101695221Y-69112394D01*
X101692751Y-69102326D01*
X101688625Y-69078667D01*
X101688468Y-69056588D01*
X101692016Y-69029287D01*
X101700825Y-68991166D01*
X101720875Y-68944324D01*
X101749869Y-68906131D01*
X101787946Y-68876456D01*
X101835246Y-68855168D01*
X101891910Y-68842136D01*
X101946730Y-68838345D01*
X102001336Y-68842901D01*
G37*
G36*
X101946624Y-64917582D02*
G01*
X102000422Y-64919769D01*
X102044470Y-64926271D01*
X102080843Y-64937726D01*
X102111618Y-64954775D01*
X102138869Y-64978057D01*
X102152810Y-64993615D01*
X102178641Y-65034628D01*
X102192814Y-65079616D01*
X102195566Y-65114844D01*
X102192899Y-65155413D01*
X102185055Y-65192641D01*
X102174561Y-65218228D01*
X102149510Y-65255255D01*
X102116067Y-65286336D01*
X102076674Y-65308853D01*
X102063580Y-65313199D01*
X102032576Y-65319189D01*
X101994373Y-65322992D01*
X101952221Y-65324603D01*
X101909373Y-65324021D01*
X101869078Y-65321242D01*
X101834589Y-65316264D01*
X101809155Y-65309084D01*
X101789656Y-65299655D01*
X101752006Y-65272401D01*
X101722745Y-65238029D01*
X101702234Y-65198334D01*
X101690834Y-65155113D01*
X101689977Y-65135119D01*
X101792139Y-65135119D01*
X101800049Y-65164589D01*
X101816949Y-65190320D01*
X101842837Y-65209833D01*
X101855049Y-65215486D01*
X101869051Y-65219815D01*
X101886199Y-65222347D01*
X101909610Y-65223517D01*
X101942400Y-65223762D01*
X101971605Y-65223149D01*
X102010793Y-65219548D01*
X102040272Y-65212340D01*
X102061569Y-65201087D01*
X102076209Y-65185351D01*
X102076232Y-65185316D01*
X102089274Y-65155459D01*
X102093475Y-65122248D01*
X102088861Y-65089775D01*
X102075456Y-65062127D01*
X102067872Y-65052667D01*
X102053352Y-65039181D01*
X102035958Y-65029988D01*
X102013302Y-65024345D01*
X101982992Y-65021505D01*
X101942638Y-65020724D01*
X101938976Y-65020726D01*
X101906006Y-65021040D01*
X101882585Y-65022134D01*
X101866014Y-65024356D01*
X101853596Y-65028051D01*
X101842634Y-65033565D01*
X101822387Y-65049040D01*
X101803306Y-65074867D01*
X101793224Y-65104386D01*
X101792139Y-65135119D01*
X101689977Y-65135119D01*
X101688907Y-65110161D01*
X101696812Y-65065274D01*
X101714912Y-65022247D01*
X101743567Y-64982877D01*
X101752753Y-64973406D01*
X101779627Y-64951407D01*
X101809881Y-64935536D01*
X101845686Y-64925082D01*
X101889215Y-64919332D01*
X101942638Y-64917574D01*
X101946624Y-64917582D01*
G37*
G36*
X101942400Y-67516772D02*
G01*
X101973374Y-67517270D01*
X102016360Y-67520812D01*
X102053833Y-67527139D01*
X102082447Y-67536221D01*
X102120540Y-67559206D01*
X102154109Y-67592647D01*
X102178610Y-67633327D01*
X102192636Y-67679414D01*
X102194043Y-67689203D01*
X102195219Y-67729128D01*
X102190324Y-67769372D01*
X102179960Y-67804016D01*
X102165575Y-67829773D01*
X102139317Y-67861550D01*
X102107791Y-67888528D01*
X102074813Y-67906969D01*
X102064577Y-67910832D01*
X102049513Y-67915301D01*
X102032817Y-67918276D01*
X102011771Y-67920056D01*
X101983659Y-67920942D01*
X101945764Y-67921234D01*
X101932287Y-67921219D01*
X101887254Y-67920146D01*
X101851645Y-67916982D01*
X101823067Y-67911090D01*
X101799128Y-67901834D01*
X101777433Y-67888579D01*
X101755591Y-67870687D01*
X101726574Y-67838350D01*
X101704216Y-67798124D01*
X101691700Y-67754873D01*
X101689511Y-67721929D01*
X101792601Y-67721929D01*
X101792603Y-67722645D01*
X101798346Y-67757328D01*
X101815067Y-67786046D01*
X101842634Y-67808572D01*
X101843669Y-67809173D01*
X101854652Y-67814503D01*
X101867344Y-67818046D01*
X101884440Y-67820147D01*
X101908639Y-67821154D01*
X101942638Y-67821413D01*
X101965556Y-67821206D01*
X102000288Y-67819414D01*
X102026240Y-67815166D01*
X102045795Y-67807722D01*
X102061336Y-67796345D01*
X102075244Y-67780294D01*
X102086094Y-67761334D01*
X102093513Y-67728291D01*
X102089659Y-67691751D01*
X102089598Y-67691513D01*
X102080673Y-67665833D01*
X102067697Y-67646642D01*
X102049026Y-67633120D01*
X102023015Y-67624448D01*
X101988021Y-67619806D01*
X101942400Y-67618375D01*
X101912948Y-67618551D01*
X101888587Y-67619588D01*
X101870859Y-67621936D01*
X101856648Y-67626029D01*
X101842837Y-67632304D01*
X101835566Y-67636367D01*
X101811448Y-67657502D01*
X101797251Y-67685801D01*
X101792601Y-67721929D01*
X101689511Y-67721929D01*
X101688746Y-67710415D01*
X101695072Y-67666572D01*
X101710399Y-67625160D01*
X101734445Y-67588001D01*
X101766930Y-67556912D01*
X101807574Y-67533713D01*
X101813182Y-67531563D01*
X101844778Y-67523660D01*
X101884238Y-67518664D01*
X101928218Y-67516544D01*
X101942400Y-67516772D01*
G37*
G36*
X102748598Y-66727402D02*
G01*
X102757264Y-66727436D01*
X102787777Y-66727554D01*
X102817220Y-66728044D01*
X102838921Y-66729055D01*
X102854873Y-66730773D01*
X102867069Y-66733381D01*
X102877502Y-66737065D01*
X102888166Y-66742009D01*
X102895569Y-66745963D01*
X102926783Y-66769460D01*
X102952913Y-66799815D01*
X102970283Y-66832953D01*
X102972021Y-66838360D01*
X102977461Y-66863312D01*
X102979900Y-66888136D01*
X102979429Y-66899645D01*
X102974637Y-66927236D01*
X102965926Y-66955463D01*
X102954797Y-66979953D01*
X102942753Y-66996329D01*
X102938068Y-67000806D01*
X102931248Y-67010933D01*
X102935864Y-67016432D01*
X102952261Y-67018090D01*
X102974142Y-67018090D01*
X102974142Y-67118115D01*
X102273443Y-67118115D01*
X102275269Y-67069666D01*
X102277095Y-67021216D01*
X102400563Y-67019521D01*
X102406979Y-67019426D01*
X102444095Y-67018578D01*
X102476242Y-67017351D01*
X102501536Y-67015853D01*
X102518093Y-67014191D01*
X102524031Y-67012472D01*
X102522051Y-67007698D01*
X102513659Y-66998538D01*
X102510574Y-66995684D01*
X102497120Y-66976563D01*
X102485452Y-66950291D01*
X102479652Y-66929820D01*
X102574264Y-66929820D01*
X102581443Y-66958417D01*
X102597009Y-66983407D01*
X102620930Y-67002033D01*
X102622736Y-67002952D01*
X102634984Y-67008161D01*
X102648830Y-67011634D01*
X102667000Y-67013705D01*
X102692217Y-67014704D01*
X102727206Y-67014963D01*
X102729011Y-67014962D01*
X102771351Y-67014134D01*
X102803328Y-67011279D01*
X102826942Y-67005695D01*
X102844191Y-66996677D01*
X102857074Y-66983521D01*
X102867589Y-66965523D01*
X102875610Y-66945162D01*
X102879227Y-66914385D01*
X102871875Y-66881609D01*
X102869344Y-66875439D01*
X102854518Y-66854589D01*
X102831463Y-66839458D01*
X102799330Y-66829761D01*
X102757264Y-66825214D01*
X102704416Y-66825530D01*
X102668778Y-66828020D01*
X102638680Y-66832603D01*
X102619090Y-66839186D01*
X102603356Y-66849934D01*
X102585189Y-66872823D01*
X102575502Y-66900370D01*
X102574264Y-66929820D01*
X102479652Y-66929820D01*
X102477221Y-66921241D01*
X102474080Y-66893785D01*
X102474211Y-66884441D01*
X102479259Y-66845263D01*
X102492703Y-66811888D01*
X102516008Y-66780346D01*
X102531221Y-66764432D01*
X102546243Y-66751862D01*
X102562655Y-66742480D01*
X102582306Y-66735829D01*
X102607048Y-66731453D01*
X102638733Y-66728893D01*
X102679210Y-66727692D01*
X102730332Y-66727394D01*
X102748598Y-66727402D01*
G37*
G36*
X102107463Y-67037178D02*
G01*
X102116020Y-67044317D01*
X102128133Y-67059326D01*
X102141978Y-67079580D01*
X102155734Y-67102453D01*
X102167578Y-67125322D01*
X102176350Y-67146292D01*
X102186030Y-67174813D01*
X102192134Y-67199385D01*
X102194054Y-67211979D01*
X102196367Y-67262291D01*
X102190578Y-67310721D01*
X102177412Y-67355310D01*
X102157590Y-67394101D01*
X102131838Y-67425137D01*
X102100876Y-67446460D01*
X102073382Y-67454921D01*
X102037597Y-67457559D01*
X102001184Y-67453224D01*
X101969161Y-67442082D01*
X101966870Y-67440883D01*
X101944019Y-67425821D01*
X101926129Y-67406754D01*
X101912477Y-67381996D01*
X101902343Y-67349863D01*
X101895003Y-67308669D01*
X101889736Y-67256730D01*
X101889728Y-67256628D01*
X101886654Y-67231099D01*
X101882009Y-67208151D01*
X101876795Y-67192743D01*
X101866855Y-67179512D01*
X101849187Y-67170127D01*
X101829456Y-67170628D01*
X101810533Y-67180751D01*
X101795289Y-67200232D01*
X101788836Y-67219257D01*
X101785887Y-67250457D01*
X101788690Y-67285446D01*
X101796861Y-67320312D01*
X101810019Y-67351142D01*
X101829604Y-67385845D01*
X101796039Y-67414520D01*
X101795011Y-67415396D01*
X101777810Y-67429428D01*
X101764261Y-67439382D01*
X101757220Y-67443152D01*
X101755490Y-67442656D01*
X101746929Y-67434515D01*
X101735585Y-67418480D01*
X101723240Y-67397275D01*
X101711680Y-67373622D01*
X101703736Y-67350826D01*
X101696053Y-67317795D01*
X101690644Y-67282151D01*
X101688210Y-67248669D01*
X101689450Y-67222124D01*
X101694747Y-67195106D01*
X101710686Y-67149352D01*
X101733861Y-67113754D01*
X101764239Y-67088347D01*
X101801785Y-67073164D01*
X101846464Y-67068240D01*
X101853993Y-67068569D01*
X101879597Y-67072667D01*
X101902003Y-67079918D01*
X101913627Y-67085865D01*
X101937571Y-67103595D01*
X101956031Y-67127241D01*
X101969800Y-67158394D01*
X101979670Y-67198649D01*
X101986434Y-67249597D01*
X101988305Y-67267524D01*
X101993303Y-67301869D01*
X101999718Y-67326076D01*
X102008320Y-67341807D01*
X102019883Y-67350723D01*
X102035177Y-67354485D01*
X102050872Y-67354337D01*
X102072078Y-67345837D01*
X102087075Y-67326845D01*
X102095984Y-67297173D01*
X102098926Y-67256636D01*
X102098922Y-67254935D01*
X102095082Y-67210522D01*
X102083042Y-67171690D01*
X102061330Y-67133617D01*
X102041982Y-67105496D01*
X102072017Y-67071250D01*
X102073841Y-67069178D01*
X102088773Y-67052877D01*
X102100356Y-67041330D01*
X102106215Y-67036924D01*
X102107463Y-67037178D01*
G37*
G36*
X102875518Y-65883881D02*
G01*
X102895535Y-65892236D01*
X102927580Y-65915578D01*
X102953364Y-65948247D01*
X102971394Y-65988613D01*
X102976798Y-66014000D01*
X102979590Y-66048740D01*
X102978653Y-66083757D01*
X102973866Y-66112986D01*
X102973435Y-66114467D01*
X102964158Y-66135841D01*
X102951465Y-66155184D01*
X102935521Y-66174133D01*
X102974142Y-66174133D01*
X102974142Y-66281507D01*
X102785033Y-66278950D01*
X102782133Y-66278911D01*
X102721398Y-66277883D01*
X102672251Y-66276610D01*
X102633818Y-66275045D01*
X102605222Y-66273146D01*
X102585589Y-66270866D01*
X102574043Y-66268160D01*
X102546459Y-66254715D01*
X102517541Y-66229876D01*
X102495255Y-66195257D01*
X102490949Y-66186105D01*
X102484151Y-66168371D01*
X102479764Y-66149488D01*
X102477046Y-66125672D01*
X102475257Y-66093138D01*
X102474648Y-66066726D01*
X102476786Y-66023143D01*
X102483812Y-65987733D01*
X102496321Y-65958067D01*
X102514910Y-65931718D01*
X102524507Y-65920988D01*
X102535901Y-65909697D01*
X102542269Y-65905317D01*
X102542809Y-65905465D01*
X102549733Y-65911547D01*
X102561545Y-65924762D01*
X102576026Y-65942654D01*
X102605022Y-65979992D01*
X102590296Y-65995881D01*
X102583129Y-66004888D01*
X102574120Y-66024005D01*
X102569252Y-66049571D01*
X102567792Y-66084468D01*
X102568435Y-66099864D01*
X102573903Y-66130010D01*
X102584127Y-66153426D01*
X102598109Y-66167378D01*
X102604983Y-66169818D01*
X102623132Y-66172920D01*
X102644843Y-66174133D01*
X102678957Y-66174133D01*
X102766872Y-66174133D01*
X102802050Y-66174133D01*
X102816230Y-66173554D01*
X102844272Y-66168433D01*
X102865217Y-66158823D01*
X102876490Y-66145707D01*
X102877378Y-66143003D01*
X102880605Y-66124989D01*
X102882724Y-66099987D01*
X102883574Y-66072451D01*
X102882992Y-66046830D01*
X102880814Y-66027576D01*
X102878689Y-66019517D01*
X102866489Y-65996693D01*
X102848511Y-65981314D01*
X102827377Y-65974415D01*
X102805707Y-65977031D01*
X102786122Y-65990197D01*
X102780454Y-65996817D01*
X102775991Y-66004771D01*
X102773016Y-66015709D01*
X102771118Y-66032010D01*
X102769889Y-66056055D01*
X102768919Y-66090221D01*
X102766872Y-66174133D01*
X102678957Y-66174133D01*
X102681583Y-66081923D01*
X102683343Y-66039154D01*
X102686401Y-66004328D01*
X102691286Y-65977478D01*
X102698592Y-65956295D01*
X102708915Y-65938470D01*
X102722849Y-65921696D01*
X102735744Y-65910209D01*
X102766975Y-65892655D01*
X102803403Y-65881741D01*
X102827377Y-65879659D01*
X102840945Y-65878480D01*
X102875518Y-65883881D01*
G37*
G36*
X102887297Y-67894054D02*
G01*
X102921300Y-67914988D01*
X102949087Y-67945704D01*
X102969193Y-67985435D01*
X102969370Y-67985933D01*
X102976448Y-68016208D01*
X102979692Y-68052493D01*
X102978900Y-68088947D01*
X102973866Y-68119730D01*
X102973435Y-68121210D01*
X102964158Y-68142584D01*
X102951465Y-68161928D01*
X102935521Y-68180876D01*
X102974142Y-68180876D01*
X102974142Y-68280901D01*
X102788158Y-68280866D01*
X102753405Y-68280776D01*
X102699387Y-68280245D01*
X102653717Y-68279268D01*
X102617432Y-68277877D01*
X102591570Y-68276106D01*
X102577169Y-68273990D01*
X102573388Y-68272844D01*
X102545631Y-68258053D01*
X102519815Y-68234146D01*
X102498580Y-68204068D01*
X102484566Y-68170761D01*
X102479984Y-68150257D01*
X102475352Y-68110589D01*
X102474420Y-68068052D01*
X102477212Y-68027577D01*
X102483749Y-67994092D01*
X102485278Y-67989481D01*
X102494371Y-67969750D01*
X102506915Y-67949089D01*
X102520699Y-67930553D01*
X102533513Y-67917192D01*
X102543147Y-67912060D01*
X102543618Y-67912165D01*
X102550553Y-67918036D01*
X102562323Y-67931115D01*
X102576667Y-67948917D01*
X102580884Y-67954421D01*
X102593393Y-67971583D01*
X102599209Y-67982252D01*
X102599346Y-67988961D01*
X102594819Y-67994241D01*
X102585476Y-68004949D01*
X102574668Y-68029175D01*
X102568748Y-68059300D01*
X102567728Y-68091880D01*
X102571621Y-68123475D01*
X102580439Y-68150641D01*
X102594194Y-68169936D01*
X102598764Y-68173238D01*
X102616132Y-68179064D01*
X102642929Y-68180876D01*
X102679173Y-68180876D01*
X102681085Y-68102321D01*
X102767841Y-68102321D01*
X102767841Y-68180876D01*
X102798692Y-68180876D01*
X102801148Y-68180866D01*
X102832998Y-68177904D01*
X102855543Y-68169165D01*
X102870819Y-68153885D01*
X102871330Y-68153055D01*
X102876782Y-68137750D01*
X102881178Y-68114895D01*
X102884005Y-68089033D01*
X102884751Y-68064709D01*
X102882907Y-68046468D01*
X102880726Y-68037177D01*
X102876840Y-68019740D01*
X102868214Y-68000588D01*
X102850184Y-67986101D01*
X102825668Y-67981026D01*
X102820591Y-67981152D01*
X102801497Y-67984045D01*
X102787477Y-67991862D01*
X102777815Y-68006100D01*
X102771798Y-68028258D01*
X102768711Y-68059832D01*
X102767841Y-68102321D01*
X102681085Y-68102321D01*
X102681417Y-68088666D01*
X102681679Y-68078430D01*
X102682956Y-68042783D01*
X102684770Y-68016488D01*
X102687443Y-67997007D01*
X102691296Y-67981799D01*
X102696651Y-67968324D01*
X102718239Y-67933628D01*
X102748439Y-67906362D01*
X102785509Y-67889318D01*
X102806511Y-67884600D01*
X102825668Y-67884176D01*
X102848545Y-67883669D01*
X102887297Y-67894054D01*
G37*
G36*
X102483983Y-67174410D02*
G01*
X102491707Y-67176686D01*
X102509602Y-67182214D01*
X102536127Y-67190506D01*
X102569740Y-67201072D01*
X102608901Y-67213423D01*
X102652068Y-67227071D01*
X102697701Y-67241527D01*
X102744258Y-67256301D01*
X102790199Y-67270905D01*
X102833982Y-67284850D01*
X102874067Y-67297646D01*
X102908913Y-67308806D01*
X102936978Y-67317839D01*
X102956722Y-67324257D01*
X102966603Y-67327571D01*
X102967015Y-67327741D01*
X102971270Y-67334253D01*
X102973144Y-67349737D01*
X102972854Y-67375884D01*
X102971016Y-67421281D01*
X102804069Y-67470801D01*
X102797944Y-67472621D01*
X102755232Y-67485495D01*
X102717054Y-67497313D01*
X102684906Y-67507589D01*
X102660282Y-67515837D01*
X102644677Y-67521570D01*
X102639584Y-67524303D01*
X102639716Y-67524432D01*
X102647270Y-67527524D01*
X102665103Y-67533594D01*
X102691658Y-67542150D01*
X102725379Y-67552695D01*
X102764710Y-67564738D01*
X102808093Y-67577783D01*
X102974142Y-67627282D01*
X102974142Y-67717430D01*
X102847548Y-67757982D01*
X102809958Y-67770013D01*
X102757610Y-67786743D01*
X102703545Y-67803998D01*
X102652304Y-67820331D01*
X102608427Y-67834291D01*
X102608066Y-67834406D01*
X102572291Y-67845796D01*
X102540396Y-67855994D01*
X102514390Y-67864352D01*
X102496283Y-67870226D01*
X102488084Y-67872968D01*
X102485373Y-67872715D01*
X102482373Y-67865880D01*
X102480755Y-67849755D01*
X102480270Y-67822751D01*
X102480273Y-67820421D01*
X102481168Y-67791300D01*
X102483731Y-67773658D01*
X102488084Y-67766621D01*
X102494485Y-67764680D01*
X102511645Y-67759822D01*
X102537691Y-67752592D01*
X102570927Y-67743458D01*
X102609658Y-67732888D01*
X102652187Y-67721350D01*
X102690038Y-67711025D01*
X102728902Y-67700228D01*
X102762302Y-67690739D01*
X102788584Y-67683037D01*
X102806092Y-67677599D01*
X102813173Y-67674902D01*
X102813178Y-67674592D01*
X102806416Y-67670971D01*
X102789474Y-67664206D01*
X102763796Y-67654816D01*
X102730825Y-67643316D01*
X102692006Y-67630224D01*
X102648780Y-67616055D01*
X102479689Y-67561377D01*
X102481542Y-67522997D01*
X102483396Y-67484617D01*
X102650502Y-67431085D01*
X102657269Y-67428915D01*
X102699985Y-67415094D01*
X102738320Y-67402488D01*
X102770767Y-67391607D01*
X102795818Y-67382963D01*
X102811963Y-67377066D01*
X102817695Y-67374428D01*
X102814351Y-67372859D01*
X102800519Y-67368323D01*
X102777472Y-67361416D01*
X102746840Y-67352614D01*
X102710253Y-67342391D01*
X102669343Y-67331223D01*
X102640597Y-67323461D01*
X102600094Y-67312520D01*
X102563902Y-67302740D01*
X102533960Y-67294644D01*
X102512208Y-67288758D01*
X102500588Y-67285606D01*
X102480270Y-67280067D01*
X102480270Y-67227223D01*
X102480328Y-67217684D01*
X102480981Y-67195545D01*
X102482204Y-67180150D01*
X102483807Y-67174379D01*
X102483983Y-67174410D01*
G37*
G36*
X101955401Y-65411445D02*
G01*
X102974142Y-65411445D01*
X102974142Y-65510724D01*
X102806913Y-65512660D01*
X102777290Y-65513013D01*
X102733375Y-65513639D01*
X102699475Y-65514375D01*
X102674000Y-65515353D01*
X102655355Y-65516707D01*
X102641950Y-65518571D01*
X102632190Y-65521078D01*
X102624484Y-65524361D01*
X102617239Y-65528555D01*
X102616272Y-65529166D01*
X102594577Y-65550009D01*
X102580549Y-65577646D01*
X102574840Y-65608637D01*
X102578103Y-65639538D01*
X102590992Y-65666909D01*
X102599072Y-65677176D01*
X102608122Y-65685914D01*
X102619100Y-65692630D01*
X102633516Y-65697587D01*
X102652881Y-65701051D01*
X102678705Y-65703285D01*
X102712499Y-65704555D01*
X102755773Y-65705124D01*
X102810039Y-65705258D01*
X102974142Y-65705267D01*
X102974142Y-65805804D01*
X102781907Y-65803985D01*
X102771605Y-65803887D01*
X102715863Y-65803287D01*
X102670878Y-65802472D01*
X102635151Y-65801160D01*
X102607182Y-65799070D01*
X102585472Y-65795918D01*
X102568522Y-65791423D01*
X102554832Y-65785303D01*
X102542904Y-65777274D01*
X102531238Y-65767055D01*
X102518335Y-65754364D01*
X102505286Y-65739202D01*
X102485705Y-65703487D01*
X102475344Y-65663366D01*
X102474435Y-65621767D01*
X102483208Y-65581620D01*
X102501894Y-65545853D01*
X102503364Y-65543824D01*
X102513524Y-65529383D01*
X102520154Y-65519284D01*
X102520380Y-65518457D01*
X102517476Y-65516338D01*
X102508409Y-65514666D01*
X102492124Y-65513397D01*
X102467563Y-65512487D01*
X102433671Y-65511892D01*
X102389390Y-65511568D01*
X102333664Y-65511470D01*
X102142559Y-65511470D01*
X102164221Y-65544290D01*
X102173211Y-65559496D01*
X102185105Y-65584718D01*
X102192471Y-65606929D01*
X102196229Y-65637964D01*
X102191665Y-65680022D01*
X102176750Y-65718916D01*
X102152648Y-65752654D01*
X102120524Y-65779244D01*
X102081541Y-65796694D01*
X102078520Y-65797506D01*
X102053924Y-65801663D01*
X102020439Y-65804599D01*
X101981111Y-65806314D01*
X101938987Y-65806809D01*
X101897112Y-65806086D01*
X101858532Y-65804144D01*
X101826295Y-65800985D01*
X101803446Y-65796610D01*
X101784717Y-65789914D01*
X101748903Y-65768510D01*
X101721000Y-65739428D01*
X101701599Y-65704486D01*
X101691292Y-65665504D01*
X101690670Y-65624303D01*
X101691367Y-65621300D01*
X101793374Y-65621300D01*
X101798842Y-65651763D01*
X101812692Y-65674456D01*
X101835606Y-65690872D01*
X101847267Y-65695583D01*
X101861694Y-65698827D01*
X101881292Y-65700835D01*
X101908502Y-65701857D01*
X101945764Y-65702142D01*
X101984158Y-65701660D01*
X102016334Y-65699676D01*
X102039971Y-65695626D01*
X102057125Y-65688948D01*
X102069851Y-65679082D01*
X102080207Y-65665467D01*
X102088258Y-65648402D01*
X102093905Y-65618935D01*
X102092071Y-65588507D01*
X102083150Y-65561039D01*
X102067542Y-65540454D01*
X102059157Y-65534459D01*
X102030824Y-65522191D01*
X101995192Y-65514401D01*
X101955401Y-65511070D01*
X101914593Y-65512179D01*
X101875908Y-65517709D01*
X101842487Y-65527642D01*
X101817472Y-65541958D01*
X101807737Y-65550813D01*
X101800150Y-65561680D01*
X101796114Y-65576283D01*
X101793810Y-65599005D01*
X101793374Y-65621300D01*
X101691367Y-65621300D01*
X101700325Y-65582701D01*
X101720848Y-65542520D01*
X101741743Y-65511470D01*
X101692576Y-65511470D01*
X101692576Y-65411445D01*
X101955401Y-65411445D01*
G37*
G36*
X99837158Y-65448955D02*
G01*
X99898308Y-65448995D01*
X99948252Y-65449137D01*
X99988146Y-65449430D01*
X100019144Y-65449924D01*
X100042401Y-65450669D01*
X100059073Y-65451714D01*
X100070315Y-65453110D01*
X100077282Y-65454905D01*
X100081129Y-65457150D01*
X100083011Y-65459894D01*
X100085163Y-65468197D01*
X100089325Y-65487393D01*
X100095194Y-65516001D01*
X100102480Y-65552569D01*
X100110894Y-65595646D01*
X100120147Y-65643781D01*
X100129951Y-65695524D01*
X100135504Y-65724913D01*
X100146545Y-65782294D01*
X100155812Y-65828681D01*
X100163514Y-65864997D01*
X100169863Y-65892165D01*
X100175067Y-65911108D01*
X100179338Y-65922749D01*
X100182886Y-65928011D01*
X100184378Y-65928902D01*
X100196136Y-65934475D01*
X100217486Y-65943796D01*
X100246888Y-65956220D01*
X100282805Y-65971100D01*
X100323698Y-65987793D01*
X100368028Y-66005653D01*
X100407786Y-66021444D01*
X100458614Y-66041127D01*
X100498768Y-66055944D01*
X100528689Y-66066047D01*
X100548817Y-66071593D01*
X100559591Y-66072734D01*
X100566951Y-66069506D01*
X100583856Y-66059811D01*
X100608580Y-66044509D01*
X100639828Y-66024432D01*
X100676307Y-66000414D01*
X100716722Y-65973287D01*
X100759779Y-65943884D01*
X100798273Y-65917541D01*
X100838440Y-65890424D01*
X100874559Y-65866429D01*
X100905387Y-65846362D01*
X100929685Y-65831029D01*
X100946212Y-65821238D01*
X100953726Y-65817795D01*
X100954657Y-65818092D01*
X100963446Y-65824544D01*
X100979728Y-65838707D01*
X101002493Y-65859626D01*
X101030726Y-65886344D01*
X101063417Y-65917908D01*
X101099553Y-65953363D01*
X101138121Y-65991753D01*
X101166190Y-66019934D01*
X101206173Y-66060327D01*
X101238344Y-66093248D01*
X101263416Y-66119479D01*
X101282102Y-66139805D01*
X101295114Y-66155010D01*
X101303165Y-66165878D01*
X101306968Y-66173192D01*
X101307236Y-66177736D01*
X101303947Y-66183622D01*
X101294178Y-66199076D01*
X101278851Y-66222491D01*
X101258811Y-66252601D01*
X101234903Y-66288138D01*
X101207971Y-66327835D01*
X101178860Y-66370425D01*
X101154304Y-66406460D01*
X101127320Y-66446661D01*
X101103422Y-66482919D01*
X101083420Y-66513971D01*
X101068128Y-66538554D01*
X101058357Y-66555404D01*
X101054919Y-66563258D01*
X101055465Y-66566189D01*
X101060590Y-66579817D01*
X101070246Y-66601125D01*
X101083372Y-66627834D01*
X101098906Y-66657662D01*
X101105901Y-66670931D01*
X101120280Y-66699552D01*
X101131616Y-66724008D01*
X101138895Y-66742046D01*
X101141103Y-66751414D01*
X101139916Y-66753310D01*
X101133764Y-66757870D01*
X101121817Y-66764541D01*
X101103429Y-66773608D01*
X101077957Y-66785355D01*
X101044755Y-66800065D01*
X101003178Y-66818024D01*
X100952582Y-66839515D01*
X100892321Y-66864822D01*
X100821751Y-66894229D01*
X100740227Y-66928020D01*
X100697658Y-66945601D01*
X100632451Y-66972418D01*
X100571051Y-66997534D01*
X100514425Y-67020561D01*
X100463538Y-67041111D01*
X100419358Y-67058795D01*
X100382853Y-67073225D01*
X100354988Y-67084013D01*
X100336732Y-67090770D01*
X100329051Y-67093109D01*
X100325868Y-67092556D01*
X100313528Y-67083924D01*
X100299845Y-67066540D01*
X100297499Y-67062946D01*
X100284203Y-67043380D01*
X100267256Y-67019272D01*
X100249738Y-66995018D01*
X100219909Y-66957987D01*
X100163474Y-66903011D01*
X100100298Y-66857686D01*
X100031603Y-66822486D01*
X99958609Y-66797884D01*
X99882541Y-66784352D01*
X99804619Y-66782363D01*
X99726066Y-66792391D01*
X99705648Y-66797065D01*
X99632523Y-66821683D01*
X99564301Y-66857008D01*
X99502064Y-66902027D01*
X99446897Y-66955725D01*
X99399882Y-67017088D01*
X99362105Y-67085101D01*
X99334648Y-67158750D01*
X99329739Y-67178633D01*
X99322397Y-67227394D01*
X99319217Y-67281602D01*
X99320199Y-67336948D01*
X99325343Y-67389123D01*
X99334648Y-67433818D01*
X99349951Y-67479797D01*
X99379311Y-67542645D01*
X99417771Y-67600347D01*
X99467026Y-67655747D01*
X99475164Y-67663802D01*
X99515263Y-67700551D01*
X99552964Y-67729270D01*
X99591589Y-67752261D01*
X99634462Y-67771827D01*
X99700092Y-67793549D01*
X99777294Y-67807616D01*
X99854414Y-67810000D01*
X99930279Y-67801032D01*
X100003717Y-67781044D01*
X100073555Y-67750371D01*
X100138620Y-67709342D01*
X100197739Y-67658291D01*
X100249738Y-67597550D01*
X100253909Y-67591842D01*
X100271571Y-67567218D01*
X100287910Y-67543814D01*
X100299845Y-67526028D01*
X100304099Y-67519815D01*
X100317625Y-67504917D01*
X100329051Y-67499459D01*
X100332602Y-67500395D01*
X100347054Y-67505561D01*
X100371472Y-67514901D01*
X100404889Y-67528027D01*
X100446339Y-67544551D01*
X100494854Y-67564085D01*
X100549467Y-67586239D01*
X100609212Y-67610627D01*
X100673121Y-67636859D01*
X100740227Y-67664548D01*
X100792250Y-67686093D01*
X100866885Y-67717125D01*
X100930968Y-67743948D01*
X100985143Y-67766849D01*
X101030054Y-67786109D01*
X101066347Y-67802015D01*
X101094666Y-67814849D01*
X101115657Y-67824896D01*
X101129963Y-67832439D01*
X101138230Y-67837764D01*
X101141103Y-67841154D01*
X101140825Y-67844045D01*
X101136272Y-67857487D01*
X101127091Y-67878612D01*
X101114298Y-67905169D01*
X101098906Y-67934905D01*
X101091997Y-67947972D01*
X101077369Y-67976737D01*
X101065605Y-68001403D01*
X101057768Y-68019687D01*
X101054919Y-68029310D01*
X101057379Y-68035307D01*
X101066212Y-68050831D01*
X101080693Y-68074286D01*
X101100010Y-68104408D01*
X101123352Y-68139934D01*
X101149906Y-68179600D01*
X101178860Y-68222143D01*
X101203292Y-68257866D01*
X101230643Y-68298128D01*
X101255108Y-68334439D01*
X101275844Y-68365533D01*
X101292007Y-68390141D01*
X101302753Y-68406996D01*
X101307236Y-68414831D01*
X101307459Y-68417273D01*
X101305154Y-68423387D01*
X101298884Y-68432741D01*
X101287939Y-68446120D01*
X101271605Y-68464307D01*
X101249168Y-68488086D01*
X101219918Y-68518241D01*
X101183140Y-68555556D01*
X101138121Y-68600814D01*
X101127943Y-68610998D01*
X101089908Y-68648719D01*
X101054568Y-68683256D01*
X101022936Y-68713656D01*
X100996024Y-68738962D01*
X100974843Y-68758220D01*
X100960406Y-68770475D01*
X100953726Y-68774773D01*
X100947413Y-68771986D01*
X100931750Y-68762806D01*
X100908189Y-68748002D01*
X100877970Y-68728381D01*
X100842335Y-68704750D01*
X100802524Y-68677915D01*
X100759779Y-68648684D01*
X100722004Y-68622862D01*
X100681187Y-68595403D01*
X100644144Y-68570949D01*
X100612169Y-68550333D01*
X100586555Y-68534386D01*
X100568598Y-68523942D01*
X100559591Y-68519833D01*
X100553479Y-68520105D01*
X100536558Y-68524146D01*
X100509993Y-68532693D01*
X100473343Y-68545901D01*
X100426168Y-68563924D01*
X100368028Y-68586915D01*
X100353462Y-68592758D01*
X100310072Y-68610312D01*
X100270614Y-68626491D01*
X100236628Y-68640651D01*
X100209653Y-68652145D01*
X100191226Y-68660329D01*
X100182886Y-68664557D01*
X100181379Y-68666175D01*
X100177535Y-68674169D01*
X100172873Y-68688954D01*
X100167184Y-68711452D01*
X100160258Y-68742587D01*
X100151884Y-68783282D01*
X100141851Y-68834460D01*
X100129951Y-68897044D01*
X100120274Y-68948122D01*
X100111011Y-68996314D01*
X100102584Y-69039468D01*
X100095282Y-69076131D01*
X100089393Y-69104854D01*
X100085206Y-69124185D01*
X100083011Y-69132673D01*
X100082847Y-69133039D01*
X100080785Y-69135719D01*
X100076617Y-69137906D01*
X100069187Y-69139650D01*
X100057341Y-69141000D01*
X100039922Y-69142006D01*
X100015775Y-69142717D01*
X99983747Y-69143184D01*
X99942681Y-69143456D01*
X99891422Y-69143582D01*
X99828815Y-69143613D01*
X99579288Y-69143613D01*
X99573378Y-69129547D01*
X99571156Y-69121367D01*
X99566877Y-69102050D01*
X99560936Y-69073302D01*
X99553629Y-69036611D01*
X99545252Y-68993469D01*
X99536103Y-68945366D01*
X99526477Y-68893791D01*
X99517467Y-68845834D01*
X99508089Y-68797550D01*
X99499348Y-68754175D01*
X99491558Y-68717189D01*
X99485031Y-68688070D01*
X99480079Y-68668300D01*
X99477013Y-68659358D01*
X99473121Y-68656118D01*
X99458678Y-68647794D01*
X99435577Y-68636120D01*
X99405611Y-68621872D01*
X99370572Y-68605827D01*
X99332254Y-68588762D01*
X99292450Y-68571452D01*
X99252952Y-68554675D01*
X99215554Y-68539207D01*
X99182049Y-68525825D01*
X99154229Y-68515305D01*
X99133887Y-68508423D01*
X99122817Y-68505956D01*
X99122452Y-68505973D01*
X99111587Y-68510176D01*
X99090804Y-68521753D01*
X99060218Y-68540634D01*
X99019943Y-68566744D01*
X98970095Y-68600012D01*
X98910787Y-68640365D01*
X98904916Y-68644385D01*
X98860860Y-68674305D01*
X98819809Y-68701758D01*
X98782973Y-68725967D01*
X98751562Y-68746151D01*
X98726786Y-68761533D01*
X98709854Y-68771333D01*
X98701977Y-68774773D01*
X98697317Y-68772198D01*
X98684442Y-68761817D01*
X98664954Y-68744569D01*
X98640049Y-68721630D01*
X98610925Y-68694173D01*
X98578777Y-68663376D01*
X98544801Y-68630412D01*
X98510193Y-68596456D01*
X98476151Y-68562685D01*
X98443870Y-68530273D01*
X98414545Y-68500395D01*
X98389374Y-68474226D01*
X98369553Y-68452942D01*
X98356278Y-68437718D01*
X98350745Y-68429728D01*
X98350277Y-68428278D01*
X98349375Y-68424797D01*
X98349394Y-68420867D01*
X98350947Y-68415500D01*
X98354648Y-68407710D01*
X98361114Y-68396511D01*
X98370959Y-68380917D01*
X98384797Y-68359940D01*
X98403243Y-68332595D01*
X98426912Y-68297896D01*
X98456419Y-68254855D01*
X98492379Y-68202487D01*
X98513072Y-68172261D01*
X98548295Y-68120222D01*
X98576497Y-68077635D01*
X98597936Y-68044089D01*
X98612871Y-68019176D01*
X98621561Y-68002485D01*
X98624263Y-67993607D01*
X98623759Y-67990704D01*
X98619389Y-67976532D01*
X98611165Y-67953621D01*
X98599849Y-67923827D01*
X98586200Y-67889004D01*
X98570978Y-67851006D01*
X98554944Y-67811688D01*
X98538857Y-67772904D01*
X98523478Y-67736510D01*
X98509566Y-67704360D01*
X98497881Y-67678307D01*
X98489184Y-67660208D01*
X98484235Y-67651917D01*
X98483724Y-67651565D01*
X98473939Y-67648323D01*
X98453483Y-67643208D01*
X98423746Y-67636513D01*
X98386117Y-67628537D01*
X98341987Y-67619574D01*
X98292745Y-67609921D01*
X98239782Y-67599873D01*
X98230974Y-67598226D01*
X98178298Y-67588253D01*
X98129399Y-67578791D01*
X98085699Y-67570129D01*
X98048617Y-67562556D01*
X98019573Y-67556362D01*
X97999988Y-67551836D01*
X97991283Y-67549266D01*
X97989788Y-67548393D01*
X97987006Y-67545844D01*
X97984758Y-67541404D01*
X97982985Y-67533892D01*
X97981632Y-67522130D01*
X97980642Y-67504939D01*
X97979959Y-67481140D01*
X97979526Y-67449554D01*
X97979286Y-67409002D01*
X97979184Y-67358305D01*
X97979163Y-67296284D01*
X97979166Y-67263789D01*
X97979220Y-67207588D01*
X97979381Y-67162120D01*
X97979706Y-67126206D01*
X97980254Y-67098668D01*
X97981080Y-67078324D01*
X97982242Y-67063995D01*
X97983797Y-67054503D01*
X97985802Y-67048667D01*
X97988313Y-67045307D01*
X97991388Y-67043245D01*
X97991995Y-67042976D01*
X98002561Y-67040064D01*
X98023780Y-67035249D01*
X98054228Y-67028817D01*
X98092484Y-67021059D01*
X98137127Y-67012264D01*
X98186735Y-67002720D01*
X98239886Y-66992717D01*
X98249214Y-66990976D01*
X98301634Y-66980994D01*
X98350098Y-66971446D01*
X98393214Y-66962628D01*
X98429590Y-66954838D01*
X98457836Y-66948371D01*
X98476560Y-66943525D01*
X98484369Y-66940595D01*
X98485896Y-66938500D01*
X98492494Y-66925931D01*
X98502526Y-66904311D01*
X98515229Y-66875498D01*
X98529844Y-66841348D01*
X98545610Y-66803719D01*
X98561765Y-66764469D01*
X98577550Y-66725456D01*
X98592203Y-66688537D01*
X98604964Y-66655570D01*
X98615071Y-66628412D01*
X98621764Y-66608922D01*
X98624283Y-66598955D01*
X98623700Y-66595598D01*
X98618089Y-66582930D01*
X98606332Y-66562210D01*
X98588174Y-66533036D01*
X98563360Y-66495006D01*
X98531636Y-66447716D01*
X98492748Y-66390764D01*
X98480820Y-66373410D01*
X98446869Y-66323988D01*
X98419187Y-66283582D01*
X98397159Y-66251205D01*
X98380171Y-66225870D01*
X98367609Y-66206592D01*
X98358857Y-66192382D01*
X98353301Y-66182254D01*
X98350327Y-66175223D01*
X98349319Y-66170301D01*
X98349663Y-66166502D01*
X98350745Y-66162840D01*
X98354290Y-66157354D01*
X98365903Y-66143678D01*
X98384335Y-66123674D01*
X98408389Y-66098517D01*
X98436871Y-66069382D01*
X98468582Y-66037445D01*
X98502328Y-66003880D01*
X98536912Y-65969864D01*
X98571137Y-65936570D01*
X98603808Y-65905174D01*
X98633728Y-65876851D01*
X98659702Y-65852777D01*
X98680532Y-65834126D01*
X98695022Y-65822074D01*
X98701977Y-65817795D01*
X98702445Y-65817855D01*
X98711565Y-65822163D01*
X98729583Y-65832731D01*
X98755288Y-65848780D01*
X98787471Y-65869530D01*
X98824921Y-65894203D01*
X98866430Y-65922021D01*
X98910787Y-65952203D01*
X98914986Y-65955080D01*
X98973674Y-65994968D01*
X99022894Y-66027766D01*
X99062534Y-66053402D01*
X99092477Y-66071803D01*
X99112609Y-66082897D01*
X99122817Y-66086611D01*
X99128848Y-66085555D01*
X99146135Y-66080136D01*
X99171531Y-66070806D01*
X99203243Y-66058341D01*
X99239477Y-66043518D01*
X99278441Y-66027113D01*
X99318342Y-66009902D01*
X99357387Y-65992662D01*
X99393782Y-65976170D01*
X99425736Y-65961202D01*
X99451454Y-65948535D01*
X99469144Y-65938945D01*
X99477013Y-65933209D01*
X99479795Y-65925277D01*
X99484624Y-65906228D01*
X99491049Y-65877725D01*
X99498760Y-65841248D01*
X99507443Y-65798278D01*
X99516786Y-65750294D01*
X99526477Y-65698776D01*
X99535404Y-65650917D01*
X99544598Y-65602505D01*
X99553042Y-65558945D01*
X99560438Y-65521726D01*
X99566491Y-65492339D01*
X99570903Y-65472274D01*
X99573378Y-65463020D01*
X99579288Y-65448954D01*
X99828815Y-65448954D01*
X99837158Y-65448955D01*
G37*
%TO.C,G\u002A\u002A\u002A*%
G36*
X86168359Y-59561944D02*
G01*
X86490563Y-59885318D01*
X86505648Y-59950424D01*
X86510608Y-59970993D01*
X86552275Y-60103706D01*
X86608675Y-60229310D01*
X86678755Y-60345400D01*
X86691776Y-60364270D01*
X86709881Y-60390792D01*
X86722347Y-60409435D01*
X86727030Y-60417017D01*
X86724690Y-60417264D01*
X86707930Y-60417710D01*
X86676546Y-60418117D01*
X86632329Y-60418473D01*
X86577074Y-60418770D01*
X86512574Y-60418994D01*
X86440622Y-60419137D01*
X86363011Y-60419187D01*
X85998824Y-60419187D01*
X85982531Y-60382294D01*
X85978315Y-60372044D01*
X85967674Y-60343739D01*
X85954318Y-60306397D01*
X85939895Y-60264794D01*
X85926049Y-60223708D01*
X85914428Y-60187913D01*
X85906677Y-60162188D01*
X85905136Y-60160418D01*
X85890435Y-60155264D01*
X85863289Y-60150438D01*
X85827320Y-60146648D01*
X85803277Y-60144622D01*
X85754312Y-60139928D01*
X85700838Y-60134273D01*
X85650780Y-60128475D01*
X85624929Y-60125369D01*
X85567018Y-60118705D01*
X85507369Y-60112149D01*
X85455462Y-60106757D01*
X85424954Y-60103654D01*
X85383914Y-60099266D01*
X85349651Y-60095364D01*
X85327420Y-60092529D01*
X85294867Y-60087791D01*
X85294867Y-59300891D01*
X85327420Y-59296152D01*
X85341815Y-59294265D01*
X85373163Y-59290603D01*
X85412796Y-59286287D01*
X85455462Y-59281900D01*
X85484705Y-59278925D01*
X85541621Y-59272918D01*
X85601411Y-59266396D01*
X85655120Y-59260327D01*
X85693732Y-59255868D01*
X85738232Y-59250754D01*
X85776377Y-59246397D01*
X85802722Y-59243419D01*
X85846154Y-59238569D01*
X86168359Y-59561944D01*
G37*
G36*
X89285386Y-58042344D02*
G01*
X89307053Y-58064038D01*
X89370697Y-58128218D01*
X89426320Y-58185026D01*
X89473179Y-58233678D01*
X89510534Y-58273388D01*
X89537643Y-58303372D01*
X89553764Y-58322847D01*
X89558157Y-58331026D01*
X89556981Y-58332539D01*
X89546657Y-58345529D01*
X89527690Y-58369245D01*
X89501793Y-58401548D01*
X89470679Y-58440303D01*
X89436060Y-58483370D01*
X89428643Y-58492593D01*
X89392607Y-58537424D01*
X89358961Y-58579317D01*
X89329827Y-58615625D01*
X89307331Y-58643701D01*
X89293595Y-58660898D01*
X89286459Y-58669804D01*
X89262902Y-58698552D01*
X89241558Y-58723834D01*
X89216787Y-58752475D01*
X88307644Y-58752475D01*
X88248462Y-58714190D01*
X88177138Y-58672255D01*
X88059660Y-58618231D01*
X87933415Y-58576590D01*
X87801446Y-58548458D01*
X87795466Y-58547414D01*
X87776527Y-58542335D01*
X87768893Y-58537177D01*
X87770216Y-58535224D01*
X87781474Y-58522687D01*
X87803163Y-58499836D01*
X87833999Y-58467985D01*
X87872702Y-58428445D01*
X87917987Y-58382531D01*
X87968573Y-58331554D01*
X88023178Y-58276829D01*
X88277463Y-58022653D01*
X88329176Y-58045364D01*
X88338989Y-58049746D01*
X88374696Y-58066356D01*
X88416217Y-58086361D01*
X88456444Y-58106355D01*
X88532000Y-58144637D01*
X88599647Y-58090473D01*
X88617248Y-58076363D01*
X88646712Y-58052666D01*
X88670508Y-58033433D01*
X88684686Y-58021850D01*
X88688231Y-58018936D01*
X88705094Y-58005226D01*
X88732306Y-57983196D01*
X88767653Y-57954636D01*
X88808922Y-57921335D01*
X88853898Y-57885082D01*
X89005717Y-57762774D01*
X89285386Y-58042344D01*
G37*
G36*
X88789976Y-59832402D02*
G01*
X88802503Y-59843297D01*
X88825304Y-59864630D01*
X88857090Y-59895146D01*
X88896568Y-59933595D01*
X88942451Y-59978722D01*
X88993448Y-60029277D01*
X89048269Y-60084007D01*
X89304575Y-60340751D01*
X89282591Y-60390820D01*
X89278220Y-60400601D01*
X89261928Y-60435580D01*
X89242184Y-60476514D01*
X89222326Y-60516444D01*
X89184045Y-60592000D01*
X89238208Y-60659647D01*
X89252318Y-60677248D01*
X89276016Y-60706712D01*
X89295249Y-60730508D01*
X89306832Y-60744686D01*
X89309745Y-60748231D01*
X89323456Y-60765094D01*
X89345486Y-60792306D01*
X89374046Y-60827653D01*
X89407347Y-60868922D01*
X89443599Y-60913898D01*
X89565908Y-61065717D01*
X89286337Y-61345386D01*
X89264643Y-61367053D01*
X89200463Y-61430697D01*
X89143655Y-61486320D01*
X89095004Y-61533179D01*
X89055294Y-61570534D01*
X89025309Y-61597643D01*
X89005835Y-61613764D01*
X88997656Y-61618157D01*
X88990794Y-61612746D01*
X88972160Y-61597883D01*
X88944434Y-61575696D01*
X88910025Y-61548121D01*
X88871344Y-61517093D01*
X88830801Y-61484547D01*
X88790806Y-61452418D01*
X88753769Y-61422640D01*
X88722100Y-61397148D01*
X88698210Y-61377877D01*
X88684508Y-61366763D01*
X88668910Y-61354167D01*
X88644886Y-61334961D01*
X88617643Y-61313309D01*
X88568347Y-61274245D01*
X88567937Y-60828051D01*
X88567526Y-60381858D01*
X88609601Y-60315885D01*
X88636905Y-60271033D01*
X88699530Y-60147178D01*
X88745751Y-60019993D01*
X88775102Y-59890679D01*
X88779860Y-59863511D01*
X88784624Y-59841287D01*
X88787957Y-59831269D01*
X88789976Y-59832402D01*
G37*
G36*
X86287494Y-57782374D02*
G01*
X86288627Y-57783185D01*
X86309078Y-57798527D01*
X86336827Y-57820144D01*
X86366208Y-57843627D01*
X86372662Y-57848853D01*
X86402214Y-57872702D01*
X86439937Y-57903064D01*
X86481657Y-57936581D01*
X86523199Y-57969895D01*
X86541803Y-57984828D01*
X86577155Y-58013383D01*
X86607006Y-58037724D01*
X86628665Y-58055649D01*
X86639438Y-58064957D01*
X86652040Y-58075597D01*
X86671991Y-58089990D01*
X86692475Y-58103412D01*
X86692475Y-59024123D01*
X86663083Y-59068425D01*
X86635761Y-59113039D01*
X86605198Y-59169151D01*
X86576823Y-59226897D01*
X86554578Y-59278640D01*
X86547316Y-59298765D01*
X86533387Y-59342702D01*
X86519030Y-59393279D01*
X86505772Y-59444734D01*
X86495141Y-59491307D01*
X86488664Y-59527235D01*
X86486453Y-59540983D01*
X86481601Y-59560716D01*
X86477038Y-59568469D01*
X86474953Y-59567025D01*
X86462216Y-59555533D01*
X86439185Y-59533632D01*
X86407168Y-59502603D01*
X86367474Y-59463723D01*
X86321411Y-59418271D01*
X86270287Y-59367525D01*
X86215411Y-59312765D01*
X85959817Y-59057062D01*
X85988898Y-58989406D01*
X85989075Y-58988994D01*
X86008224Y-58946624D01*
X86030444Y-58900563D01*
X86050960Y-58860710D01*
X86083942Y-58799670D01*
X86053454Y-58760881D01*
X86041099Y-58745250D01*
X86021992Y-58721377D01*
X86008318Y-58704660D01*
X86005766Y-58701609D01*
X85986657Y-58678389D01*
X85959561Y-58645074D01*
X85926837Y-58604603D01*
X85890845Y-58559915D01*
X85853943Y-58513947D01*
X85818493Y-58469637D01*
X85786852Y-58429924D01*
X85761380Y-58397745D01*
X85744436Y-58376039D01*
X85703540Y-58322775D01*
X86261602Y-57763937D01*
X86287494Y-57782374D01*
G37*
G36*
X87019904Y-60673988D02*
G01*
X87085571Y-60713524D01*
X87152207Y-60747099D01*
X87226343Y-60777529D01*
X87257113Y-60788420D01*
X87301092Y-60802381D01*
X87346170Y-60815275D01*
X87387975Y-60825934D01*
X87422138Y-60833187D01*
X87444288Y-60835865D01*
X87457365Y-60836758D01*
X87477376Y-60841134D01*
X87484224Y-60844518D01*
X87491108Y-60852041D01*
X87490003Y-60853674D01*
X87479202Y-60865652D01*
X87457931Y-60887993D01*
X87427478Y-60919381D01*
X87389133Y-60958496D01*
X87344185Y-61004023D01*
X87293923Y-61054643D01*
X87239637Y-61109038D01*
X86988166Y-61360397D01*
X86955341Y-61348810D01*
X86937804Y-61341741D01*
X86907103Y-61328017D01*
X86869476Y-61310311D01*
X86829481Y-61290728D01*
X86736447Y-61244234D01*
X86668917Y-61298303D01*
X86651426Y-61312322D01*
X86621974Y-61335996D01*
X86598179Y-61355205D01*
X86583995Y-61366763D01*
X86573821Y-61375056D01*
X86552128Y-61392595D01*
X86522029Y-61416857D01*
X86485962Y-61445885D01*
X86446363Y-61477723D01*
X86405668Y-61510413D01*
X86366313Y-61541999D01*
X86330735Y-61570523D01*
X86301371Y-61594029D01*
X86280655Y-61610559D01*
X86271026Y-61618157D01*
X86269709Y-61618081D01*
X86257875Y-61609901D01*
X86234993Y-61590226D01*
X86201850Y-61559798D01*
X86159228Y-61519359D01*
X86107914Y-61469650D01*
X86048691Y-61411412D01*
X85982344Y-61345386D01*
X85702774Y-61065717D01*
X85825230Y-60913898D01*
X85839073Y-60896733D01*
X85875870Y-60851081D01*
X85909896Y-60808834D01*
X85939119Y-60772517D01*
X85961504Y-60744658D01*
X85975018Y-60727783D01*
X85982197Y-60718846D01*
X86005779Y-60690112D01*
X86027123Y-60664847D01*
X86051895Y-60636207D01*
X86961038Y-60636207D01*
X87019904Y-60673988D01*
G37*
G36*
X88347016Y-60612387D02*
G01*
X88347825Y-60628940D01*
X88348563Y-60660137D01*
X88349211Y-60704183D01*
X88349748Y-60759278D01*
X88350156Y-60823625D01*
X88350415Y-60895427D01*
X88350506Y-60972884D01*
X88350506Y-61335603D01*
X88291911Y-61358156D01*
X88265666Y-61367917D01*
X88222770Y-61383054D01*
X88176966Y-61398543D01*
X88134643Y-61412236D01*
X88102188Y-61421983D01*
X88100413Y-61423536D01*
X88095262Y-61438259D01*
X88090436Y-61465411D01*
X88086648Y-61501362D01*
X88084622Y-61525404D01*
X88079928Y-61574369D01*
X88074273Y-61627843D01*
X88068475Y-61677902D01*
X88065369Y-61703753D01*
X88058705Y-61761664D01*
X88052149Y-61821312D01*
X88046757Y-61873220D01*
X88043654Y-61903727D01*
X88039266Y-61944768D01*
X88035364Y-61979030D01*
X88032529Y-62001261D01*
X88027791Y-62033814D01*
X87240891Y-62033814D01*
X87236152Y-62001261D01*
X87234265Y-61986867D01*
X87230603Y-61955518D01*
X87226287Y-61915885D01*
X87221900Y-61873220D01*
X87218922Y-61843969D01*
X87212902Y-61787055D01*
X87206358Y-61727268D01*
X87200261Y-61673562D01*
X87195885Y-61635770D01*
X87190542Y-61589141D01*
X87185882Y-61547968D01*
X87182576Y-61518143D01*
X87177016Y-61466894D01*
X87492442Y-61151379D01*
X87504783Y-61139041D01*
X87585950Y-61058298D01*
X87655258Y-60990118D01*
X87712761Y-60934450D01*
X87758513Y-60891242D01*
X87792569Y-60860443D01*
X87814983Y-60842001D01*
X87825809Y-60835865D01*
X87843149Y-60833903D01*
X87874955Y-60827337D01*
X87915114Y-60817274D01*
X87959289Y-60804879D01*
X88003143Y-60791314D01*
X88042338Y-60777745D01*
X88054711Y-60773020D01*
X88134100Y-60737866D01*
X88214605Y-60694905D01*
X88287471Y-60648742D01*
X88293602Y-60644474D01*
X88319212Y-60627032D01*
X88338113Y-60614786D01*
X88346582Y-60610164D01*
X88347016Y-60612387D01*
G37*
G36*
X89286151Y-59006388D02*
G01*
X89290367Y-59016637D01*
X89301008Y-59044942D01*
X89314363Y-59082284D01*
X89328787Y-59123887D01*
X89342632Y-59164974D01*
X89354254Y-59200768D01*
X89362004Y-59226493D01*
X89363545Y-59228264D01*
X89378247Y-59233417D01*
X89405393Y-59238244D01*
X89441362Y-59242034D01*
X89465404Y-59244060D01*
X89514369Y-59248754D01*
X89567843Y-59254408D01*
X89617902Y-59260207D01*
X89643753Y-59263313D01*
X89701664Y-59269977D01*
X89761312Y-59276532D01*
X89813220Y-59281925D01*
X89843727Y-59285027D01*
X89884768Y-59289415D01*
X89919030Y-59293318D01*
X89941261Y-59296152D01*
X89973814Y-59300891D01*
X89973814Y-60087791D01*
X89941261Y-60092529D01*
X89926867Y-60094417D01*
X89895518Y-60098078D01*
X89855885Y-60102394D01*
X89813220Y-60106782D01*
X89783977Y-60109756D01*
X89727060Y-60115764D01*
X89667271Y-60122285D01*
X89613562Y-60128354D01*
X89575338Y-60132772D01*
X89529812Y-60138018D01*
X89490214Y-60142565D01*
X89462204Y-60145761D01*
X89415016Y-60151108D01*
X89095441Y-59831620D01*
X89072728Y-59808880D01*
X89012520Y-59748255D01*
X88956618Y-59691477D01*
X88906168Y-59639740D01*
X88862318Y-59594240D01*
X88826216Y-59556174D01*
X88799008Y-59526736D01*
X88781842Y-59507124D01*
X88775865Y-59498532D01*
X88775837Y-59497311D01*
X88772782Y-59477073D01*
X88765502Y-59445119D01*
X88755177Y-59405759D01*
X88742990Y-59363303D01*
X88730119Y-59322061D01*
X88717745Y-59286343D01*
X88710426Y-59267436D01*
X88675821Y-59190439D01*
X88634323Y-59112943D01*
X88590574Y-59043796D01*
X88588838Y-59041311D01*
X88570119Y-59014321D01*
X88555189Y-58992492D01*
X88547143Y-58980346D01*
X88547310Y-58978546D01*
X88553565Y-58976110D01*
X88568265Y-58974123D01*
X88592686Y-58972548D01*
X88628100Y-58971346D01*
X88675781Y-58970478D01*
X88737002Y-58969906D01*
X88813036Y-58969591D01*
X88905158Y-58969495D01*
X89269858Y-58969495D01*
X89286151Y-59006388D01*
G37*
G36*
X88032529Y-57387420D02*
G01*
X88034419Y-57401816D01*
X88038088Y-57433165D01*
X88042417Y-57472797D01*
X88046820Y-57515462D01*
X88049678Y-57543716D01*
X88053340Y-57578864D01*
X88057427Y-57616779D01*
X88062261Y-57660357D01*
X88068164Y-57712492D01*
X88075458Y-57776079D01*
X88084464Y-57854013D01*
X88086805Y-57875774D01*
X88088782Y-57897373D01*
X88087666Y-57900159D01*
X88076807Y-57914485D01*
X88055534Y-57938874D01*
X88025246Y-57971914D01*
X87987343Y-58012196D01*
X87943225Y-58058307D01*
X87894292Y-58108838D01*
X87841943Y-58162377D01*
X87787578Y-58217513D01*
X87732597Y-58272836D01*
X87678400Y-58326934D01*
X87626385Y-58378396D01*
X87577954Y-58425813D01*
X87534505Y-58467772D01*
X87497439Y-58502862D01*
X87468154Y-58529674D01*
X87448052Y-58546796D01*
X87438532Y-58552816D01*
X87437311Y-58552844D01*
X87417073Y-58555900D01*
X87385119Y-58563180D01*
X87345759Y-58573504D01*
X87303303Y-58585692D01*
X87262061Y-58598563D01*
X87226343Y-58610936D01*
X87207436Y-58618255D01*
X87130439Y-58652861D01*
X87052943Y-58694358D01*
X86983796Y-58738108D01*
X86981311Y-58739843D01*
X86954321Y-58758563D01*
X86932492Y-58773493D01*
X86920346Y-58781538D01*
X86918546Y-58781371D01*
X86916110Y-58775117D01*
X86914123Y-58760416D01*
X86912548Y-58735996D01*
X86911346Y-58700582D01*
X86910478Y-58652901D01*
X86909906Y-58591680D01*
X86909591Y-58515645D01*
X86909495Y-58423523D01*
X86909495Y-58058824D01*
X86946388Y-58042531D01*
X86956637Y-58038315D01*
X86984942Y-58027674D01*
X87022284Y-58014318D01*
X87063887Y-57999895D01*
X87104974Y-57986049D01*
X87140768Y-57974428D01*
X87166493Y-57966677D01*
X87168264Y-57965136D01*
X87173417Y-57950435D01*
X87178244Y-57923289D01*
X87182034Y-57887320D01*
X87184060Y-57863277D01*
X87188754Y-57814312D01*
X87194408Y-57760838D01*
X87200207Y-57710780D01*
X87203313Y-57684929D01*
X87209977Y-57627018D01*
X87216532Y-57567369D01*
X87221925Y-57515462D01*
X87225027Y-57484954D01*
X87229415Y-57443914D01*
X87233318Y-57409651D01*
X87236152Y-57387420D01*
X87240891Y-57354867D01*
X88027791Y-57354867D01*
X88032529Y-57387420D01*
G37*
G36*
X87797408Y-59122215D02*
G01*
X87895020Y-59147204D01*
X87984683Y-59184009D01*
X88064762Y-59232071D01*
X88133628Y-59290831D01*
X88189647Y-59359732D01*
X88194074Y-59366505D01*
X88232187Y-59435402D01*
X88262088Y-59508983D01*
X88280755Y-59579948D01*
X88283331Y-59601441D01*
X88285520Y-59638701D01*
X88286519Y-59683101D01*
X88286126Y-59729064D01*
X88285533Y-59748925D01*
X88282992Y-59795496D01*
X88278480Y-59832676D01*
X88271109Y-59866336D01*
X88259994Y-59902349D01*
X88258405Y-59906965D01*
X88218702Y-59994735D01*
X88164289Y-60074021D01*
X88096246Y-60143496D01*
X88015656Y-60201836D01*
X87965979Y-60231888D01*
X87932542Y-60194209D01*
X87912277Y-60169019D01*
X87901219Y-60146374D01*
X87903128Y-60127853D01*
X87917417Y-60110194D01*
X87936027Y-60091418D01*
X87966290Y-60055452D01*
X87997265Y-60013747D01*
X88024771Y-59972029D01*
X88044626Y-59936023D01*
X88048676Y-59927242D01*
X88057626Y-59905332D01*
X88063375Y-59884274D01*
X88066620Y-59859514D01*
X88068056Y-59826502D01*
X88068380Y-59780685D01*
X88068233Y-59738966D01*
X88067181Y-59706302D01*
X88064312Y-59681826D01*
X88058715Y-59660778D01*
X88049478Y-59638396D01*
X88035690Y-59609920D01*
X88015049Y-59573617D01*
X87966123Y-59513197D01*
X87905660Y-59463917D01*
X87835712Y-59427001D01*
X87758333Y-59403673D01*
X87675575Y-59395158D01*
X87638681Y-59394853D01*
X87638681Y-60193086D01*
X87616905Y-60207355D01*
X87605497Y-60212636D01*
X87574590Y-60219876D01*
X87533038Y-60224633D01*
X87484999Y-60226775D01*
X87434630Y-60226166D01*
X87386089Y-60222673D01*
X87343534Y-60216162D01*
X87306304Y-60206860D01*
X87223253Y-60174966D01*
X87148467Y-60130304D01*
X87084327Y-60074465D01*
X87033214Y-60009036D01*
X87031419Y-60006167D01*
X86998449Y-59946005D01*
X86975862Y-59886180D01*
X86962002Y-59821080D01*
X86955209Y-59745094D01*
X86954277Y-59719764D01*
X87121305Y-59719764D01*
X87126932Y-59773130D01*
X87142458Y-59818402D01*
X87154184Y-59838782D01*
X87195575Y-59890132D01*
X87246158Y-59928921D01*
X87303517Y-59953583D01*
X87365236Y-59962557D01*
X87394768Y-59961229D01*
X87432702Y-59951398D01*
X87458391Y-59931190D01*
X87473536Y-59899617D01*
X87475656Y-59885387D01*
X87477846Y-59854943D01*
X87479695Y-59811809D01*
X87481122Y-59758483D01*
X87482044Y-59697461D01*
X87482378Y-59631240D01*
X87482427Y-59394523D01*
X87462895Y-59398962D01*
X87454802Y-59400773D01*
X87429636Y-59406280D01*
X87400233Y-59412611D01*
X87370827Y-59420141D01*
X87300999Y-59448478D01*
X87238330Y-59488713D01*
X87185970Y-59538567D01*
X87147067Y-59595764D01*
X87139245Y-59613078D01*
X87125451Y-59664386D01*
X87121305Y-59719764D01*
X86954277Y-59719764D01*
X86953736Y-59705080D01*
X86953961Y-59668898D01*
X86956919Y-59638279D01*
X86963276Y-59606888D01*
X86973691Y-59568393D01*
X86983108Y-59538082D01*
X87019972Y-59450991D01*
X87069793Y-59372627D01*
X87134742Y-59299365D01*
X87154349Y-59280703D01*
X87228627Y-59220915D01*
X87307170Y-59175479D01*
X87393491Y-59142630D01*
X87482427Y-59122564D01*
X87491108Y-59120605D01*
X87584859Y-59109920D01*
X87693477Y-59109601D01*
X87797408Y-59122215D01*
G37*
%TD*%
%LPC*%
D12*
%TO.C,U2*%
X104140000Y-58420000D03*
D13*
X104140000Y-60960000D03*
X104140000Y-63500000D03*
X104140000Y-66040000D03*
X104140000Y-68580000D03*
X104140000Y-71120000D03*
X104140000Y-73660000D03*
X104140000Y-76200000D03*
X96520000Y-76200000D03*
X96520000Y-73660000D03*
X96520000Y-71120000D03*
X96520000Y-68580000D03*
X96520000Y-66040000D03*
X96520000Y-63500000D03*
X96520000Y-60960000D03*
X96520000Y-58420000D03*
%TD*%
D12*
%TO.C,U3*%
X80010000Y-58420000D03*
D13*
X80010000Y-60960000D03*
X80010000Y-63500000D03*
X80010000Y-66040000D03*
X80010000Y-68580000D03*
X80010000Y-71120000D03*
X80010000Y-73660000D03*
X80010000Y-76200000D03*
X72390000Y-76200000D03*
X72390000Y-73660000D03*
X72390000Y-71120000D03*
X72390000Y-68580000D03*
X72390000Y-66040000D03*
X72390000Y-63500000D03*
X72390000Y-60960000D03*
X72390000Y-58420000D03*
%TD*%
D12*
%TO.C,U1*%
X83820000Y-58420000D03*
D13*
X83820000Y-60960000D03*
X83820000Y-63500000D03*
X83820000Y-66040000D03*
X83820000Y-68580000D03*
X83820000Y-71120000D03*
X83820000Y-73660000D03*
X83820000Y-76200000D03*
X83820000Y-78740000D03*
X83820000Y-81280000D03*
X91440000Y-81280000D03*
X91440000Y-78740000D03*
X91440000Y-76200000D03*
X91440000Y-73660000D03*
X91440000Y-71120000D03*
X91440000Y-68580000D03*
X91440000Y-66040000D03*
X91440000Y-63500000D03*
X91440000Y-60960000D03*
X91440000Y-58420000D03*
%TD*%
%LPD*%
M02*
